<?xml version="1.0" encoding="UTF-8"?>
<svg width="16px" height="15px" viewBox="0 0 16 15" version="1.1" xmlns="http://www.w3.org/2000/svg" xmlns:xlink="http://www.w3.org/1999/xlink">
    <defs>
        <path d="M7.865,9.263 L9,9.907 L7,12.462 L9,14.315 L0,14.315 L0,12.338 C0,11.535 0.45,10.797 1.175,10.413 L3.405,9.23 C3.618,9.117 3.75,8.901 3.75,8.666 L3.75,7.862 C3.582,7.649 3.103,6.984 2.874,6.103 C2.638,5.919 2.5,5.643 2.5,5.347 L2.5,4.375 C2.5,4.141 2.59,3.914 2.75,3.737 L2.75,2.444 C2.736,2.31 2.681,1.514 3.273,0.858 C3.786,0.288 4.62,0 5.75,0 C6.88,0 7.713,0.288 8.227,0.858 C8.819,1.514 8.764,2.31 8.75,2.444 L8.75,3.737 C8.91,3.914 9,4.141 9,4.375 L9,5.347 C9,5.73 8.771,6.069 8.418,6.226 C8.237,6.737 7.989,7.21 7.679,7.635 C7.617,7.721 7.557,7.799 7.5,7.867 L7.5,8.688 C7.5,8.933 7.64,9.154 7.865,9.263 Z M10.863,14.823 L8,12.05 L9.39,10.612 L10.863,12.038 L14,9 L15.39,10.437 L10.863,14.823 Z" id="path-1"></path>
    </defs>
    <g id="Symbols" stroke="none" stroke-width="1" fill="none" fill-rule="evenodd">
        <g id="Icon/Prompt" transform="translate(-4.000000, -5.000000)">
            <g id="Color/RoyalPurple-#654796" transform="translate(4.000000, 5.000000)">
                <mask id="mask-2" fill="white">
                    <use xlink:href="#path-1"></use>
                </mask>
                <use id="Icon_Prompt" fill="#3C444F" xlink:href="#path-1"></use>
            </g>
        </g>
    </g>
</svg>