<?xml version="1.0" encoding="UTF-8"?>
<svg width="13px" height="12px" viewBox="0 0 13 12" version="1.1" xmlns="http://www.w3.org/2000/svg" xmlns:xlink="http://www.w3.org/1999/xlink">
    <g stroke="none" stroke-width="1" fill="none" fill-rule="evenodd">
        <path d="M2.32143134,1.71427464 C2.32143134,2.0479804 2.14006952,2.34541379 1.85714507,2.51226667 L1.85714507,11.6964294 C1.85714507,11.8197554 1.74832798,11.9285725 1.62500194,11.9285725 L1.16071567,11.9285725 C1.03738963,11.9285725 0.928572536,11.8197554 0.928572536,11.6964294 L0.928572536,2.51226667 C0.645648091,2.34541379 0.464286268,2.0479804 0.464286268,1.71427464 C0.464286268,1.19920707 0.877791225,0.785702109 1.3928588,0.785702109 C1.90792638,0.785702109 2.32143134,1.19920707 2.32143134,1.71427464 Z M13.0000155,2.17856091 L13.0000155,7.71372376 C13.0000155,7.98213926 12.8331626,8.08370188 12.6227829,8.19251897 C11.8030275,8.63504182 10.8962183,9.03403783 9.94588239,9.03403783 C8.61105937,9.03403783 7.97266575,8.01841162 6.39119065,8.01841162 C5.23772946,8.01841162 4.02623248,8.54073368 3.02511521,9.07756467 C2.94531601,9.12109151 2.87277128,9.14285493 2.78571761,9.14285493 C2.53181105,9.14285493 2.32143134,8.93247521 2.32143134,8.67856866 L2.32143134,3.29574974 C2.32143134,3.12164239 2.40848501,2.99831635 2.54632,2.89675373 C2.72042735,2.78068217 2.93080707,2.67911955 3.11942336,2.5848114 C4.03348695,2.12052513 5.14342131,1.71427464 6.17355647,1.71427464 C7.31250872,1.71427464 8.20480889,2.09150724 9.21318063,2.56304798 C9.41630587,2.6646106 9.62668558,2.70088296 9.85157424,2.70088296 C10.9905265,2.70088296 12.2165324,1.71427464 12.5357292,1.71427464 C12.7896358,1.71427464 13.0000155,1.92465436 13.0000155,2.17856091 Z" fill="#65A637"></path>
    </g>
</svg>
