<?xml version="1.0" encoding="UTF-8"?>
<svg viewBox="-5 -5 20 20" version="1.1" xmlns="http://www.w3.org/2000/svg" xmlns:xlink="http://www.w3.org/1999/xlink">
    <g x="5" y="5" stroke="none" stroke-width="1" fill="none" fill-rule="evenodd">
        <path d="M4.71428571,5.5 L4.71428571,7.85714286 C4.71428571,8.06994154 4.63653352,8.25409148 4.48102679,8.40959821 C4.32552006,8.56510494 4.14137011,8.64285714 3.92857143,8.64285714 L0.785714286,8.64285714 C0.572915603,8.64285714 0.388765658,8.56510494 0.233258929,8.40959821 C0.0777521987,8.25409148 0,8.06994154 0,7.85714286 L0,5.5 C0,5.28720132 0.0777521987,5.10305137 0.233258929,4.94754464 C0.388765658,4.79203791 0.572915603,4.71428571 0.785714286,4.71428571 L3.92857143,4.71428571 C4.14137011,4.71428571 4.32552006,4.79203791 4.48102679,4.94754464 C4.63653352,5.10305137 4.71428571,5.28720132 4.71428571,5.5 Z M4.71428571,0.785714286 L4.71428571,3.14285714 C4.71428571,3.35565583 4.63653352,3.53980577 4.48102679,3.6953125 C4.32552006,3.85081923 4.14137011,3.92857143 3.92857143,3.92857143 L0.785714286,3.92857143 C0.572915603,3.92857143 0.388765658,3.85081923 0.233258929,3.6953125 C0.0777521987,3.53980577 0,3.35565583 0,3.14285714 L0,0.785714286 C0,0.572915603 0.0777521987,0.388765658 0.233258929,0.233258929 C0.388765658,0.0777521987 0.572915603,0 0.785714286,0 L3.92857143,0 C4.14137011,0 4.32552006,0.0777521987 4.48102679,0.233258929 C4.63653352,0.388765658 4.71428571,0.572915603 4.71428571,0.785714286 Z M10.2142857,5.5 L10.2142857,7.85714286 C10.2142857,8.06994154 10.1365335,8.25409148 9.98102679,8.40959821 C9.82552006,8.56510494 9.64137011,8.64285714 9.42857143,8.64285714 L6.28571429,8.64285714 C6.0729156,8.64285714 5.88876566,8.56510494 5.73325893,8.40959821 C5.5777522,8.25409148 5.5,8.06994154 5.5,7.85714286 L5.5,5.5 C5.5,5.28720132 5.5777522,5.10305137 5.73325893,4.94754464 C5.88876566,4.79203791 6.0729156,4.71428571 6.28571429,4.71428571 L9.42857143,4.71428571 C9.64137011,4.71428571 9.82552006,4.79203791 9.98102679,4.94754464 C10.1365335,5.10305137 10.2142857,5.28720132 10.2142857,5.5 Z M10.2142857,0.785714286 L10.2142857,3.14285714 C10.2142857,3.35565583 10.1365335,3.53980577 9.98102679,3.6953125 C9.82552006,3.85081923 9.64137011,3.92857143 9.42857143,3.92857143 L6.28571429,3.92857143 C6.0729156,3.92857143 5.88876566,3.85081923 5.73325893,3.6953125 C5.5777522,3.53980577 5.5,3.35565583 5.5,3.14285714 L5.5,0.785714286 C5.5,0.572915603 5.5777522,0.388765658 5.73325893,0.233258929 C5.88876566,0.0777521987 6.0729156,0 6.28571429,0 L9.42857143,0 C9.64137011,0 9.82552006,0.0777521987 9.98102679,0.233258929 C10.1365335,0.388765658 10.2142857,0.572915603 10.2142857,0.785714286 Z" fill="#FFFFFF"></path>
    </g>
</svg>
