<?xml version="1.0" encoding="UTF-8" standalone="no"?>
<svg width="48px" height="48px" viewBox="0 0 48 48" version="1.1" xmlns="http://www.w3.org/2000/svg" xmlns:xlink="http://www.w3.org/1999/xlink">
    <!-- Generator: Sketch 39.1 (31720) - http://www.bohemiancoding.com/sketch -->
    <title>Group 2</title>
    <desc>Created with Sketch.</desc>
    <defs></defs>
    <g id="Page-1" stroke="none" stroke-width="1" fill="none" fill-rule="evenodd">
        <g id="Group-2">
            <g id="Group" fill="#FFFFFF">
                <path d="M24,48 C37.254834,48 48,37.254834 48,24 C48,10.745166 37.254834,0 24,0 C10.745166,0 0,10.745166 0,24 C0,37.254834 10.745166,48 24,48 Z" id="Oval-9-Copy-13"></path>
            </g>
            <g id="Group-14" transform="translate(9.000000, 11.000000)" stroke="#6C7A89" stroke-width="1.5">
                <path d="M20.560484,21.5203303 L15.4871257,21.5203303 C14.4006799,21.5203303 13.5207078,20.6408592 13.5207078,19.5550317 L13.5207078,15.3768068" id="Stroke-4"></path>
                <path d="M10.0524382,11.9013727 L6.94549795,11.9013727 C5.85905205,11.9013727 4.97908004,11.0219016 4.97908004,9.93607407 L4.97908004,6.47125259" id="Stroke-6"></path>
                <path d="M21.9291549,14.5219019 C21.3864236,14.5219019 20.9459459,14.081675 20.9459459,13.5392526 L20.9459459,9.36102769 C20.9459459,8.81860527 21.3864236,8.37837838 21.9291549,8.37837838 L29.8636512,8.37837838 C30.4063825,8.37837838 30.8468601,8.81860527 30.8468601,9.36102769 L30.8468601,13.5392526 C30.8468601,14.081675 30.4063825,14.5219019 29.8636512,14.5219019 L21.9291549,14.5219019 Z" id="Stroke-8" fill="#FFFFFF"></path>
                <path d="M8.94622985,6.43627027 L1.01173358,6.43627027 C0.469002239,6.43627027 0.0285246269,5.99604338 0.0285246269,5.45362095 L0.0285246269,1.27539606 C0.0285246269,0.73297364 0.469002239,0.292746747 1.01173358,0.292746747 L8.94622985,0.292746747 C9.48896119,0.292746747 9.92943881,0.73297364 9.92943881,1.27539606 L9.92943881,5.45362095 C9.92943881,5.99604338 9.48896119,6.43627027 8.94622985,6.43627027 Z M22.0372638,24.5920921 C21.4945325,24.5920921 21.0540549,24.1518652 21.0540549,23.6094428 L21.0540549,19.4312179 C21.0540549,18.8887955 21.4945325,18.4485686 22.0372638,18.4485686 L29.9717601,18.4485686 C30.5144914,18.4485686 30.954969,18.8887955 30.954969,19.4312179 L30.954969,23.6094428 C30.954969,24.1518652 30.5144914,24.5920921 29.9717601,24.5920921 L22.0372638,24.5920921 Z" id="Combined-Shape" fill="#FFFFFF"></path>
                <path d="M17.5945946,11.7297297 L21.1587271,11.7297297" id="Stroke-12"></path>
                <polygon id="Combined-Shape" fill="#FFFFFF" points="17.4361409 11.9013727 13.5210028 15.8142823 9.60586474 11.9013727 13.5210028 7.98846313"></polygon>
            </g>
        </g>
    </g>
</svg>