<?xml version="1.0" encoding="UTF-8" standalone="no"?>
<svg width="58px" height="58px" viewBox="0 0 58 58" version="1.1" xmlns="http://www.w3.org/2000/svg" xmlns:xlink="http://www.w3.org/1999/xlink">
    <!-- Generator: Sketch 3.6.1 (26313) - http://www.bohemiancoding.com/sketch -->
    <title>Flyout / Transform Object</title>
    <desc>Created with Sketch.</desc>
    <defs>
        <filter x="-50%" y="-50%" width="200%" height="200%" filterUnits="objectBoundingBox" id="filter-1">
            <feOffset dx="0" dy="2" in="SourceAlpha" result="shadowOffsetOuter1"></feOffset>
            <feGaussianBlur stdDeviation="2.5" in="shadowOffsetOuter1" result="shadowBlurOuter1"></feGaussianBlur>
            <feColorMatrix values="0 0 0 0 0   0 0 0 0 0   0 0 0 0 0  0 0 0 0.105 0" in="shadowBlurOuter1" type="matrix" result="shadowMatrixOuter1"></feColorMatrix>
            <feMerge>
                <feMergeNode in="shadowMatrixOuter1"></feMergeNode>
                <feMergeNode in="SourceGraphic"></feMergeNode>
            </feMerge>
        </filter>
        <filter x="-50%" y="-50%" width="200%" height="200%" filterUnits="objectBoundingBox" id="filter-2">
            <feOffset dx="0" dy="2" in="SourceAlpha" result="shadowOffsetOuter1"></feOffset>
            <feGaussianBlur stdDeviation="1.5" in="shadowOffsetOuter1" result="shadowBlurOuter1"></feGaussianBlur>
            <feColorMatrix values="0 0 0 0 0   0 0 0 0 0   0 0 0 0 0  0 0 0 0.098 0" in="shadowBlurOuter1" type="matrix" result="shadowMatrixOuter1"></feColorMatrix>
            <feMerge>
                <feMergeNode in="shadowMatrixOuter1"></feMergeNode>
                <feMergeNode in="SourceGraphic"></feMergeNode>
            </feMerge>
        </filter>
    </defs>
    <g id="Page-1" stroke="none" stroke-width="1" fill="none" fill-rule="evenodd">
        <g id="Flyout-/-Transform-Object" transform="translate(5.000000, 3.000000)">
            <path d="M24,48 C37.254834,48 48,37.254834 48,24 C48,10.745166 37.254834,0 24,0 C10.745166,0 0,10.745166 0,24 C0,37.254834 10.745166,48 24,48 Z" id="Oval-9-Copy-13" fill="#81CCC4" filter="url(#filter-1)"></path>
            <rect id="Rectangle-42-Copy-8" fill="#6D7A88" filter="url(#filter-2)" transform="translate(23.970563, 23.970563) rotate(-315.000000) translate(-23.970563, -23.970563) " x="11.9705627" y="11.9705627" width="24" height="24" rx="2"></rect>
            <g id="Fill-7-+-Fill-8" transform="translate(16.000000, 16.000000)" fill="#ECEFF1">
                <path d="M5.319,11.875 C4.11275,11.875 3.1315,10.89375 3.1315,9.6875 C3.1315,8.48125 4.11275,7.5 5.319,7.5 C6.52525,7.5 7.5065,8.48125 7.5065,9.6875 C7.5065,10.89375 6.52525,11.875 5.319,11.875 M10.43525,10.83375 L9.6415,10.37625 C9.6765,10.151875 9.694,9.92 9.694,9.6875 C9.694,9.459375 9.67525,9.22875 9.639,8.9975 L10.43025,8.54125 C10.579625,8.454375 10.630875,8.26375 10.544625,8.11375 L9.294625,5.94875 C9.25275,5.87625 9.184,5.82375 9.10275,5.8025 C9.02275,5.78 8.9365,5.793125 8.864625,5.835625 L8.094625,6.29 C7.748375,5.99625 7.342125,5.760625 6.874625,5.595 L6.874625,4.6875 C6.874625,4.515 6.734625,4.375 6.562125,4.375 L4.113375,4.375 C3.9415,4.375 3.800875,4.515 3.800875,4.6875 L3.800875,5.594375 C3.363375,5.746875 2.975875,5.970625 2.585875,6.293125 L1.779625,5.83375 C1.629625,5.7475 1.440875,5.799375 1.354625,5.948125 L0.099,8.11375 C0.057125,8.185 0.04525,8.27 0.067125,8.350625 C0.088375,8.430625 0.140875,8.499375 0.21275,8.540625 L1.0015,8.9975 C0.964625,9.23 0.945875,9.460625 0.945875,9.6875 C0.945875,9.9175 0.964,10.14875 0.999625,10.3775 L0.20775,10.83375 C0.058375,10.920625 0.007125,11.11125 0.093375,11.26125 L1.34275,13.42625 C1.429,13.575 1.618375,13.626875 1.767125,13.5425 L2.584625,13.08125 C2.974625,13.404375 3.362125,13.628125 3.800875,13.78125 L3.800875,14.6875 C3.800875,14.86 3.9415,15 4.113375,15 L6.562125,15 C6.734625,15 6.874625,14.86 6.874625,14.6875 L6.874625,13.780625 C7.342125,13.614375 7.749,13.378125 8.0965,13.08375 L8.877125,13.54 C8.949,13.581875 9.034625,13.594375 9.11525,13.5725 C9.195875,13.55125 9.264,13.49875 9.305875,13.42625 L10.55025,11.260625 C10.635875,11.110625 10.584625,10.920625 10.43525,10.83375" id="Fill-7"></path>
                <path d="M11.8815,4.375 C11.19275,4.375 10.6315,3.815 10.6315,3.125 C10.6315,2.435 11.19275,1.875 11.8815,1.875 C12.570875,1.875 13.1315,2.435 13.1315,3.125 C13.1315,3.815 12.570875,4.375 11.8815,4.375 M14.790875,3.719375 L14.358375,3.47 C14.374,3.35625 14.3815,3.24125 14.3815,3.125 C14.3815,3.01125 14.373375,2.895625 14.3565,2.77875 L14.785875,2.530625 C14.93525,2.444375 14.9865,2.25375 14.900875,2.104375 L14.275875,1.02125 C14.233375,0.94875 14.164625,0.89625 14.083375,0.874375 C14.002125,0.853125 13.915875,0.865625 13.844,0.909375 L13.43775,1.153125 C13.260875,1.01375 13.067125,0.89875 12.863375,0.8125 L12.863375,0.3125 C12.863375,0.14 12.723375,0 12.550875,0 L11.300875,0 C11.129,0 10.988375,0.14 10.988375,0.3125 L10.988375,0.810625 C10.762125,0.9025 10.549,1.0225 10.368375,1.15875 L9.923375,0.905625 C9.774,0.820625 9.58525,0.871875 9.499,1.02 L8.868375,2.103125 C8.8265,2.174375 8.81525,2.26 8.8365,2.34 C8.85775,2.42 8.91025,2.48875 8.9815,2.530625 L9.409625,2.7775 C9.3915,2.895625 9.383375,3.01125 9.383375,3.125 C9.383375,3.24 9.3915,3.355 9.40775,3.47125 L8.977125,3.719375 C8.90525,3.760625 8.85275,3.82875 8.8315,3.90875 C8.81025,3.98875 8.8215,4.075 8.86275,4.14625 L9.48775,5.229375 C9.57275,5.37625 9.760875,5.42875 9.91025,5.345625 L10.3665,5.090625 C10.54775,5.226875 10.7615,5.348125 10.988375,5.44 L10.988375,5.9375 C10.988375,6.11 11.129,6.25 11.300875,6.25 L12.550875,6.25 C12.723375,6.25 12.863375,6.11 12.863375,5.9375 L12.863375,5.438125 C13.067125,5.350625 13.2615,5.235625 13.439625,5.095625 L13.85775,5.341875 C13.929625,5.384375 14.01525,5.395625 14.0965,5.375 C14.1765,5.3525 14.245875,5.3 14.287125,5.228125 L14.9065,4.145 C14.992125,3.99625 14.940875,3.805 14.790875,3.719375" id="Fill-8"></path>
            </g>
        </g>
    </g>
</svg>