<?xml version="1.0" encoding="UTF-8"?>
<svg width="25px" height="23px" viewBox="0 0 25 23" version="1.1" xmlns="http://www.w3.org/2000/svg" xmlns:xlink="http://www.w3.org/1999/xlink">
    <!-- Generator: Sketch 42 (36781) - http://www.bohemiancoding.com/sketch -->
    <title>Group</title>
    <desc>Created with Sketch.</desc>
    <defs></defs>
    <g id="Page-1" stroke="none" stroke-width="1" fill="none" fill-rule="evenodd">
        <g id="Group">
            <path d="M12.1393803,14.2972094 C11.791725,14.1283979 11.5756463,13.788524 11.5756463,13.4103863 L11.5756463,12.1420491 C11.6640071,12.0370109 11.7569981,11.9177174 11.853076,11.7852941 C12.331536,11.1288049 12.7143041,10.3980387 12.9928913,9.60987649 C13.5373325,9.36716305 13.8907756,8.84384738 13.8907756,8.2530071 L13.8907756,6.75246035 C13.8907756,6.39120372 13.7518678,6.04120119 13.5049207,5.76772655 L13.5049207,3.77237452 C13.5265286,3.56604934 13.6114166,2.33747669 12.6977123,1.3242325 C11.9051664,0.445287247 10.6191121,0 8.87466218,0 C7.13021228,0 5.84415797,0.445287247 5.05161205,1.3242325 C4.1379077,2.33747669 4.22279578,3.56604934 4.24440365,3.77237452 L4.24440365,5.76772655 C3.99745653,6.04120119 3.85854877,6.39120372 3.85854877,6.75246035 L3.85854877,8.2530071 C3.85854877,8.70954844 4.07192652,9.13532858 4.43617352,9.41930705 C4.78961659,10.7799278 5.52968625,11.8055515 5.78782316,12.1345464 L5.78782316,13.3754985 C5.78782316,13.7386309 5.58409178,14.0721274 5.25650099,14.2461908 L1.81390378,16.0716059 C0.694924634,16.6650721 0,17.8032369 0,19.0426885 L0,22.0943675 L13.8907757,22.0943675 L11.1182182,19.2351824 L13.8907757,15.2911533 L12.1393803,14.2972094 Z" id="Fill-83-Copy-3" fill="#6D7A88"></path>
            <polyline id="Path-47-Copy-3" stroke="#6D7A88" stroke-width="2" points="15 17.3847535 18.2063748 20.490637 23.8746622 15"></polyline>
        </g>
    </g>
</svg>