<?xml version="1.0" encoding="UTF-8" standalone="no"?>
<svg width="24px" height="24px" viewBox="0 0 24 24" version="1.1" xmlns="http://www.w3.org/2000/svg" xmlns:xlink="http://www.w3.org/1999/xlink">
    <!-- Generator: Sketch 3.7.1 (28215) - http://www.bohemiancoding.com/sketch -->
    <title>Icon / Full-Screen</title>
    <desc>Created with Sketch.</desc>
    <defs></defs>
    <g id="Page-1" stroke="none" stroke-width="1" fill="none" fill-rule="evenodd">
        <g id="Icon-/-Full-Screen" fill="#6D7A88">
            <path d="M23.9230092,0.618951918 C23.8210092,0.373951918 23.6270092,0.177951918 23.3820092,0.0779519182 C23.2600092,0.0269519182 23.1300092,0.000951918159 23.0000092,0.000951918159 L18.0000092,0.000951918159 C17.4470092,0.000951918159 17.0000092,0.447951918 17.0000092,1.00095192 C17.0000092,1.55295192 17.4470092,2.00095192 18.0000092,2.00095192 L20.5860092,2.00095192 L18.2930092,4.29395192 C17.9020092,4.68395192 17.9020092,5.31695192 18.2930092,5.70795192 C18.4880092,5.90295192 18.7440092,6.00095192 19.0000092,6.00095192 C19.2560092,6.00095192 19.5120092,5.90295192 19.7070092,5.70795192 L22.0000092,3.41495192 L22.0000092,6.00095192 C22.0000092,6.55295192 22.4470092,7.00095192 23.0000092,7.00095192 C23.5530092,7.00095192 24.0000092,6.55295192 24.0000092,6.00095192 L24.0000092,1.00095192 C24.0000092,0.870951918 23.9740092,0.740951918 23.9230092,0.618951918" id="Fill-350"></path>
            <path d="M6.00010924,22.0007519 L3.41410924,22.0007519 L5.70710924,19.7077519 C6.09810924,19.3167519 6.09810924,18.6847519 5.70710924,18.2937519 C5.31610924,17.9027519 4.68410924,17.9027519 4.29310924,18.2937519 L2.00010924,20.5867519 L2.00010924,18.0007519 C2.00010924,17.4477519 1.55310924,17.0007519 1.00010924,17.0007519 C0.447109242,17.0007519 0.00010924164,17.4477519 0.00010924164,18.0007519 L0.00010924164,23.0007519 C0.00010924164,23.1307519 0.0261092416,23.2607519 0.0771092416,23.3827519 C0.179109242,23.6277519 0.373109242,23.8227519 0.618109242,23.9237519 C0.740109242,23.9747519 0.870109242,24.0007519 1.00010924,24.0007519 L6.00010924,24.0007519 C6.55310924,24.0007519 7.00010924,23.5537519 7.00010924,23.0007519 C7.00010924,22.4477519 6.55310924,22.0007519 6.00010924,22.0007519" id="Fill-351"></path>
            <path d="M1.00010924,7.00075192 C1.55310924,7.00075192 2.00010924,6.55375192 2.00010924,6.00075192 L2.00010924,3.41475192 L4.29310924,5.70775192 C4.48810924,5.90275192 4.74410924,6.00075192 5.00010924,6.00075192 C5.25610924,6.00075192 5.51210924,5.90275192 5.70710924,5.70775192 C6.09810924,5.31675192 6.09810924,4.68475192 5.70710924,4.29375192 L3.41410924,2.00075192 L6.00010924,2.00075192 C6.55310924,2.00075192 7.00010924,1.55375192 7.00010924,1.00075192 C7.00010924,0.447751918 6.55310924,0.000751918159 6.00010924,0.000751918159 L1.00010924,0.000751918159 C0.870109242,0.000751918159 0.740109242,0.0267519182 0.618109242,0.0777519182 C0.373109242,0.178751918 0.179109242,0.373751918 0.0771092416,0.618751918 C0.0261092416,0.740751918 0.00010924164,0.870751918 0.00010924164,1.00075192 L0.00010924164,6.00075192 C0.00010924164,6.55375192 0.447109242,7.00075192 1.00010924,7.00075192" id="Fill-352"></path>
            <path d="M23.0001092,17.0007519 C22.4471092,17.0007519 22.0001092,17.4477519 22.0001092,18.0007519 L22.0001092,20.5857519 L19.7071092,18.2917519 C19.3161092,17.9007519 18.6841092,17.9007519 18.2931092,18.2917519 C17.9021092,18.6827519 17.9021092,19.3147519 18.2931092,19.7057519 L20.5871092,22.0007519 L18.0001092,22.0007519 C17.4471092,22.0007519 17.0001092,22.4477519 17.0001092,23.0007519 C17.0001092,23.5537519 17.4471092,24.0007519 18.0001092,24.0007519 L23.0001092,24.0007519 C23.1301092,24.0007519 23.2601092,23.9747519 23.3821092,23.9237519 C23.6271092,23.8217519 23.8211092,23.6277519 23.9231092,23.3827519 C23.9741092,23.2607519 24.0001092,23.1307519 24.0001092,23.0007519 L24.0001092,18.0007519 C24.0001092,17.4477519 23.5531092,17.0007519 23.0001092,17.0007519" id="Fill-353"></path>
            <path d="M15.9997092,16.0006519 L7.99970924,16.0006519 L7.99970924,8.00065192 L15.9997092,8.00065192 L15.9997092,16.0006519 Z M17.9997092,17.0006519 L17.9997092,7.00065192 C17.9997092,6.44765192 17.5527092,6.00065192 16.9997092,6.00065192 L6.99970924,6.00065192 C6.44770924,6.00065192 5.99970924,6.44765192 5.99970924,7.00065192 L5.99970924,17.0006519 C5.99970924,17.5536519 6.44770924,18.0006519 6.99970924,18.0006519 L16.9997092,18.0006519 C17.5527092,18.0006519 17.9997092,17.5536519 17.9997092,17.0006519 L17.9997092,17.0006519 Z" id="Fill-354"></path>
        </g>
    </g>
</svg>