<?xml version="1.0" encoding="UTF-8"?>
<svg width="67px" height="48px" viewBox="0 0 67 48" version="1.1" xmlns="http://www.w3.org/2000/svg" xmlns:xlink="http://www.w3.org/1999/xlink">
    <!-- Generator: Sketch 51.1 (57501) - http://www.bohemiancoding.com/sketch -->
    <title>Slice 1</title>
    <desc>Created with Sketch.</desc>
    <defs></defs>
    <g id="Page-1" stroke="none" stroke-width="1" fill="none" fill-rule="evenodd">
        <g id="selector_format_light">
            <g id="Rectangle-Copy-66">
                <g id="path-1-link" transform="translate(1.000000, 1.000000)" fill="#FFFFFF">
                    <rect id="path-1" x="0.302212555" y="0.302212555" width="64" height="45" rx="2"></rect>
                </g>
                <rect id="Rectangle-path" stroke="#818D99" x="0.802212555" y="0.802212555" width="65" height="46" rx="2"></rect>
            </g>
            <g id="selector_custom_function" transform="translate(16.000000, 10.000000)" fill="#818D99" fill-rule="nonzero">
                <path d="M11.252459,22.1326211 L10.2688525,23.1158353 C10.1377043,23.2469312 9.98688609,23.3124782 9.81639344,23.3124782 C9.64590079,23.3124782 9.49508261,23.2469312 9.36393443,23.1158353 L0.196721311,13.9522786 C0.0655731141,13.8211827 0,13.6704247 0,13.5 C0,13.3295754 0.0655731141,13.1788173 0.196721311,13.0477215 L9.36393443,3.88416469 C9.49508261,3.75306882 9.64590079,3.68752185 9.81639344,3.68752185 C9.98688609,3.68752185 10.1377043,3.75306882 10.2688525,3.88416469 L11.252459,4.86737894 C11.3836072,4.99847482 11.4491803,5.14923284 11.4491803,5.31965749 C11.4491803,5.49008214 11.3836072,5.64084017 11.252459,5.77193605 L3.52131148,13.5 L11.252459,21.228064 C11.3836072,21.3591599 11.4491803,21.5099179 11.4491803,21.6803425 C11.4491803,21.8507672 11.3836072,22.0015252 11.252459,22.1326211 Z M22.8786885,1.15082909 L15.5409836,26.5374209 C15.4885243,26.7078456 15.386886,26.8356621 15.2360656,26.9208746 C15.0852452,27.0060868 14.9311483,27.0224734 14.7737705,26.9700352 L13.5540984,26.6357423 C13.3836057,26.5833041 13.2557381,26.4817062 13.1704918,26.330946 C13.0852455,26.1801856 13.0688522,26.0195957 13.1213115,25.8491709 L20.4590164,0.462579122 C20.5114757,0.292154467 20.613114,0.164337893 20.7639344,0.079125566 C20.9147548,-0.00608676144 21.0688517,-0.0224735002 21.2262295,0.0299648538 L22.4459016,0.364257697 C22.6163943,0.416696054 22.7442619,0.518293841 22.8295082,0.669054113 C22.9147545,0.819814385 22.9311478,0.980404438 22.8786885,1.15082909 Z M35.8032787,13.9522786 L26.6360656,23.1158353 C26.5049174,23.2469312 26.3540993,23.3124782 26.1836066,23.3124782 C26.0131138,23.3124782 25.8622958,23.2469312 25.7311475,23.1158353 L24.747541,22.1326211 C24.6163928,22.0015252 24.5508197,21.8507672 24.5508197,21.6803425 C24.5508197,21.5099179 24.6163928,21.3591599 24.747541,21.228064 L32.4786885,13.5 L24.747541,5.77193605 C24.6163928,5.64084017 24.5508197,5.49008214 24.5508197,5.31965749 C24.5508197,5.14923284 24.6163928,4.99847482 24.747541,4.86737894 L25.7311475,3.88416469 C25.8622958,3.75306882 26.0131138,3.68752185 26.1836066,3.68752185 C26.3540993,3.68752185 26.5049174,3.75306882 26.6360656,3.88416469 L35.8032787,13.0477215 C35.9344269,13.1788173 36,13.3295754 36,13.5 C36,13.6704247 35.9344269,13.8211827 35.8032787,13.9522786 Z" id="path-1"></path>
            </g>
        </g>
    </g>
</svg>