<?xml version="1.0" encoding="UTF-8" standalone="no"?>
<svg width="24px" height="23px" viewBox="0 0 24 23" version="1.1" xmlns="http://www.w3.org/2000/svg" xmlns:xlink="http://www.w3.org/1999/xlink">
    <!-- Generator: Sketch 3.6.1 (26313) - http://www.bohemiancoding.com/sketch -->
    <title>Fill 600</title>
    <desc>Created with Sketch.</desc>
    <defs></defs>
    <g id="Page-1" stroke="none" stroke-width="1" fill="none" fill-rule="evenodd" fill-opacity="0.29">
        <path d="M20.521,6 L14.45,6 C14.217,7.14 13.207,8 12,8 C10.793,8 9.784,7.14 9.551,6 L3.521,6 C3.245,6 3.021,5.776 3.021,5.5 C3.021,5.224 3.245,5 3.521,5 L9.551,5 C9.784,3.86 10.793,3 12,3 C13.207,3 14.217,3.86 14.45,5 L20.521,5 C20.797,5 21.021,5.224 21.021,5.5 C21.021,5.776 20.797,6 20.521,6 M20.521,12 L10.45,12 C10.217,13.14 9.207,14 8,14 C6.793,14 5.784,13.14 5.551,12 L3.521,12 C3.245,12 3.021,11.776 3.021,11.5 C3.021,11.224 3.245,11 3.521,11 L5.551,11 C5.784,9.86 6.793,9 8,9 C9.207,9 10.217,9.86 10.45,11 L20.521,11 C20.797,11 21.021,11.224 21.021,11.5 C21.021,11.776 20.797,12 20.521,12 M20.521,18 L12.45,18 C12.217,19.14 11.207,20 10,20 C8.793,20 7.784,19.14 7.551,18 L3.521,18 C3.245,18 3.021,17.776 3.021,17.5 C3.021,17.224 3.245,17 3.521,17 L7.551,17 C7.784,15.86 8.793,15 10,15 C11.207,15 12.217,15.86 12.45,17 L20.521,17 C20.797,17 21.021,17.224 21.021,17.5 C21.021,17.776 20.797,18 20.521,18 M22.5,0 L1.5,0 C0.673,0 0,0.673 0,1.5 L0,21.5 C0,22.327 0.673,23 1.5,23 L22.5,23 C23.328,23 24,22.327 24,21.5 L24,1.5 C24,0.673 23.328,0 22.5,0" id="Fill-600" fill="#000000"></path>
    </g>
</svg>