<?xml version="1.0" encoding="UTF-8"?>
<svg viewBox="-5 -4 20 20" version="1.1" xmlns="http://www.w3.org/2000/svg" xmlns:xlink="http://www.w3.org/1999/xlink">
    <g stroke="none" stroke-width="1" fill="none" fill-rule="evenodd">
        <path d="M3.29279509,12 C2.49565263,11.7751649 1.92846362,11.4174782 1.59121104,10.926929 C1.25395846,10.4363798 1.0853347,9.84159777 1.0853347,9.14256515 L1.0853347,7.89780276 C1.0853347,7.49309966 0.996423986,7.17833531 0.818599898,6.95350026 C0.64077581,6.7286652 0.367911906,6.61624936 0,6.61624936 L0,5.38375064 C0.367911906,5.38375064 0.64077581,5.27235676 0.818599898,5.04956566 C0.996423986,4.82677456 1.0853347,4.50894432 1.0853347,4.09606541 L1.0853347,2.85130301 C1.0853347,2.15227039 1.25395846,1.55851036 1.59121104,1.07000511 C1.92846362,0.581499857 2.49565263,0.224835054 3.29279509,0 L3.63617782,0.962698007 C3.28870547,1.08942322 3.04343454,1.31527686 2.90035769,1.64026571 C2.75728084,1.96525456 2.68574348,2.36892963 2.68574348,2.85130301 L2.68574348,4.09606541 C2.68574348,4.52120805 2.59478885,4.8983121 2.41287685,5.22738886 C2.23096485,5.55646562 1.95605703,5.81297813 1.58814512,5.99693408 C1.95605703,6.18906586 2.23096485,6.44966621 2.41287685,6.77874297 C2.59478885,7.10781973 2.68574348,7.48083593 2.68574348,7.89780276 L2.68574348,9.14256515 C2.68574348,9.62493854 2.75728084,10.0286136 2.90035769,10.3536025 C3.04343454,10.6785913 3.28870547,10.9044449 3.63617782,11.0311702 L3.29279509,12 Z M7.18650996,11.0311702 C7.53398232,10.9044449 7.77925324,10.6785913 7.9223301,10.3536025 C8.06540695,10.0286136 8.1369443,9.62493854 8.1369443,9.14256515 L8.1369443,7.89780276 C8.1369443,7.47266011 8.23096482,7.09657803 8.41900869,6.76954522 C8.60705255,6.44251242 8.89320196,6.18702187 9.27746551,6.00306592 C8.89320196,5.81910996 8.60705255,5.56259746 8.41900869,5.23352069 C8.23096482,4.90444393 8.1369443,4.52529596 8.1369443,4.09606541 L8.1369443,2.85130301 C8.1369443,2.36892963 8.06540695,1.96525456 7.9223301,1.64026571 C7.77925324,1.31527686 7.53398232,1.08942322 7.18650996,0.962698007 L7.52989269,0 C8.32294725,0.224835054 8.8891143,0.581499857 9.22841083,1.07000511 C9.56770737,1.55851036 9.73735309,2.15227039 9.73735309,2.85130301 L9.73735309,4.09606541 C9.73735309,4.50894432 9.82524184,4.82677456 10.001022,5.04956566 C10.1768021,5.27235676 10.4527319,5.38375064 10.8288196,5.38375064 L10.8288196,6.61624936 C10.4527319,6.61624936 10.1768021,6.7286652 10.001022,6.95350026 C9.82524184,7.17833531 9.73735309,7.49309966 9.73735309,7.89780276 L9.73735309,9.14256515 C9.73735309,9.84159777 9.56770737,10.4363798 9.22841083,10.926929 C8.8891143,11.4174782 8.32294725,11.7751649 7.52989269,12 L7.18650996,11.0311702 Z" fill="#FFFFFF"></path>
    </g>
</svg>
