<?xml version="1.0" encoding="UTF-8"?>
<svg width="21px" height="21px" viewBox="0 0 21 21" version="1.1" xmlns="http://www.w3.org/2000/svg" xmlns:xlink="http://www.w3.org/1999/xlink">
    <g stroke="none" stroke-width="1" fill="none" fill-rule="evenodd">
        <path d="M20.3708387,0.565848214 C20.5352741,0.962427578 20.4675664,1.30096586 20.1677137,1.58147321 L13.0148119,8.734375 L13.0148119,19.5 C13.0148119,19.906252 12.8261977,20.1915914 12.4489637,20.3560268 C12.323219,20.4043901 12.2023125,20.4285714 12.0862405,20.4285714 C11.8250785,20.4285714 11.6074467,20.3366825 11.4333387,20.1529018 L7.719053,16.4386161 C7.53527232,16.2548354 7.44338336,16.0372036 7.44338336,15.7857143 L7.44338336,8.734375 L0.290481569,1.58147321 C-0.00937112023,1.30096586 -0.0770787765,0.962427578 0.0873565695,0.565848214 C0.251791915,0.188614185 0.537131324,0 0.943383355,0 L19.5148119,0 C19.921064,0 20.2064034,0.188614185 20.3708387,0.565848214 Z" fill="#818D99"></path>
    </g>
</svg>
