<?xml version="1.0" encoding="UTF-8"?>
<svg viewBox="-5 -5 20 20" version="1.1" xmlns="http://www.w3.org/2000/svg" xmlns:xlink="http://www.w3.org/1999/xlink">
    <g stroke="none" stroke-width="1" fill="none" fill-rule="evenodd">
        <path d="M7.61538462,4.65384615 C7.61538462,3.83853759 7.32562389,3.1411287 6.74609375,2.56159856 C6.16656361,1.98206842 5.46915472,1.69230769 4.65384615,1.69230769 C3.83853759,1.69230769 3.1411287,1.98206842 2.56159856,2.56159856 C1.98206842,3.1411287 1.69230769,3.83853759 1.69230769,4.65384615 C1.69230769,5.46915472 1.98206842,6.16656361 2.56159856,6.74609375 C3.1411287,7.32562389 3.83853759,7.61538462 4.65384615,7.61538462 C5.46915472,7.61538462 6.16656361,7.32562389 6.74609375,6.74609375 C7.32562389,6.16656361 7.61538462,5.46915472 7.61538462,4.65384615 Z M11,10.1538462 C11,10.383014 10.9162669,10.5813293 10.7487981,10.7487981 C10.5813293,10.9162669 10.383014,11 10.1538462,11 C9.91586419,11 9.71754887,10.9162669 9.55889423,10.7487981 L7.29146635,8.48798077 C6.50260022,9.03445786 5.62340228,9.30769231 4.65384615,9.30769231 C4.02363467,9.30769231 3.42097643,9.18539786 2.84585337,8.94080529 C2.2707303,8.69621272 1.77494199,8.36568718 1.35847356,7.94921875 C0.942005129,7.53275032 0.611479588,7.03696201 0.366887019,6.46183894 C0.12229445,5.88671587 0,5.28405764 0,4.65384615 C0,4.02363467 0.12229445,3.42097643 0.366887019,2.84585337 C0.611479588,2.2707303 0.942005129,1.77494199 1.35847356,1.35847356 C1.77494199,0.942005129 2.2707303,0.611479588 2.84585337,0.366887019 C3.42097643,0.12229445 4.02363467,0 4.65384615,0 C5.28405764,0 5.88671587,0.12229445 6.46183894,0.366887019 C7.03696201,0.611479588 7.53275032,0.942005129 7.94921875,1.35847356 C8.36568718,1.77494199 8.69621272,2.2707303 8.94080529,2.84585337 C9.18539786,3.42097643 9.30769231,4.02363467 9.30769231,4.65384615 C9.30769231,5.62340228 9.03445786,6.50260022 8.48798077,7.29146635 L10.7554087,9.55889423 C10.9184704,9.72195594 11,9.92027127 11,10.1538462 Z" fill="#FFFFFF"></path>
    </g>
</svg>
