<?xml version="1.0" encoding="UTF-8"?>
<svg viewBox="-6 -4 20 20" version="1.1" xmlns="http://www.w3.org/2000/svg" xmlns:xlink="http://www.w3.org/1999/xlink">
    <g stroke="none" stroke-width="1" fill="none" fill-rule="evenodd">
        <g  fill="#FFFFFF">
            <path d="M9.20273684,9.27429412 C8.65452632,9.27429412 8.21052632,8.79158824 8.21052632,8.19564706 C8.21052632,7.60035294 8.65452632,7.11764706 9.20273684,7.11764706 C9.75094737,7.11764706 10.1949474,7.60035294 10.1949474,8.19564706 C10.1949474,8.79158824 9.75094737,9.27429412 9.20273684,9.27429412 Z M2.25536842,9.27429412 C1.70715789,9.27429412 1.26315789,8.79158824 1.26315789,8.19564706 C1.26315789,7.60035294 1.70715789,7.11764706 2.25536842,7.11764706 C2.80357895,7.11764706 3.24757895,7.60035294 3.24757895,8.19564706 C3.24757895,8.79158824 2.80357895,9.27429412 2.25536842,9.27429412 Z M4.77031579,4.51129412 C5.06210526,4.65688235 5.38484211,4.74488235 5.72905263,4.74488235 C6.07831579,4.74488235 6.40547368,4.65364706 6.70105263,4.50417647 L7.78926316,6.56829412 C7.38126316,6.91705882 7.08821053,7.53047059 6.98842105,8.17752941 L4.46968421,8.17752941 C4.36484211,7.53047059 4.04652632,6.86205882 3.60315789,6.51135294 L4.77031579,4.51129412 Z M5.72905263,1.29411765 C6.27726316,1.29411765 6.72126316,1.77682353 6.72126316,2.37211765 C6.72126316,2.96805882 6.27726316,3.45076471 5.72905263,3.45076471 C5.18084211,3.45076471 4.73684211,2.96805882 4.73684211,2.37211765 C4.73684211,1.77682353 5.18084211,1.29411765 5.72905263,1.29411765 Z M9.20273684,5.82352941 C9.12,5.82352941 9.04231579,5.83970588 8.96210526,5.84876471 L7.64715789,3.60411765 C7.85747368,3.24435294 7.98442105,2.82505882 7.98442105,2.37211765 C7.98442105,1.06441176 6.97263158,0 5.72905263,0 C4.48547368,0 3.47368421,1.06441176 3.47368421,2.37211765 C3.47368421,2.83605882 3.60568421,3.26570588 3.82484211,3.63129412 L2.38926316,5.83776471 C2.34378947,5.83452941 2.30147368,5.82352941 2.25536842,5.82352941 C1.01178947,5.82352941 0,6.88794118 0,8.19564706 C0,9.504 1.01178947,10.7748235 2.25536842,10.7748235 C3.20905263,10.7748235 4.02189474,10.1187059 4.35094737,9.47164706 L7.10715789,9.47164706 C7.43621053,10.1187059 8.24905263,10.7748235 9.20273684,10.7748235 C10.4463158,10.7748235 11.4581053,9.60752941 11.4581053,8.29917647 C11.4581053,6.99082353 10.4463158,5.82352941 9.20273684,5.82352941 Z" ></path>
        </g>
    </g>
</svg>
