<?xml version="1.0" encoding="UTF-8"?>
<svg viewBox="-6 -4 20 20" version="1.1" xmlns="http://www.w3.org/2000/svg" xmlns:xlink="http://www.w3.org/1999/xlink">
    <g stroke="none" stroke-width="1" fill="none" fill-rule="evenodd">
        <path d="M5.57142857,0 C6.58222232,1.77635684e-15 7.51441165,0.24906745 8.36802455,0.747209821 C9.22163745,1.24535219 9.89750495,1.92121969 10.3956473,2.77483259 C10.8937897,3.62844549 11.1428571,4.56063483 11.1428571,5.57142857 C11.1428571,6.58222232 10.8937897,7.51441165 10.3956473,8.36802455 C9.89750495,9.22163745 9.22163745,9.89750495 8.36802455,10.3956473 C7.51441165,10.8937897 6.58222232,11.1428571 5.57142857,11.1428571 C4.56063483,11.1428571 3.62844549,10.8937897 2.77483259,10.3956473 C1.92121969,9.89750495 1.24535219,9.22163745 0.747209821,8.36802455 C0.24906745,7.51441165 0,6.58222232 0,5.57142857 C0,4.56063483 0.24906745,3.62844549 0.747209821,2.77483259 C1.24535219,1.92121969 1.92121969,1.24535219 2.77483259,0.747209821 C3.62844549,0.24906745 4.56063483,1.77635684e-15 5.57142857,0 Z M5.57142857,9.51785714 C6.28720596,9.51785714 6.94735561,9.34133361 7.55189732,8.98828125 C8.15643903,8.63522889 8.63522889,8.15643903 8.98828125,7.55189732 C9.34133361,6.94735561 9.51785714,6.28720596 9.51785714,5.57142857 C9.51785714,4.85565118 9.34133361,4.19550153 8.98828125,3.59095982 C8.63522889,2.98641811 8.15643903,2.50762825 7.55189732,2.15457589 C6.94735561,1.80152353 6.28720596,1.625 5.57142857,1.625 C4.85565118,1.625 4.19550153,1.80152353 3.59095982,2.15457589 C2.98641811,2.50762825 2.50762825,2.98641811 2.15457589,3.59095982 C1.80152353,4.19550153 1.625,4.85565118 1.625,5.57142857 C1.625,6.28720596 1.80152353,6.94735561 2.15457589,7.55189732 C2.50762825,8.15643903 2.98641811,8.63522889 3.59095982,8.98828125 C4.19550153,9.34133361 4.85565118,9.51785714 5.57142857,9.51785714 Z M3.48214286,7.89285714 C3.41443419,7.89285714 3.35881718,7.87109397 3.31529018,7.82756696 C3.27176318,7.78403996 3.25,7.72842296 3.25,7.66071429 L3.25,3.48214286 C3.25,3.41443419 3.27176318,3.35881718 3.31529018,3.31529018 C3.35881718,3.27176318 3.41443419,3.25 3.48214286,3.25 L7.66071429,3.25 C7.72842296,3.25 7.78403996,3.27176318 7.82756696,3.31529018 C7.87109397,3.35881718 7.89285714,3.41443419 7.89285714,3.48214286 L7.89285714,7.66071429 C7.89285714,7.72842296 7.87109397,7.78403996 7.82756696,7.82756696 C7.78403996,7.87109397 7.72842296,7.89285714 7.66071429,7.89285714 L3.48214286,7.89285714 Z" fill="#FFFFFF"></path>
    </g>
</svg>
