<?xml version="1.0" encoding="UTF-8"?>
<svg viewBox="-8 -3 20 20" version="1.1" xmlns="http://www.w3.org/2000/svg" xmlns:xlink="http://www.w3.org/1999/xlink">
    <g stroke="none" stroke-width="1" fill="none" fill-rule="evenodd">
        <path d="M6.91274053,3.421875 C7.00646386,3.52604219 7.02468757,3.64062437 6.9674122,3.765625 L2.74988329,12.8046875 C2.68219421,12.9348965 2.57285196,13 2.42185326,13 C2.40102585,13 2.36457844,12.9947917 2.31250992,12.984375 C2.22399344,12.9583332 2.15760707,12.9088545 2.11334883,12.8359375 C2.06909059,12.7630205 2.05737535,12.6848962 2.07820276,12.6015625 L3.61681979,6.2890625 L0.445862863,7.078125 C0.425035455,7.08333336 0.393794813,7.0859375 0.352139998,7.0859375 C0.258416665,7.0859375 0.177711671,7.05729195 0.110022597,7 C0.016299264,6.92187461 -0.0175447654,6.82031312 0.00848949391,6.6953125 L1.57834748,0.25 C1.59917489,0.177082969 1.64082908,0.117187734 1.7033113,0.0703125 C1.76579352,0.0234372656 1.83868835,0 1.92199798,0 L4.48375629,0 C4.58268647,0 4.66599485,0.0325517578 4.73368392,0.09765625 C4.801373,0.162760742 4.83521703,0.239582891 4.83521703,0.328125 C4.83521703,0.369791875 4.82220009,0.416666406 4.79616583,0.46875 L3.46061501,4.0859375 L6.55346955,3.3203125 C6.59512436,3.30989578 6.62636501,3.3046875 6.64719241,3.3046875 C6.7461226,3.3046875 6.83463775,3.34374961 6.91274053,3.421875 Z" fill="#FFFFFF"></path>
    </g>
</svg>
