<?xml version="1.0" encoding="UTF-8"?>
<svg width="14px" height="14px" viewBox="0 0 14 14" version="1.1" xmlns="http://www.w3.org/2000/svg" xmlns:xlink="http://www.w3.org/1999/xlink">
    <defs>
        <path d="M8,3.71428571 L8,7.71428571 C8,7.79761946 7.97321455,7.86607116 7.91964286,7.91964286 C7.86607116,7.97321455 7.79761946,8 7.71428571,8 L4.85714286,8 C4.77380911,8 4.70535741,7.97321455 4.65178571,7.91964286 C4.59821402,7.86607116 4.57142857,7.79761946 4.57142857,7.71428571 L4.57142857,7.14285714 C4.57142857,7.05952339 4.59821402,6.9910717 4.65178571,6.9375 C4.70535741,6.8839283 4.77380911,6.85714286 4.85714286,6.85714286 L6.85714286,6.85714286 L6.85714286,3.71428571 C6.85714286,3.63095196 6.8839283,3.56250027 6.9375,3.50892857 C6.9910717,3.45535688 7.05952339,3.42857143 7.14285714,3.42857143 L7.71428571,3.42857143 C7.79761946,3.42857143 7.86607116,3.45535688 7.91964286,3.50892857 C7.97321455,3.56250027 8,3.63095196 8,3.71428571 Z M11.7142857,6.85714286 C11.7142857,5.97618607 11.497026,5.1636942 11.0625,4.41964286 C10.627974,3.67559152 10.0386942,3.0863117 9.29464286,2.65178571 C8.55059152,2.21725973 7.73809964,2 6.85714286,2 C5.97618607,2 5.1636942,2.21725973 4.41964286,2.65178571 C3.67559152,3.0863117 3.0863117,3.67559152 2.65178571,4.41964286 C2.21725973,5.1636942 2,5.97618607 2,6.85714286 C2,7.73809964 2.21725973,8.55059152 2.65178571,9.29464286 C3.0863117,10.0386942 3.67559152,10.627974 4.41964286,11.0625 C5.1636942,11.497026 5.97618607,11.7142857 6.85714286,11.7142857 C7.73809964,11.7142857 8.55059152,11.497026 9.29464286,11.0625 C10.0386942,10.627974 10.627974,10.0386942 11.0625,9.29464286 C11.497026,8.55059152 11.7142857,7.73809964 11.7142857,6.85714286 Z M13.7142857,6.85714286 C13.7142857,8.1011967 13.4077412,9.24850665 12.7946429,10.2991071 C12.1815446,11.3497076 11.3497076,12.1815446 10.2991071,12.7946429 C9.24850665,13.4077412 8.1011967,13.7142857 6.85714286,13.7142857 C5.61308902,13.7142857 4.46577906,13.4077412 3.41517857,12.7946429 C2.36457808,12.1815446 1.53274116,11.3497076 0.919642857,10.2991071 C0.306544554,9.24850665 0,8.1011967 0,6.85714286 C0,5.61308902 0.306544554,4.46577906 0.919642857,3.41517857 C1.53274116,2.36457808 2.36457808,1.53274116 3.41517857,0.919642857 C4.46577906,0.306544554 5.61308902,0 6.85714286,0 C8.1011967,0 9.24850665,0.306544554 10.2991071,0.919642857 C11.3497076,1.53274116 12.1815446,2.36457808 12.7946429,3.41517857 C13.4077412,4.46577906 13.7142857,5.61308902 13.7142857,6.85714286 Z" id="path-1"></path>
    </defs>
    <g id="Symbols" stroke="none" stroke-width="1" fill="none" fill-rule="evenodd">
        <g id="Icon/Clock" transform="translate(-5.000000, -5.000000)">
            <g id="Color/RoyalPurple-#654796" transform="translate(5.000000, 5.000000)">
                <mask id="mask-2" fill="white">
                    <use xlink:href="#path-1"></use>
                </mask>
                <use id="Icon_Clock" fill="#5C6773" xlink:href="#path-1"></use>
            </g>
        </g>
    </g>
</svg>