<?xml version="1.0" encoding="UTF-8"?>
<svg width="28px" height="30px" viewBox="0 0 28 30" version="1.1" xmlns="http://www.w3.org/2000/svg" xmlns:xlink="http://www.w3.org/1999/xlink">
    <g stroke="none" stroke-width="1" fill="none" fill-rule="evenodd">
        <g fill="#818D99">
            <path d="M16.839192,19.283844 C16.3672226,19.7351398 15.9626566,20.255107 15.6254898,20.84375 C15.0237199,21.8943505 14.7228395,23.0416604 14.7228395,24.2857143 C14.7228395,25.5297681 15.0237199,26.6770781 15.6254898,27.7276786 C15.6784545,27.8201471 15.7330824,27.9109209 15.7893734,28 L0,28 L0,24.1326336 C0,22.5618874 0.850472222,21.1195011 2.21991667,20.3674065 L6.43308333,18.0540738 C6.834,17.8334848 7.08333333,17.4108475 7.08333333,16.9506531 L7.08333333,15.3780052 C6.76741667,14.9610729 5.86169444,13.6613089 5.42913889,11.937006 C4.98336111,11.5771225 4.72222222,11.0375351 4.72222222,10.4589642 L4.72222222,8.55733434 C4.72222222,8.09951695 4.89222222,7.65596179 5.19444444,7.30938975 L5.19444444,4.78069745 C5.168,4.51922334 5.06411111,2.9622639 6.18233333,1.67818834 C7.15227778,0.564308659 8.72619444,0 10.8611111,0 C12.9960278,0 14.5699444,0.564308659 15.5398889,1.67818834 C16.6581111,2.9622639 16.5542222,4.51922334 16.5277778,4.78069745 L16.5277778,7.30938975 C16.83,7.65596179 17,8.09951695 17,8.55733434 L17,10.4589642 C17,11.2077309 16.5674444,11.8709244 15.9011389,12.178513 C15.5601944,13.1773441 15.09175,14.1034378 14.5061944,14.9354009 C14.3886111,15.1032197 14.2748056,15.2543993 14.1666667,15.3875134 L14.1666667,16.994866 C14.1666667,17.4740767 14.4311111,17.9047959 14.8565833,18.1187292 L16.839192,19.283844 Z"></path>
            <path d="M27.8599997,23.08854 C27.8599997,22.957089 27.7666002,22.834286 27.6368788,22.8100713 L26.2237798,22.5938689 C26.1459469,22.3396149 26.0369809,22.0853608 25.9072594,21.8380253 C26.168432,21.4748052 26.4538192,21.1357998 26.7167213,20.7794982 C26.7565025,20.72588 26.7789876,20.6722618 26.7789876,20.6013475 C26.7789876,20.5408108 26.763421,20.4785445 26.7253694,20.4318448 C26.400201,19.9769549 25.8605597,19.4978503 25.4506399,19.1190637 C25.3970217,19.0740936 25.327837,19.0429604 25.2586522,19.0429604 C25.1877378,19.0429604 25.118553,19.0654455 25.0718533,19.1121452 L23.9752747,19.9389033 C23.7521538,19.8230188 23.5203848,19.7296193 23.2816973,19.6517864 L23.0654949,18.231769 C23.0499283,18.1003179 22.9253957,18 22.7870262,18 L21.0729735,18 C20.9346039,18 20.8256379,18.0933994 20.7945047,18.2162024 C20.6717018,18.6797404 20.6250021,19.18133 20.5713839,19.6517864 C20.3309668,19.7296193 20.0922793,19.8299372 19.8674288,19.9458217 L18.8019833,19.1190637 C18.7414466,19.0740936 18.6705322,19.0429604 18.6013475,19.0429604 C18.3401749,19.0429604 17.2972145,20.1689426 17.1121452,20.4249263 C17.072364,20.4785445 17.0429604,20.5321627 17.0429604,20.6013475 C17.0429604,20.6722618 17.072364,20.7327985 17.1190637,20.7881463 C17.4044509,21.1357998 17.6829196,21.4817237 17.9458217,21.8535918 C17.8212891,22.0853608 17.7209712,22.3171298 17.644868,22.5627358 L16.2075543,22.7789382 C16.0916698,22.8031528 16,22.9415224 16,23.0574069 L16,24.7714596 C16,24.9029107 16.0916698,25.0274433 16.2231209,25.0499283 L17.6362199,25.2574827 C17.7140527,25.5203848 17.8212891,25.7763684 17.9527402,26.0219744 C17.6915677,26.3851944 17.4044509,26.7259295 17.1432784,27.0805014 C17.1034971,27.1341196 17.0810121,27.1894674 17.0810121,27.2586522 C17.0810121,27.3191889 17.0965786,27.3814552 17.1346303,27.4350734 C17.4597987,27.8830448 17.9994399,28.3621493 18.4093597,28.7322879 C18.4629779,28.7876357 18.5321627,28.8187688 18.6013475,28.8187688 C18.6705322,28.8187688 18.7414466,28.7945542 18.7950648,28.7478544 L19.8829954,27.922826 C20.1078459,28.0387105 20.3396149,28.1303803 20.5783023,28.2082132 L20.7945047,29.6282307 C20.8100713,29.7596817 20.9346039,29.8599997 21.0729735,29.8599997 L22.7870262,29.8599997 C22.9253957,29.8599997 23.0343618,29.7683298 23.0654949,29.6437972 C23.1882979,29.1802593 23.2349976,28.6786697 23.2886158,28.2082132 C23.5290329,28.1303803 23.7677204,28.0300624 23.9908412,27.9141779 L25.0562867,28.7478544 C25.118553,28.7876357 25.1877378,28.8187688 25.2586522,28.8187688 C25.5198247,28.8187688 26.5627852,27.6824089 26.7478544,27.4350734 C26.7945542,27.3814552 26.8170392,27.327837 26.8170392,27.2586522 C26.8170392,27.1894674 26.7859061,27.118553 26.740936,27.0649348 C26.4538192,26.7172814 26.1770801,26.378276 25.9141779,25.9994893 C26.0369809,25.7763684 26.1303803,25.5445995 26.2151317,25.2972639 L27.6437972,25.0810615 C27.7666002,25.0568468 27.8599997,24.9184773 27.8599997,24.8025928 L27.8599997,23.08854 Z M23.9060899,23.9308646 C23.9060899,25.0187952 23.0187952,25.9060899 21.929135,25.9060899 C20.8412045,25.9060899 19.9539098,25.0187952 19.9539098,23.9308646 C19.9539098,22.8412045 20.8412045,21.9539098 21.929135,21.9539098 C23.0187952,21.9539098 23.9060899,22.8412045 23.9060899,23.9308646 Z"></path>
        </g>
    </g>
</svg>
