<?xml version="1.0" encoding="UTF-8"?>
<svg width="15px" height="11px" viewBox="0 0 15 11" version="1.1" xmlns="http://www.w3.org/2000/svg" xmlns:xlink="http://www.w3.org/1999/xlink">
    <!-- Generator: Sketch 51.1 (57501) - http://www.bohemiancoding.com/sketch -->
    <title>Slice 1</title>
    <desc>Created with Sketch.</desc>
    <defs></defs>
    <g id="Page-1" stroke="none" stroke-width="1" fill="none" fill-rule="evenodd">
        <g id="Icon_Code" fill="#FFFFFF" fill-rule="nonzero">
            <path d="M4.8203125,8.9296875 L4.4296875,9.3203125 C4.37760391,9.37239609 4.31770867,9.3984375 4.25,9.3984375 C4.18229133,9.3984375 4.12239609,9.37239609 4.0703125,9.3203125 L0.4296875,5.6796875 C0.377603906,5.62760391 0.3515625,5.56770867 0.3515625,5.5 C0.3515625,5.43229133 0.377603906,5.37239609 0.4296875,5.3203125 L4.0703125,1.6796875 C4.12239609,1.62760391 4.18229133,1.6015625 4.25,1.6015625 C4.31770867,1.6015625 4.37760391,1.62760391 4.4296875,1.6796875 L4.8203125,2.0703125 C4.87239609,2.12239609 4.8984375,2.18229133 4.8984375,2.25 C4.8984375,2.31770867 4.87239609,2.37760391 4.8203125,2.4296875 L1.75,5.5 L4.8203125,8.5703125 C4.87239609,8.62239609 4.8984375,8.68229133 4.8984375,8.75 C4.8984375,8.81770867 4.87239609,8.87760391 4.8203125,8.9296875 Z M9.4375,0.59375 L6.5234375,10.6796875 C6.50260406,10.7473962 6.46223988,10.7981769 6.40234375,10.8320313 C6.34244762,10.8658856 6.28125031,10.8723959 6.21875,10.8515625 L5.734375,10.71875 C5.66666633,10.6979166 5.61588559,10.6575524 5.58203125,10.5976563 C5.54817691,10.5377601 5.54166656,10.4739587 5.5625,10.40625 L8.4765625,0.3203125 C8.49739594,0.252603828 8.53776012,0.201823086 8.59765625,0.16796875 C8.65755238,0.134114414 8.71874969,0.127604063 8.78125,0.1484375 L9.265625,0.28125 C9.33333367,0.302083438 9.38411441,0.342447617 9.41796875,0.40234375 C9.45182309,0.462239883 9.45833344,0.526041328 9.4375,0.59375 Z M14.5703125,5.6796875 L10.9296875,9.3203125 C10.8776039,9.37239609 10.8177087,9.3984375 10.75,9.3984375 C10.6822913,9.3984375 10.6223961,9.37239609 10.5703125,9.3203125 L10.1796875,8.9296875 C10.1276039,8.87760391 10.1015625,8.81770867 10.1015625,8.75 C10.1015625,8.68229133 10.1276039,8.62239609 10.1796875,8.5703125 L13.25,5.5 L10.1796875,2.4296875 C10.1276039,2.37760391 10.1015625,2.31770867 10.1015625,2.25 C10.1015625,2.18229133 10.1276039,2.12239609 10.1796875,2.0703125 L10.5703125,1.6796875 C10.6223961,1.62760391 10.6822913,1.6015625 10.75,1.6015625 C10.8177087,1.6015625 10.8776039,1.62760391 10.9296875,1.6796875 L14.5703125,5.3203125 C14.6223961,5.37239609 14.6484375,5.43229133 14.6484375,5.5 C14.6484375,5.56770867 14.6223961,5.62760391 14.5703125,5.6796875 Z" id="path-1"></path>
        </g>
    </g>
</svg>