<?xml version="1.0" encoding="UTF-8"?>
<svg width="14px" height="13px" viewBox="0 0 14 13" version="1.1" xmlns="http://www.w3.org/2000/svg" xmlns:xlink="http://www.w3.org/1999/xlink">
    <g stroke="none" stroke-width="1" fill="none" fill-rule="evenodd">
        <g transform="translate(-1.000000, 0.000000)" fill="#D9534F">
            <path d="M9,10.7421875 L9,9.2578125 C9,9.18489547 8.97526066,9.12369816 8.92578125,9.07421875 C8.87630184,9.02473934 8.81770867,9 8.75,9 L7.25,9 C7.18229133,9 7.12369816,9.02473934 7.07421875,9.07421875 C7.02473934,9.12369816 7,9.18489547 7,9.2578125 L7,10.7421875 C7,10.8151045 7.02473934,10.8763018 7.07421875,10.9257812 C7.12369816,10.9752607 7.18229133,11 7.25,11 L8.75,11 C8.81770867,11 8.87630184,10.9752607 8.92578125,10.9257812 C8.97526066,10.8763018 9,10.8151045 9,10.7421875 Z M8.984375,7.8203125 L9.125,4.234375 C9.125,4.17187469 9.09895859,4.12239602 9.046875,4.0859375 C8.97916633,4.02864555 8.91666695,4 8.859375,4 L7.140625,4 C7.08333305,4 7.02083367,4.02864555 6.953125,4.0859375 C6.90104141,4.12239602 6.875,4.17708297 6.875,4.25 L7.0078125,7.8203125 C7.0078125,7.87239609 7.03385391,7.91536441 7.0859375,7.94921875 C7.13802109,7.98307309 7.20052047,8 7.2734375,8 L8.71875,8 C8.79166703,8 8.85286434,7.98307309 8.90234375,7.94921875 C8.95182316,7.91536441 8.97916664,7.87239609 8.984375,7.8203125 Z M8.875,0.5234375 L14.875,11.5234375 C15.0572926,11.8515641 15.0520843,12.1796859 14.859375,12.5078125 C14.7708329,12.6588549 14.6497404,12.7786454 14.4960937,12.8671875 C14.3424471,12.9557296 14.1770842,13 14,13 L2,13 C1.82291578,13 1.65755285,12.9557296 1.50390625,12.8671875 C1.35025965,12.7786454 1.22916711,12.6588549 1.140625,12.5078125 C0.947915703,12.1796859 0.942707422,11.8515641 1.125,11.5234375 L7.125,0.5234375 C7.21354211,0.361978359 7.33593672,0.234375469 7.4921875,0.140625 C7.64843828,0.0468745313 7.81770742,0 8,0 C8.18229258,0 8.35156172,0.0468745313 8.5078125,0.140625 C8.66406328,0.234375469 8.78645789,0.361978359 8.875,0.5234375 Z"></path>
        </g>
    </g>
</svg>
