<?xml version="1.0" encoding="UTF-8"?>
<svg width="28px" height="30px" viewBox="0 0 28 30" version="1.1" xmlns="http://www.w3.org/2000/svg" xmlns:xlink="http://www.w3.org/1999/xlink">
    <g stroke="none" stroke-width="1" fill="none" fill-rule="evenodd">
        <g fill="#818D99">
            <path d="M16.839192,19.283844 C16.3672226,19.7351398 15.9626566,20.255107 15.6254898,20.84375 C15.0237199,21.8943505 14.7228395,23.0416604 14.7228395,24.2857143 C14.7228395,25.5297681 15.0237199,26.6770781 15.6254898,27.7276786 C15.6784545,27.8201471 15.7330824,27.9109209 15.7893734,28 L0,28 L0,24.1326336 C0,22.5618874 0.850472222,21.1195011 2.21991667,20.3674065 L6.43308333,18.0540738 C6.834,17.8334848 7.08333333,17.4108475 7.08333333,16.9506531 L7.08333333,15.3780052 C6.76741667,14.9610729 5.86169444,13.6613089 5.42913889,11.937006 C4.98336111,11.5771225 4.72222222,11.0375351 4.72222222,10.4589642 L4.72222222,8.55733434 C4.72222222,8.09951695 4.89222222,7.65596179 5.19444444,7.30938975 L5.19444444,4.78069745 C5.168,4.51922334 5.06411111,2.9622639 6.18233333,1.67818834 C7.15227778,0.564308659 8.72619444,0 10.8611111,0 C12.9960278,0 14.5699444,0.564308659 15.5398889,1.67818834 C16.6581111,2.9622639 16.5542222,4.51922334 16.5277778,4.78069745 L16.5277778,7.30938975 C16.83,7.65596179 17,8.09951695 17,8.55733434 L17,10.4589642 C17,11.2077309 16.5674444,11.8709244 15.9011389,12.178513 C15.5601944,13.1773441 15.09175,14.1034378 14.5061944,14.9354009 C14.3886111,15.1032197 14.2748056,15.2543993 14.1666667,15.3875134 L14.1666667,16.994866 C14.1666667,17.4740767 14.4311111,17.9047959 14.8565833,18.1187292 L16.839192,19.283844 Z"></path>
            <path d="M26.03125,22.734375 C26.03125,22.5885409 25.9843755,22.4687505 25.890625,22.375 L25.1796875,21.671875 C25.0807287,21.5729162 24.9635423,21.5234375 24.828125,21.5234375 C24.6927077,21.5234375 24.5755213,21.5729162 24.4765625,21.671875 L21.2890625,24.8515625 L19.5234375,23.0859375 C19.4244787,22.9869787 19.3072923,22.9375 19.171875,22.9375 C19.0364577,22.9375 18.9192713,22.9869787 18.8203125,23.0859375 L18.109375,23.7890625 C18.0156245,23.882813 17.96875,24.0026034 17.96875,24.1484375 C17.96875,24.2890632 18.0156245,24.4062495 18.109375,24.5 L20.9375,27.328125 C21.0364588,27.4270838 21.1536452,27.4765625 21.2890625,27.4765625 C21.4296882,27.4765625 21.5494787,27.4270838 21.6484375,27.328125 L25.890625,23.0859375 C25.9843755,22.992187 26.03125,22.8750007 26.03125,22.734375 Z M28,24 C28,25.0885471 27.7317735,26.0924433 27.1953125,27.0117188 C26.6588515,27.9309942 25.9309942,28.6588515 25.0117188,29.1953125 C24.0924433,29.7317735 23.0885471,30 22,30 C20.9114529,30 19.9075567,29.7317735 18.9882812,29.1953125 C18.0690058,28.6588515 17.3411485,27.9309942 16.8046875,27.0117188 C16.2682265,26.0924433 16,25.0885471 16,24 C16,22.9114529 16.2682265,21.9075567 16.8046875,20.9882812 C17.3411485,20.0690058 18.0690058,19.3411485 18.9882812,18.8046875 C19.9075567,18.2682265 20.9114529,18 22,18 C23.0885471,18 24.0924433,18.2682265 25.0117188,18.8046875 C25.9309942,19.3411485 26.6588515,20.0690058 27.1953125,20.9882812 C27.7317735,21.9075567 28,22.9114529 28,24 Z"></path>
        </g>
    </g>
</svg>
