<?xml version="1.0" encoding="UTF-8"?>
<svg width="13px" height="12px" viewBox="0 0 13 12" version="1.1" xmlns="http://www.w3.org/2000/svg" xmlns:xlink="http://www.w3.org/1999/xlink">
    <g stroke="none" stroke-width="1" fill="none" fill-rule="evenodd">
        <path d="M6.03572148,7.11160251 L6.03572148,5.7187437 C5.15067578,5.79854291 4.08426826,6.15401208 3.25000387,6.56751704 L3.25000387,7.90959453 C4.09152273,7.51785299 5.13616684,7.18414724 6.03572148,7.11160251 Z M6.03572148,4.07923282 L6.03572148,2.65010165 C5.12165789,2.69362849 4.0479959,3.12164239 3.25000387,3.56416524 L3.25000387,4.93526063 C4.10603168,4.49273778 5.13616684,4.11550519 6.03572148,4.07923282 Z M12.071443,7.43805379 L12.071443,6.10323077 C11.4112859,6.42968205 10.2578247,6.91573174 9.28572536,6.61829835 L9.28572536,4.99329641 C9.19141721,4.96427852 9.09710906,4.92800615 9.00280091,4.88447932 C8.16853652,4.46371989 7.48661607,4.07197835 6.39119065,4.07197835 C6.27511909,4.07197835 6.15904752,4.07923282 6.03572148,4.09374177 L6.03572148,5.70423476 L6.17355647,5.70423476 C7.26898188,5.70423476 8.16853652,6.0959763 9.00280091,6.50948125 C9.09710906,6.55300809 9.19141721,6.58928046 9.28572536,6.61829835 L9.28572536,7.98213926 C9.48159612,8.06193846 9.69923031,8.1054653 9.94588239,8.1054653 C10.7511289,8.1054653 11.6216656,7.6774514 12.071443,7.43805379 Z M12.071443,4.34039385 L12.071443,2.96929846 C11.4910851,3.2812408 10.6785842,3.6294555 9.85157424,3.6294555 C9.65570347,3.6294555 9.46708718,3.61494655 9.28572536,3.57141972 L9.28572536,4.99329641 C10.2578247,5.26896638 11.4112859,4.71037197 12.071443,4.34039385 Z M2.32143134,1.71427464 C2.32143134,2.05523487 2.13281504,2.35266826 1.85714507,2.51226667 L1.85714507,11.6964294 C1.85714507,11.8270099 1.75558245,11.9285725 1.62500194,11.9285725 L1.16071567,11.9285725 C1.03013516,11.9285725 0.928572536,11.8270099 0.928572536,11.6964294 L0.928572536,2.51226667 C0.652902564,2.35266826 0.464286268,2.05523487 0.464286268,1.71427464 C0.464286268,1.19920707 0.877791225,0.785702109 1.3928588,0.785702109 C1.90792638,0.785702109 2.32143134,1.19920707 2.32143134,1.71427464 Z M13.0000155,2.17856091 L13.0000155,7.71372376 C13.0000155,7.88783111 12.8984529,8.04742952 12.7461089,8.12722872 C12.7170911,8.14173766 12.6735642,8.16350108 12.6227829,8.19251897 C12.1584966,8.43917105 11.0630712,9.03403783 9.94588239,9.03403783 C9.51786849,9.03403783 9.13338142,8.94698416 8.79967567,8.78013128 L8.59655043,8.67856866 C7.86384866,8.30859054 7.28349083,8.01841162 6.39119065,8.01841162 C5.34654655,8.01841162 3.87388855,8.56249709 3.02511521,9.07756467 C2.95257048,9.12109151 2.86551681,9.14285493 2.78571761,9.14285493 C2.7059184,9.14285493 2.6261192,9.12109151 2.55357447,9.08481915 C2.40848501,8.99776547 2.32143134,8.84542154 2.32143134,8.67856866 L2.32143134,3.29574974 C2.32143134,3.13615134 2.40848501,2.98380741 2.54632,2.89675373 C3.01060627,2.62108376 4.65011715,1.71427464 6.17355647,1.71427464 C7.38505345,1.71427464 8.37166177,2.15679749 9.20592615,2.56304798 C9.39454245,2.65735613 9.61217664,2.70088296 9.85157424,2.70088296 C10.7076021,2.70088296 11.6506835,2.15679749 12.1004609,1.888382 C12.194769,1.83760068 12.2745682,1.79407385 12.3253495,1.76505596 C12.470439,1.69251123 12.6372919,1.6997657 12.7751268,1.7795649 C12.9129618,1.86661858 13.0000155,2.01896251 13.0000155,2.17856091 Z" fill="#818D99"></path>
    </g>
</svg>
