<?xml version="1.0" encoding="UTF-8"?>
<svg width="11px" height="13px" viewBox="0 0 11 13" version="1.1" xmlns="http://www.w3.org/2000/svg" xmlns:xlink="http://www.w3.org/1999/xlink">
    <defs>
        <path d="M9.83035714,3.25892857 C9.95535777,3.3839292 10.0624996,3.55357036 10.1517857,3.76785714 C10.2410719,3.98214393 10.2857143,4.17857054 10.2857143,4.35714286 L10.2857143,12.0714286 C10.2857143,12.2500009 10.2232149,12.4017851 10.0982143,12.5267857 C9.97321366,12.6517863 9.82142946,12.7142857 9.64285714,12.7142857 L0.642857143,12.7142857 C0.464284821,12.7142857 0.312500625,12.6517863 0.1875,12.5267857 C0.062499375,12.4017851 0,12.2500009 0,12.0714286 L0,1.35714286 C0,1.17857054 0.062499375,1.02678634 0.1875,0.901785714 C0.312500625,0.776785089 0.464284821,0.714285714 0.642857143,0.714285714 L6.64285714,0.714285714 C6.82142946,0.714285714 7.01785607,0.758928125 7.23214286,0.848214286 C7.44642964,0.937500446 7.6160708,1.04464223 7.74107143,1.16964286 L9.83035714,3.25892857 Z M6.85714286,1.625 L6.85714286,4.14285714 L9.375,4.14285714 C9.33035692,4.01339221 9.28125027,3.92187527 9.22767857,3.86830357 L7.13169643,1.77232143 C7.07812473,1.71874973 6.98660779,1.66964308 6.85714286,1.625 Z M9.42857143,11.8571429 L9.42857143,5 L6.64285714,5 C6.46428482,5 6.31250063,4.93750063 6.1875,4.8125 C6.06249937,4.68749938 6,4.53571518 6,4.35714286 L6,1.57142857 L0.857142857,1.57142857 L0.857142857,11.8571429 L9.42857143,11.8571429 Z M2.57142857,6.07142857 C2.57142857,6.00892826 2.59151766,5.95758949 2.63169643,5.91741071 C2.6718752,5.87723194 2.72321397,5.85714286 2.78571429,5.85714286 L7.5,5.85714286 C7.56250031,5.85714286 7.61383908,5.87723194 7.65401786,5.91741071 C7.69419663,5.95758949 7.71428571,6.00892826 7.71428571,6.07142857 L7.71428571,6.5 C7.71428571,6.56250031 7.69419663,6.61383908 7.65401786,6.65401786 C7.61383908,6.69419663 7.56250031,6.71428571 7.5,6.71428571 L2.78571429,6.71428571 C2.72321397,6.71428571 2.6718752,6.69419663 2.63169643,6.65401786 C2.59151766,6.61383908 2.57142857,6.56250031 2.57142857,6.5 L2.57142857,6.07142857 Z M7.5,7.57142857 C7.56250031,7.57142857 7.61383908,7.59151766 7.65401786,7.63169643 C7.69419663,7.6718752 7.71428571,7.72321397 7.71428571,7.78571429 L7.71428571,8.21428571 C7.71428571,8.27678603 7.69419663,8.3281248 7.65401786,8.36830357 C7.61383908,8.40848234 7.56250031,8.42857143 7.5,8.42857143 L2.78571429,8.42857143 C2.72321397,8.42857143 2.6718752,8.40848234 2.63169643,8.36830357 C2.59151766,8.3281248 2.57142857,8.27678603 2.57142857,8.21428571 L2.57142857,7.78571429 C2.57142857,7.72321397 2.59151766,7.6718752 2.63169643,7.63169643 C2.6718752,7.59151766 2.72321397,7.57142857 2.78571429,7.57142857 L7.5,7.57142857 Z M7.5,9.28571429 C7.56250031,9.28571429 7.61383908,9.30580337 7.65401786,9.34598214 C7.69419663,9.38616092 7.71428571,9.43749969 7.71428571,9.5 L7.71428571,9.92857143 C7.71428571,9.99107174 7.69419663,10.0424105 7.65401786,10.0825893 C7.61383908,10.1227681 7.56250031,10.1428571 7.5,10.1428571 L2.78571429,10.1428571 C2.72321397,10.1428571 2.6718752,10.1227681 2.63169643,10.0825893 C2.59151766,10.0424105 2.57142857,9.99107174 2.57142857,9.92857143 L2.57142857,9.5 C2.57142857,9.43749969 2.59151766,9.38616092 2.63169643,9.34598214 C2.6718752,9.30580337 2.72321397,9.28571429 2.78571429,9.28571429 L7.5,9.28571429 Z" id="path-1"></path>
    </defs>
    <g id="Symbols" stroke="none" stroke-width="1" fill="none" fill-rule="evenodd">
        <g id="Icon/Note" transform="translate(-7.000000, -5.000000)">
            <g id="Color/RoyalPurple-#654796" transform="translate(7.000000, 5.000000)">
                <g>
                    <mask id="mask-2" fill="white">
                        <use xlink:href="#path-1"></use>
                    </mask>
                    <use id="Icon_Note" fill="#C3CBD4" xlink:href="#path-1"></use>
                </g>
            </g>
        </g>
    </g>
</svg>