<?xml version="1.0" encoding="UTF-8"?>
<svg width="21px" height="23px" viewBox="0 0 21 23" version="1.1" xmlns="http://www.w3.org/2000/svg" xmlns:xlink="http://www.w3.org/1999/xlink">
    <g stroke="none" stroke-width="1" fill="none" fill-rule="evenodd">
        <path d="M20.7213369,4.52619891 C20.6882135,4.425602 20.6477294,4.32991226 20.5900702,4.24403684 C20.5888434,4.24035647 18.1389406,0.548940584 18.1389406,0.548940584 C17.7647692,-0.0166103371 17.0029316,-0.169959286 16.4386075,0.20543894 C15.8742834,0.579610374 15.7209344,1.34144795 16.0951058,1.90577208 L17.2765061,3.68339309 C17.2765061,3.68339309 14.640131,3.68093951 14.6352239,3.68093951 C13.359515,3.68093951 12.3380393,3.95746861 11.4957938,4.39687875 C9.88632225,5.23656046 8.93133714,6.67102687 8.10746582,7.90723652 C6.98495152,9.59407496 6.07712574,9.71798091 3.86522051,9.81489744 C3.77811831,9.81121707 1.15523789,9.81489744 1.15523789,9.81489744 C0.478048938,9.81489744 0,10.3559122 0,11.034328 C0,11.7127437 0.478048938,12.2684806 1.15523789,12.2684806 C1.15523789,12.2684806 3.86522051,12.2733878 3.98544608,12.2684806 C6.11147591,12.4144688 6.99967301,12.501571 8.10378544,14.16142 C9.36124682,16.0469987 10.9241793,18.3950778 14.6487186,18.4024386 L17.2397024,18.4024386 L16.0558485,20.1726988 C15.6779967,20.7357961 15.8288921,21.4976337 16.3919894,21.8754855 C16.6017708,22.0153398 16.8385415,22.0828133 17.0740855,22.0828133 C17.4691124,22.0828133 17.8592321,21.8914338 18.0947761,21.5393446 L20.5520397,17.8675574 C20.6170596,17.7694141 20.6587705,17.6724976 20.6931207,17.5706739 C20.7017082,17.5473648 20.709069,17.522829 20.7164297,17.4982932 C20.7421924,17.398923 20.761821,17.2946457 20.7630478,17.1866881 C20.7630478,17.0725965 20.7434192,16.9683192 20.7176565,16.8677223 C20.7102958,16.8419597 20.702935,16.8174238 20.6931207,16.7916612 C20.6612241,16.6935179 20.6195132,16.6002817 20.5643076,16.5156331 C20.561854,16.5119527 18.1119512,12.8168565 18.1119512,12.8168565 C17.736553,12.2513055 16.9747154,13.3235214 16.4116181,13.7001464 C15.8460671,14.0743178 15.6927182,13.6093638 16.0668896,14.1736879 L17.2470631,15.951309 L14.6523989,15.9488554 C12.2392999,15.9439482 11.1334984,14.1736877 10.1463934,12.8009082 C9.43424117,11.8105089 8.70982049,11.8795877 7.57871864,11.0343283 C8.71227407,10.1927493 9.43461286,10.2582919 10.1500738,9.26897519 C11.1366398,7.90478309 12.2356195,6.13452268 14.6364506,6.13452268 L17.2679186,6.13452268 L16.0828379,7.90478294 C15.7074397,8.46788028 15.8583351,9.22971785 16.4214324,9.60756966 C16.6312138,9.7474239 16.8679845,9.81489744 17.1010749,9.81489744 C17.4985554,9.81489744 17.8862216,9.62351795 18.1217655,9.27142877 L20.5802559,5.59964155 C20.644049,5.50149822 20.6869868,5.40458169 20.7213369,5.30275798 C20.7286977,5.27944894 20.7372852,5.25491311 20.7434192,5.23037728 C20.7716354,5.13100716 20.7900372,5.02672988 20.7900372,4.91754543 C20.791264,4.8046806 20.7728622,4.69917652 20.7458727,4.59857961 C20.738512,4.57404378 20.7311512,4.54950795 20.7213369,4.52619891 Z" fill="#818D99"></path>
    </g>
</svg>
