<?xml version="1.0" encoding="UTF-8" standalone="no"?>
<svg width="24px" height="24px" viewBox="0 0 24 24" version="1.1" xmlns="http://www.w3.org/2000/svg" xmlns:xlink="http://www.w3.org/1999/xlink">
    <!-- Generator: Sketch 3.6.1 (26313) - http://www.bohemiancoding.com/sketch -->
    <title>Rectangle 196</title>
    <desc>Created with Sketch.</desc>
    <defs></defs>
    <g id="Page-1" stroke="none" stroke-width="1" fill="none" fill-rule="evenodd">
        <path d="M0,2.00494659 C0,0.897645164 0.897026226,0 2.00494659,0 L21.9950534,0 C23.1023548,0 24,0.897026226 24,2.00494659 L24,21.9950534 C24,23.1023548 23.1029738,24 21.9950534,24 L2.00494659,24 C0.897645164,24 0,23.1029738 0,21.9950534 L0,2.00494659 Z M18.3965239,4.60369564 C18.2585963,4.46576812 18.0343757,4.46576812 17.8964482,4.60369564 L9.30462433,13.1955195 L6.07939359,9.96958143 C5.94146606,9.8316539 5.71724542,9.8316539 5.57931789,9.96958143 L3.10369564,12.4452037 C2.96576812,12.5831312 2.96576812,12.8073518 3.10369564,12.9452794 L9.05494014,18.8965239 C9.12425756,18.9658413 9.21479461,19.0005 9.30462433,19.0005 C9.39516137,19.0005 9.48569841,18.9658413 9.55501584,18.8965239 L20.8721461,7.57939359 C21.0100736,7.44146606 21.0100736,7.21724542 20.8721461,7.07931789 L18.3965239,4.60369564 Z" id="Rectangle-196" fill="#81CCC4"></path>
    </g>
</svg>