<?xml version="1.0" encoding="UTF-8" standalone="no"?>
<svg width="58px" height="58px" viewBox="0 0 58 58" version="1.1" xmlns="http://www.w3.org/2000/svg" xmlns:xlink="http://www.w3.org/1999/xlink">
    <!-- Generator: Sketch 39.1 (31720) - http://www.bohemiancoding.com/sketch -->
    <title>Group</title>
    <desc>Created with Sketch.</desc>
    <defs></defs>
    <g id="Page-1" stroke="none" stroke-width="1" fill="none" fill-rule="evenodd">
        <g id="Flyout-/-Decision-Object-Copy-2">
            <g id="Group">
                <path d="M29,58 C45.0162577,58 58,45.0162577 58,29 C58,12.9837423 45.0162577,0 29,0 C12.9837423,0 0,12.9837423 0,29 C0,45.0162577 12.9837423,58 29,58 Z" id="Oval-9-Copy-13" fill="#81CCC4"></path>
                <path d="M21.4956267,35.2707579 L21.4956267,35.2630814 L22.2756742,35.2630814 L22.2756742,30.4434389 L21.4956267,30.4434389 C17.6508959,30.4434389 14.5230294,33.5606765 14.5,37.3989118 C14.5230294,41.2371471 17.6508959,44.3520226 21.4956267,44.3520226 L22.2756742,44.3520226 L22.2756742,39.5382851 L21.4956267,39.5300181 C20.2862873,39.5300181 19.3072421,38.6005747 19.2848032,37.3989118 C19.3072421,36.1954774 20.2862873,35.2707579 21.4956267,35.2707579" id="Fill-12" fill="#6D7A88"></path>
                <path d="M33.7496357,14.5 C28.0194457,14.5 23.3574661,19.2168959 23.3574661,24.8892172 L23.3574661,44.125862 L23.4619842,44.0922036 C26.2816109,43.1456357 28.1759276,40.5155588 28.1759276,37.5471267 L28.1759276,24.8892172 C28.1759276,21.8623258 30.676095,19.317871 33.7496357,19.317871 C36.8219955,19.317871 39.3209819,21.816267 39.3209819,24.8892172 C39.3209819,27.9627579 36.8219955,30.549138 33.7496357,30.549138 L29.642724,30.549138 L29.642724,35.3687805 L33.7496357,35.3687805 C39.4786448,35.3687805 44.1406244,30.6194072 44.1406244,24.8892172 C44.1406244,19.1596176 39.4786448,14.5 33.7496357,14.5" id="Fill-13" fill="#6D7A88"></path>
            </g>
        </g>
    </g>
</svg>