<?xml version="1.0" encoding="UTF-8" standalone="no"?>
<svg width="48px" height="48px" viewBox="0 0 48 48" version="1.1" xmlns="http://www.w3.org/2000/svg" xmlns:xlink="http://www.w3.org/1999/xlink">
    <!-- Generator: Sketch 40 (33762) - http://www.bohemiancoding.com/sketch -->
    <title>Flyout / Decision Object Copy</title>
    <desc>Created with Sketch.</desc>
    <defs></defs>
    <g id="Page-1" stroke="none" stroke-width="1" fill="none" fill-rule="evenodd">
        <g id="Flyout-/-Decision-Object-Copy">
            <path d="M24,48 C37.254834,48 48,37.254834 48,24 C48,10.745166 37.254834,0 24,0 C10.745166,0 0,10.745166 0,24 C0,37.254834 10.745166,48 24,48 Z" id="Oval-9-Copy-13" fill="#FFFFFF"></path>
            <g id="Group" transform="translate(12.000000, 14.000000)" stroke="#6D7A88" stroke-width="2">
                <path d="M9.16716494,11.8374541 C9.42246117,12.1152765 9.56262381,12.4781976 9.56262381,12.8536332 L9.56262381,23.91647 C9.56262381,24.5822676 10.3660561,24.9201597 10.8416079,24.4520915 L13.9276888,20.9154878 C14.340668,20.4199128 14.5684323,20.1746032 14.5684323,19.6840589 L14.5684323,12.8561362 C14.5684323,12.4807005 14.7110979,12.1177794 14.9638912,11.839932 L23.8191414,2.23130762 C24.482411,1.51047119 23.9718436,0.341614907 22.9906801,0.341614907 L1.14032598,0.341614907 C0.159187515,0.341614907 -0.353907856,1.50796829 0.311864674,2.23130762 L9.16716494,11.8374541 L9.16716494,11.8374541 Z" id="Shape"></path>
            </g>
        </g>
    </g>
</svg>