<?xml version="1.0" encoding="UTF-8" standalone="no"?>
<svg width="48px" height="48px" viewBox="0 0 48 48" version="1.1" xmlns="http://www.w3.org/2000/svg" xmlns:xlink="http://www.w3.org/1999/xlink">
    <!-- Generator: Sketch 39.1 (31720) - http://www.bohemiancoding.com/sketch -->
    <title>Flyout / Decision Object Copy</title>
    <desc>Created with Sketch.</desc>
    <defs></defs>
    <g id="Page-1" stroke="none" stroke-width="1" fill="none" fill-rule="evenodd">
        <g id="Flyout-/-Decision-Object-Copy">
            <path d="M24,48 C37.254834,48 48,37.254834 48,24 C48,10.745166 37.254834,0 24,0 C10.745166,0 0,10.745166 0,24 C0,37.254834 10.745166,48 24,48 Z" id="Oval-9-Copy-13" fill="#FFFFFF"></path>
            <g id="Group" transform="translate(16.000000, 13.000000)">
                <path d="M10.7475466,12.657971 C10.4397516,12.5085145 10.2484472,12.2076087 10.2484472,11.8728261 L10.2484472,10.7499094 C10.326677,10.6569143 10.4090062,10.5512983 10.4940683,10.434058 C10.9176708,9.85283816 11.2565528,9.20585749 11.5031988,8.50806159 C11.9852174,8.29317633 12.2981366,7.82986111 12.2981366,7.30676329 L12.2981366,5.97826087 C12.2981366,5.65842391 12.1751553,5.34855072 11.9565217,5.10643116 L11.9565217,3.33985507 C11.9756522,3.15718599 12.0508075,2.06947464 11.2418634,1.17240338 C10.5401863,0.394233092 9.40158385,0 7.85714286,0 C6.31270186,0 5.17409938,0.394233092 4.47242236,1.17240338 C3.66347826,2.06947464 3.73863354,3.15718599 3.75776398,3.33985507 L3.75776398,5.10643116 C3.53913043,5.34855072 3.41614907,5.65842391 3.41614907,5.97826087 L3.41614907,7.30676329 C3.41614907,7.71096014 3.60506211,8.08792271 3.92754658,8.33934179 C4.24046584,9.54396135 4.89568323,10.4519928 5.1242236,10.7432669 L5.1242236,11.8419384 C5.1242236,12.163436 4.94385093,12.4586957 4.65381988,12.6128019 L1.60593168,14.2289251 C0.615248447,14.7543478 0,15.7620169 0,16.8593599 L0,19.5611504 L12.2981367,19.5611504 L9.84346528,17.0297836 L12.2981367,13.5379549 L10.7475466,12.657971 Z" id="Fill-83" fill="#6D7A88"></path>
                <polyline id="Path-47" stroke="#6D7A88" stroke-width="2" points="13.4263132 15.655461 16.2650629 18.4052412 21.283456 13.5441301"></polyline>
            </g>
        </g>
    </g>
</svg>