<?xml version="1.0" encoding="UTF-8" standalone="no"?>
<svg width="26px" height="33px" viewBox="0 0 26 33" version="1.1" xmlns="http://www.w3.org/2000/svg" xmlns:xlink="http://www.w3.org/1999/xlink">
    <!-- Generator: Sketch 3.7 (28169) - http://www.bohemiancoding.com/sketch -->
    <title>350 - Trash Bin (Solid)</title>
    <desc>Created with Sketch.</desc>
    <defs></defs>
    <g id="Page-1" stroke="none" stroke-width="1" fill="none" fill-rule="evenodd">
        <g id="Trash-Bin" fill="#F77363">
            <path d="M20,5 L20,3 C20,1.346 18.654,0 17,0 L9,0 C7.346,0 6,1.346 6,3 L6,5 L3.557,5 C1.596,5 0,5.596 0,7.557 L0,9 L26,9 L26,7.557 C26,5.596 24.404,5 22.443,5 L20,5 Z M18,5 L8,5 L8,2.75 C8,2.336 8.449,2 9,2 L17,2 C17.551,2 18,2.336 18,2.75 L18,5 L18,5 Z" id="Fill-700"></path>
            <path d="M5.73,33 L20.271,33 C22.327,33 24,31.327 24,29.271 L24,11 L2,11 L2,29.271 C2,31.327 3.673,33 5.73,33 Z" id="Fill-701"></path>
        </g>
    </g>
</svg>