<?xml version="1.0" encoding="UTF-8"?>
<svg width="16px" height="17px" viewBox="0 0 16 17" version="1.1" xmlns="http://www.w3.org/2000/svg" xmlns:xlink="http://www.w3.org/1999/xlink">
    <!-- Generator: Sketch 44.1 (41455) - http://www.bohemiancoding.com/sketch -->
    <title>icon_timer_on</title>
    <desc>Created with Sketch.</desc>
    <defs></defs>
    <g id="Page-1" stroke="none" stroke-width="1" fill="none" fill-rule="evenodd">
        <g id="icon_timer_on">
            <path d="M13.1785871,8.57142091 C13.1785871,5.55802446 10.7276914,3.10712868 7.71429491,3.10712868 C4.70089846,3.10712868 2.25000268,5.55802446 2.25000268,8.57142091 C2.25000268,11.5848174 4.70089846,14.0357131 7.71429491,14.0357131 C10.7276914,14.0357131 13.1785871,11.5848174 13.1785871,8.57142091 Z M15.4285898,8.57142091 C15.4285898,12.8303546 11.9732286,16.2857158 7.71429491,16.2857158 C3.45536126,16.2857158 0,12.8303546 0,8.57142091 C0,4.31248726 3.45536126,0.857125998 7.71429491,0.857125998 C11.9732286,0.857125998 15.4285898,4.31248726 15.4285898,8.57142091 Z" id="clock-o---fontawesome" fill="#6D7A88" fill-rule="nonzero"></path>
            <path d="M9.00001073,5.03570241 L9.00001073,9.53570777 C9.00001073,9.71651156 8.85938556,9.85713673 8.67858177,9.85713673 L5.46429223,9.85713673 C5.28348844,9.85713673 5.14286327,9.71651156 5.14286327,9.53570777 L5.14286327,8.89284986 C5.14286327,8.71204608 5.28348844,8.57142091 5.46429223,8.57142091 L7.71429491,8.57142091 L7.71429491,5.03570241 C7.71429491,4.85489862 7.85492008,4.71427345 8.03572387,4.71427345 L8.67858177,4.71427345 C8.85938556,4.71427345 9.00001073,4.85489862 9.00001073,5.03570241 Z" id="clock-o---fontawesome-path" fill="#ED493D"></path>
        </g>
    </g>
</svg>