<?xml version="1.0" encoding="UTF-8" standalone="no"?>
<svg width="19px" height="17px" viewBox="0 0 19 17" version="1.1" xmlns="http://www.w3.org/2000/svg" xmlns:xlink="http://www.w3.org/1999/xlink">
    <!-- Generator: Sketch 3.6.1 (26313) - http://www.bohemiancoding.com/sketch -->
    <title>Untitled</title>
    <desc>Created with Sketch.</desc>
    <defs></defs>
    <g id="Page-1" stroke="none" stroke-width="1" fill="none" fill-rule="evenodd">
        <path d="M8.7934472,10.3565217 C8.54161491,10.2342391 8.38509317,9.98804348 8.38509317,9.71413043 L8.38509317,8.79538043 C8.44909938,8.71929348 8.51645963,8.63288043 8.5860559,8.53695652 C8.93263975,8.06141304 9.20990683,7.53206522 9.41170807,6.9611413 C9.80608696,6.78532609 10.0621118,6.40625 10.0621118,5.97826087 L10.0621118,4.89130435 C10.0621118,4.62961957 9.96149068,4.37608696 9.7826087,4.17798913 L9.7826087,2.7326087 C9.79826087,2.58315217 9.85975155,1.69320652 9.1978882,0.95923913 C8.62378882,0.322554348 7.69220497,0 6.42857143,0 C5.16493789,0 4.23335404,0.322554348 3.65925466,0.95923913 C2.9973913,1.69320652 3.05888199,2.58315217 3.07453416,2.7326087 L3.07453416,4.17798913 C2.89565217,4.37608696 2.79503106,4.62961957 2.79503106,4.89130435 L2.79503106,5.97826087 C2.79503106,6.30896739 2.94959627,6.6173913 3.2134472,6.82309783 C3.46947205,7.80869565 4.00555901,8.55163043 4.19254658,8.78994565 L4.19254658,9.6888587 C4.19254658,9.95190217 4.04496894,10.1934783 3.80767081,10.3195652 L1.3139441,11.6418478 C0.503385093,12.0717391 0,12.8961957 0,13.7940217 L0,16.0045776 L10.0621119,16.0045776 L8.05374432,13.9334593 L10.0621119,11.0765085 L8.7934472,10.3565217 Z" id="Fill-83" fill="#D1D8D9"></path>
        <path d="M10.9851653,12.8090136 L13.3077787,15.0588337 L17.4137367,11.081561" id="Path-47" stroke="#D1D8D9" stroke-width="2"></path>
    </g>
</svg>