<?xml version="1.0" encoding="UTF-8"?>
<svg width="25px" height="25px" viewBox="0 0 25 25" version="1.1" xmlns="http://www.w3.org/2000/svg" xmlns:xlink="http://www.w3.org/1999/xlink">
    <!-- Generator: Sketch 42 (36781) - http://www.bohemiancoding.com/sketch -->
    <title>Group</title>
    <desc>Created with Sketch.</desc>
    <defs></defs>
    <g id="Page-1" stroke="none" stroke-width="1" fill="none" fill-rule="evenodd">
        <g id="Group" fill="#6D7A88">
            <path d="M12.1393803,14.2972094 C11.791725,14.1283979 11.5756463,13.788524 11.5756463,13.4103863 L11.5756463,12.1420491 C11.6640071,12.0370109 11.7569981,11.9177174 11.853076,11.7852941 C12.331536,11.1288049 12.7143041,10.3980387 12.9928913,9.60987649 C13.5373325,9.36716305 13.8907756,8.84384738 13.8907756,8.2530071 L13.8907756,6.75246035 C13.8907756,6.39120372 13.7518678,6.04120119 13.5049207,5.76772655 L13.5049207,3.77237452 C13.5265286,3.56604934 13.6114166,2.33747669 12.6977123,1.3242325 C11.9051664,0.445287247 10.6191121,0 8.87466218,0 C7.13021228,0 5.84415797,0.445287247 5.05161205,1.3242325 C4.1379077,2.33747669 4.22279578,3.56604934 4.24440365,3.77237452 L4.24440365,5.76772655 C3.99745653,6.04120119 3.85854877,6.39120372 3.85854877,6.75246035 L3.85854877,8.2530071 C3.85854877,8.70954844 4.07192652,9.13532858 4.43617352,9.41930705 C4.78961659,10.7799278 5.52968625,11.8055515 5.78782316,12.1345464 L5.78782316,13.3754985 C5.78782316,13.7386309 5.58409178,14.0721274 5.25650099,14.2461908 L1.81390378,16.0716059 C0.694924634,16.6650721 0,17.8032369 0,19.0426885 L0,22.0943675 L13.1801758,22.0926514 C13.1801758,22.0926514 12.4926758,20.9158806 12.4926758,19.0926514 C12.4926758,17.2694221 14.2114258,15.4051514 14.2114258,15.4051514 L12.1393803,14.2972094 Z" id="Fill-83"></path>
            <path d="M21.2857218,20.0714239 C21.2857218,19.2059095 20.5798058,18.4999934 19.7142913,18.4999934 C18.8487769,18.4999934 18.1428609,19.2059095 18.1428609,20.0714239 C18.1428609,20.9369383 18.8487769,21.6428543 19.7142913,21.6428543 C20.5798058,21.6428543 21.2857218,20.9369383 21.2857218,20.0714239 Z M24.4285827,19.4023383 L24.4285827,20.7650631 C24.4285827,20.8571391 24.3549219,20.9676303 24.2567075,20.9860455 L23.1211034,21.1579207 C23.053581,21.3543495 22.9799202,21.5385015 22.8817058,21.7165151 C23.0904114,22.0172967 23.3113938,22.2873864 23.5385146,22.5636144 C23.575345,22.6065832 23.5998986,22.6618288 23.5998986,22.7170744 C23.5998986,22.77232 23.5814834,22.8152888 23.544653,22.8582576 C23.3973314,23.0546864 22.5686474,23.9570312 22.3599418,23.9570312 C22.3046962,23.9570312 22.2494506,23.9324776 22.2003434,23.9017856 L21.3532442,23.2388384 C21.1752306,23.3309144 20.9849402,23.4107136 20.7946498,23.4720976 C20.751681,23.84654 20.7148506,24.245536 20.6166362,24.61384 C20.5920826,24.7120544 20.506145,24.7857152 20.3956538,24.7857152 L19.0329289,24.7857152 C18.9224377,24.7857152 18.8242233,24.705916 18.8119465,24.6015632 L18.6400713,23.4720976 C18.4497809,23.4107136 18.2656289,23.3370528 18.0876153,23.2449768 L17.2221009,23.9017856 C17.1791321,23.938616 17.1238865,23.9570312 17.0686409,23.9570312 C17.0133953,23.9570312 16.9581497,23.9324776 16.9151809,23.8895088 C16.5898456,23.5948656 16.1601576,23.2142848 15.9023448,22.8582576 C15.8716528,22.8152888 15.859376,22.7661816 15.859376,22.7170744 C15.859376,22.6618288 15.8777912,22.61886 15.9084832,22.5758912 C16.1171888,22.2935248 16.3443096,22.0234351 16.5530152,21.7349303 C16.4486624,21.5385015 16.3627248,21.3359343 16.3013408,21.1272287 L15.1780136,20.9614919 C15.0736608,20.9430767 15,20.8448623 15,20.7405095 L15,19.3777847 C15,19.2857087 15.0736608,19.1752175 15.1657368,19.1568023 L16.3074792,18.9849271 C16.3688632,18.7884983 16.4486624,18.6043462 16.5468768,18.4201942 C16.3381712,18.125551 16.1171888,17.849323 15.890068,17.573095 C15.8532376,17.5301262 15.828684,17.481019 15.828684,17.4257734 C15.828684,17.3705278 15.8532376,17.327559 15.8839296,17.2845902 C16.0312512,17.082023 16.8599353,16.1858166 17.0686409,16.1858166 C17.1238865,16.1858166 17.1791321,16.2103702 17.2282393,16.2472006 L18.0753385,16.9040094 C18.2533521,16.8119334 18.4436425,16.7321342 18.6339329,16.6707502 C18.6769017,16.2963078 18.7137321,15.8973118 18.8119465,15.5290078 C18.8365001,15.4307934 18.9224377,15.3571326 19.0329289,15.3571326 L20.3956538,15.3571326 C20.506145,15.3571326 20.6043594,15.4369318 20.6166362,15.5412846 L20.7885114,16.6707502 C20.9788018,16.7321342 21.1629538,16.805795 21.3409674,16.897871 L22.2126202,16.2410622 C22.2494506,16.2042318 22.3046962,16.1858166 22.3599418,16.1858166 C22.4151874,16.1858166 22.470433,16.2103702 22.5134018,16.2472006 C22.838737,16.5479822 23.268425,16.928563 23.5262378,17.2907286 C23.5569298,17.327559 23.5692066,17.3766662 23.5692066,17.4257734 C23.5692066,17.481019 23.5507914,17.5239878 23.5200994,17.5669566 C23.3113938,17.849323 23.084273,18.1194126 22.8755674,18.4079174 C22.9799202,18.6043462 23.0658578,18.8069135 23.1272418,19.0094807 L24.2505691,19.1813559 C24.3549219,19.1997711 24.4285827,19.2979855 24.4285827,19.4023383 Z" id=""></path>
        </g>
    </g>
</svg>