<?xml version="1.0" encoding="UTF-8" standalone="no"?>
<svg width="63px" height="36px" viewBox="0 0 63 36" version="1.1" xmlns="http://www.w3.org/2000/svg" xmlns:xlink="http://www.w3.org/1999/xlink">
    <!-- Generator: Sketch 3.8.2 (29753) - http://www.bohemiancoding.com/sketch -->
    <title>Slice 1</title>
    <desc>Created with Sketch.</desc>
    <defs></defs>
    <g id="Page-1" stroke="none" stroke-width="1" fill="none" fill-rule="evenodd">
        <g id="Group-2">
            <rect id="Rectangle-30" fill="#263238" x="0" y="5" width="63" height="31"></rect>
            <path d="M0,2.5 C0,1.11928813 1.12022099,0 2.50855172,0 L60.4914483,0 C61.8768831,0 63,1.10966206 63,2.5 L63,5 L0,5 L0,2.5 Z M4,4 C4.55228475,4 5,3.55228475 5,3 C5,2.44771525 4.55228475,2 4,2 C3.44771525,2 3,2.44771525 3,3 C3,3.55228475 3.44771525,4 4,4 Z M8,4 C8.55228475,4 9,3.55228475 9,3 C9,2.44771525 8.55228475,2 8,2 C7.44771525,2 7,2.44771525 7,3 C7,3.55228475 7.44771525,4 8,4 Z M12,4 C12.5522847,4 13,3.55228475 13,3 C13,2.44771525 12.5522847,2 12,2 C11.4477153,2 11,2.44771525 11,3 C11,3.55228475 11.4477153,4 12,4 Z" id="Rectangle-30-Copy" fill="#6D7A88"></path>
            <g id="Code-Lines" transform="translate(10.000000, 11.000000)">
                <path d="M42,6 L27,6 C26.447,6 26,5.553 26,5 C26,4.447 26.447,4 27,4 L42,4 C42.553,4 43,4.447 43,5 C43,5.553 42.553,6 42,6 L42,6 Z" id="Path-Copy-2" fill="#6D7A88"></path>
                <path d="M4,12 L17,12 C17.553,12 18,12.447 18,13 C18,13.553 17.553,14 17,14 L4,14 C3.447,14 3,13.553 3,13 C3,12.447 3.447,12 4,12 L4,12 Z" id="Path-Copy-3" fill="#E6984E"></path>
                <path d="M4,8 L13,8 C13.553,8 14,8.447 14,9 C14,9.553 13.553,10 13,10 L4,10 C3.447,10 3,9.553 3,9 C3,8.447 3.447,8 4,8 L4,8 Z" id="Path-Copy-4" fill="#F7616A"></path>
                <path d="M4,4 L5,4 C5.553,4 6,4.447 6,5 C6,5.553 5.553,6 5,6 L4,6 C3.447,6 3,5.553 3,5 C3,4.447 3.447,4 4,4 L4,4 Z" id="Path-Copy-5" fill="#ECEFF1"></path>
                <path d="M14,0 C14.553,0 15,0.447 15,1 C15,1.553 14.553,2 14,2 L1,2 C0.447,2 0,1.553 0,1 C0,0.447 0.447,0 1,0 L14,0 Z" id="Path-Copy-6" fill="#6D7A88"></path>
                <path d="M23,6 L9,6 C8.447,6 8,5.553 8,5 C8,4.447 8.447,4 9,4 L23,4 C23.553,4 24,4.447 24,5 C24,5.553 23.553,6 23,6 L23,6 Z" id="Path-Copy-7" fill="#81CCC4"></path>
                <path d="M37,10 L23,10 C22.447,10 22,9.553 22,9 C22,8.447 22.447,8 23,8 L37,8 C37.553,8 38,8.447 38,9 C38,9.553 37.553,10 37,10 L37,10 Z" id="Path-Copy-8" fill="#81CCC4"></path>
                <path d="M19,10 L17,10 C16.447,10 16,9.553 16,9 C16,8.447 16.447,8 17,8 L19,8 C19.553,8 20,8.447 20,9 C20,9.553 19.553,10 19,10 L19,10 Z" id="Path-Copy-9" fill="#ECEFF1"></path>
                <path d="M31,14 L21,14 C20.447,14 20,13.553 20,13 C20,12.447 20.447,12 21,12 L31,12 C31.553,12 32,12.447 32,13 C32,13.553 31.553,14 31,14 L31,14 Z" id="Path-Copy-10" fill="#F7616A"></path>
                <path d="M1,18 C0.447,18 0,17.553 0,17 C0,16.447 0.447,16 1,16 L15,16 C15.553,16 16,16.447 16,17 C16,17.553 15.553,18 15,18 L1,18 L1,18 Z" id="Path-Copy-11" fill="#6D7A88"></path>
                <path d="M18,0 L28,0 C28.553,0 29,0.447 29,1 C29,1.553 28.553,2 28,2 L18,2 C17.447,2 17,1.553 17,1 C17,0.447 17.447,0 18,0 L18,0 Z" id="Path-Copy-12" fill="#E6984E"></path>
                <path d="M32,0 L34,0 C34.553,0 35,0.447 35,1 C35,1.553 34.553,2 34,2 L32,2 C31.447,2 31,1.553 31,1 C31,0.447 31.447,0 32,0 L32,0 Z" id="Path-Copy-13" fill="#B3A9CA"></path>
            </g>
        </g>
    </g>
</svg>