<?xml version="1.0" encoding="UTF-8"?>
<svg width="19px" height="19px" viewBox="0 0 19 19" version="1.1" xmlns="http://www.w3.org/2000/svg" xmlns:xlink="http://www.w3.org/1999/xlink">
    <!-- Generator: Sketch 41 (35326) - http://www.bohemiancoding.com/sketch -->
    <title>Group</title>
    <desc>Created with Sketch.</desc>
    <defs></defs>
    <g id="Page-1" stroke="none" stroke-width="1" fill="none" fill-rule="evenodd">
        <g id="Group" fill="#6A6C8A">
            <path d="M5.98769231,16.7230713 L5.98769231,18.6615328 L4.48,18.6615328 C3.97743338,18.6615328 3.55025817,18.6076872 3.19846154,18.4999944 C2.84666491,18.3923015 2.55230888,18.2164058 2.31538462,17.9723021 C2.07846035,17.7281983 1.90615438,17.4051246 1.79846154,17.0030713 C1.69076869,16.601018 1.63692308,16.1056383 1.63692308,15.5169174 C1.63692308,15.1435822 1.6476922,14.8133291 1.66923077,14.5261482 C1.69076934,14.2389673 1.71589729,13.9661495 1.74461538,13.7076867 C1.77333348,13.4492238 1.79846143,13.1871752 1.82,12.9215328 C1.84153857,12.6558905 1.85230769,12.3579447 1.85230769,12.0276867 C1.85230769,11.6543515 1.7158988,11.3097395 1.44307692,10.9938405 C1.17025505,10.6779415 0.689234215,10.5056355 0,10.4769174 L0,8.32307129 C0.689234215,8.2943532 1.17025505,8.12204723 1.44307692,7.80614821 C1.7158988,7.4902492 1.85230769,7.14563726 1.85230769,6.77230206 C1.85230769,6.442044 1.84153857,6.14409826 1.82,5.8784559 C1.79846143,5.61281355 1.77333348,5.35076489 1.74461538,5.09230206 C1.71589729,4.83383923 1.69076934,4.56102144 1.66923077,4.27384052 C1.6476922,3.9866596 1.63692308,3.65640649 1.63692308,3.28307129 C1.63692308,2.1056295 1.86307466,1.28717615 2.31538462,0.827686674 C2.76769457,0.368197197 3.48922582,0.138455904 4.48,0.138455904 L5.98769231,0.138455904 L5.98769231,2.07691744 L5.64307692,2.07691744 C5.24102363,2.07691744 4.96820585,2.15948072 4.82461538,2.32460975 C4.68102492,2.48973878 4.60923077,2.85229926 4.60923077,3.41230206 C4.60923077,3.95794581 4.6235896,4.49640197 4.65230769,5.02768667 C4.68102578,5.55897138 4.69538462,6.14050403 4.69538462,6.77230206 C4.69538462,7.63384483 4.55179631,8.24768484 4.26461538,8.61384052 C3.97743446,8.9799962 3.54666954,9.22768603 2.97230769,9.35691744 L2.97230769,9.44307129 C3.54666954,9.5723027 3.97743446,9.81999254 4.26461538,10.1861482 C4.55179631,10.5523039 4.69538462,11.1661439 4.69538462,12.0276867 C4.69538462,12.6594847 4.68102578,13.2410174 4.65230769,13.7723021 C4.6235896,14.3035868 4.60923077,14.8420429 4.60923077,15.3876867 C4.60923077,15.9476895 4.68102492,16.31025 4.82461538,16.475379 C4.96820585,16.640508 5.24102363,16.7230713 5.64307692,16.7230713 L5.98769231,16.7230713 Z M13.0953846,16.7230713 C13.4974379,16.7230713 13.7702557,16.640508 13.9138462,16.475379 C14.0574366,16.31025 14.1292308,15.9476895 14.1292308,15.3876867 C14.1292308,14.8420429 14.1148719,14.3035868 14.0861538,13.7723021 C14.0574358,13.2410174 14.0430769,12.6594847 14.0430769,12.0276867 C14.0430769,11.1661439 14.1866652,10.5523039 14.4738462,10.1861482 C14.7610271,9.81999254 15.191792,9.5723027 15.7661538,9.44307129 L15.7661538,9.35691744 C15.191792,9.22768603 14.7610271,8.9799962 14.4738462,8.61384052 C14.1866652,8.24768484 14.0430769,7.63384483 14.0430769,6.77230206 C14.0430769,6.14050403 14.0574358,5.55897138 14.0861538,5.02768667 C14.1148719,4.49640197 14.1292308,3.95794581 14.1292308,3.41230206 C14.1292308,2.85229926 14.0574366,2.48973878 13.9138462,2.32460975 C13.7702557,2.15948072 13.4974379,2.07691744 13.0953846,2.07691744 L12.7507692,2.07691744 L12.7507692,0.138455904 L14.2584615,0.138455904 C15.2492357,0.138455904 15.970767,0.368197197 16.4230769,0.827686674 C16.8753869,1.28717615 17.1015385,2.1056295 17.1015385,3.28307129 C17.1015385,3.65640649 17.0907693,3.9866596 17.0692308,4.27384052 C17.0476922,4.56102144 17.0225642,4.83383923 16.9938462,5.09230206 C16.9651281,5.35076489 16.9400001,5.61281355 16.9184615,5.8784559 C16.896923,6.14409826 16.8861538,6.442044 16.8861538,6.77230206 C16.8861538,7.14563726 17.0225627,7.4902492 17.2953846,7.80614821 C17.5682065,8.12204723 18.0492273,8.2943532 18.7384615,8.32307129 L18.7384615,10.4769174 C18.0492273,10.5056355 17.5682065,10.6779415 17.2953846,10.9938405 C17.0225627,11.3097395 16.8861538,11.6543515 16.8861538,12.0276867 C16.8861538,12.3579447 16.896923,12.6558905 16.9184615,12.9215328 C16.9400001,13.1871752 16.9651281,13.4492238 16.9938462,13.7076867 C17.0225642,13.9661495 17.0476922,14.2389673 17.0692308,14.5261482 C17.0907693,14.8133291 17.1015385,15.1435822 17.1015385,15.5169174 C17.1015385,16.1056383 17.0476928,16.601018 16.94,17.0030713 C16.8323072,17.4051246 16.6600012,17.7281983 16.4230769,17.9723021 C16.1861527,18.2164058 15.8882069,18.3923015 15.5292308,18.4999944 C15.1702546,18.6076872 14.7466691,18.6615328 14.2584615,18.6615328 L12.7507692,18.6615328 L12.7507692,16.7230713 L13.0953846,16.7230713 Z" id="{-}"></path>
        </g>
    </g>
</svg>