<?xml version="1.0" encoding="UTF-8" standalone="no"?>
<svg width="8px" height="8px" viewBox="0 0 8 8" version="1.1" xmlns="http://www.w3.org/2000/svg" xmlns:xlink="http://www.w3.org/1999/xlink">
    <!-- Generator: Sketch 39.1 (31720) - http://www.bohemiancoding.com/sketch -->
    <title> copy 11</title>
    <desc>Created with Sketch.</desc>
    <defs></defs>
    <g id="Page-1" stroke="none" stroke-width="1" fill="none" fill-rule="evenodd">
        <path d="M7.24331221,5.80580215 C7.24331221,5.66629305 7.18750857,5.52678396 7.08706202,5.42633741 L5.44643506,3.78571045 L7.08706202,2.1450835 C7.18750857,2.04463695 7.24331221,1.90512786 7.24331221,1.76561876 C7.24331221,1.62610967 7.18750857,1.48660057 7.08706202,1.38615402 L6.32813254,0.627224546 C6.227686,0.526777998 6.0881769,0.47097436 5.94866781,0.47097436 C5.80915871,0.47097436 5.66964962,0.526777998 5.56920307,0.627224546 L3.92857611,2.2678515 L2.28794916,0.627224546 C2.18750261,0.526777998 2.04799351,0.47097436 1.90848442,0.47097436 C1.76897532,0.47097436 1.62946623,0.526777998 1.52901968,0.627224546 L0.770090204,1.38615402 C0.669643655,1.48660057 0.613840017,1.62610967 0.613840017,1.76561876 C0.613840017,1.90512786 0.669643655,2.04463695 0.770090204,2.1450835 L2.41071716,3.78571045 L0.770090204,5.42633741 C0.669643655,5.52678396 0.613840017,5.66629305 0.613840017,5.80580215 C0.613840017,5.94531124 0.669643655,6.08482034 0.770090204,6.18526689 L1.52901968,6.94419636 C1.62946623,7.04464291 1.76897532,7.10044655 1.90848442,7.10044655 C2.04799351,7.10044655 2.18750261,7.04464291 2.28794916,6.94419636 L3.92857611,5.30356941 L5.56920307,6.94419636 C5.66964962,7.04464291 5.80915871,7.10044655 5.94866781,7.10044655 C6.0881769,7.10044655 6.227686,7.04464291 6.32813254,6.94419636 L7.08706202,6.18526689 C7.18750857,6.08482034 7.24331221,5.94531124 7.24331221,5.80580215 L7.24331221,5.80580215 Z" id="-copy-11" fill="#FFFFFF"></path>
    </g>
</svg>