<?xml version="1.0" encoding="UTF-8"?>
<svg width="12px" height="13px" viewBox="0 0 12 13" version="1.1" xmlns="http://www.w3.org/2000/svg" xmlns:xlink="http://www.w3.org/1999/xlink">
    <!-- Generator: Sketch 41 (35326) - http://www.bohemiancoding.com/sketch -->
    <title>Icon / Gateway</title>
    <desc>Created with Sketch.</desc>
    <defs></defs>
    <g id="Page-1" stroke="none" stroke-width="1" fill="none" fill-rule="evenodd">
        <path d="M11.930973,2.60610391 C11.9119012,2.54818202 11.8885912,2.49308558 11.855392,2.44364007 C11.8546857,2.44152097 10.4440757,0.316070113 10.4440757,0.316070113 C10.2286345,-0.00956393331 9.78998215,-0.0978594991 9.46505447,0.118288046 C9.14012678,0.333729226 9.05183122,0.772381597 9.2672724,1.09730928 L9.94750144,2.12083148 C9.94750144,2.12083148 8.42952407,2.11941875 8.42669861,2.11941875 C7.69216843,2.11941875 7.10402106,2.27863923 6.61907127,2.53164369 C5.6923665,3.01511731 5.14250325,3.84105726 4.66813297,4.55284454 C4.02180943,5.52409577 3.49909968,5.59543858 2.22552444,5.65124138 C2.17537255,5.64912229 0.665165197,5.65124138 0.665165197,5.65124138 C0.275251978,5.65124138 0,5.96274797 0,6.35336755 C0,6.74398714 0.275251978,7.06397043 0.665165197,7.06397043 C0.665165197,7.06397043 2.22552444,7.06679589 2.29474816,7.06397043 C3.51887788,7.14802781 4.0302858,7.19817969 4.66601387,8.1538909 C5.39003751,9.23957317 6.28994592,10.5915549 8.43446862,10.5957931 L9.9263105,10.5957931 L9.24466873,11.6150771 C9.02710846,11.9392984 9.1139913,12.3779508 9.43821261,12.595511 C9.55900095,12.6760366 9.6953293,12.7148866 9.83095129,12.7148866 C10.0584007,12.7148866 10.2830246,12.6046938 10.4186466,12.4019672 L11.8334947,10.2878181 C11.870932,10.231309 11.8949484,10.1755062 11.9147266,10.1168779 C11.9196712,10.103457 11.9239094,10.0893297 11.9281476,10.0752024 C11.9429812,10.0179869 11.9542831,9.9579459 11.9549894,9.89578582 C11.9549894,9.83009392 11.9436876,9.77005293 11.9288539,9.71213104 C11.9246157,9.69729739 11.9203776,9.6831701 11.9147266,9.66833644 C11.8963612,9.61182728 11.8723448,9.55814358 11.8405584,9.50940442 C11.8391456,9.50728533 10.4285357,7.37971538 10.4285357,7.37971538 C10.2123881,7.05408133 9.77373576,7.67144393 9.44951445,7.88829784 C9.1238804,8.10373902 9.03558483,7.83602686 9.25102601,8.16095454 L9.93054869,9.18447674 L8.43658772,9.18306401 C7.04716869,9.18023855 6.41046812,8.16095439 5.84211081,7.37053264 C5.43206635,6.80027858 5.01495795,6.84005288 4.36368986,6.35336772 C5.01637068,5.86880165 5.43228036,5.90653991 5.8442299,5.33690917 C6.41227685,4.5514319 7.0450496,3.5321478 8.42740498,3.5321478 L9.94255689,3.5321478 L9.26020875,4.55143181 C9.04406121,4.87565313 9.13094405,5.3143055 9.45516536,5.53186578 C9.5759537,5.61239133 9.71228205,5.65124138 9.84649131,5.65124138 C10.0753534,5.65124138 10.2985646,5.54104851 10.4341866,5.3383219 L11.8497411,3.22417287 C11.8864721,3.16766371 11.9111948,3.11186091 11.930973,3.05323265 C11.9352112,3.03981173 11.9401558,3.02568444 11.9436876,3.01155715 C11.959934,2.95434162 11.9705294,2.89430063 11.9705294,2.83143419 C11.9712358,2.76644866 11.9606403,2.70570131 11.9451003,2.64777941 C11.9408621,2.63365212 11.9366239,2.61952483 11.930973,2.60610391 Z" id="Icon-/-Gateway" fill="#6A6C8A"></path>
    </g>
</svg>