<?xml version="1.0" encoding="UTF-8" standalone="no"?>
<svg width="27px" height="27px" viewBox="0 0 27 27" version="1.1" xmlns="http://www.w3.org/2000/svg" xmlns:xlink="http://www.w3.org/1999/xlink">
    <!-- Generator: Sketch 3.8.1 (29687) - http://www.bohemiancoding.com/sketch -->
    <title>Slice 1</title>
    <desc>Created with Sketch.</desc>
    <defs></defs>
    <g id="Page-1" stroke="none" stroke-width="1" fill="none" fill-rule="evenodd">
        <g id="Icon-/-Full-Screen" fill="#6D7A88">
            <path d="M25.9230092,0.618951918 C25.8210092,0.373951918 25.6270092,0.177951918 25.3820092,0.0779519182 C25.2600092,0.0269519182 25.1300092,0.000951918159 25.0000092,0.000951918159 L20.0000092,0.000951918159 C19.4470092,0.000951918159 19.0000092,0.447951918 19.0000092,1.00095192 C19.0000092,1.55295192 19.4470092,2.00095192 20.0000092,2.00095192 L22.5860092,2.00095192 L20.2930092,4.29395192 C19.9020092,4.68395192 19.9020092,5.31695192 20.2930092,5.70795192 C20.4880092,5.90295192 20.7440092,6.00095192 21.0000092,6.00095192 C21.2560092,6.00095192 21.5120092,5.90295192 21.7070092,5.70795192 L24.0000092,3.41495192 L24.0000092,6.00095192 C24.0000092,6.55295192 24.4470092,7.00095192 25.0000092,7.00095192 C25.5530092,7.00095192 26.0000092,6.55295192 26.0000092,6.00095192 L26.0000092,1.00095192 C26.0000092,0.870951918 25.9740092,0.740951918 25.9230092,0.618951918" id="Fill-350" transform="translate(22.500009, 3.500952) scale(-1, -1) translate(-22.500009, -3.500952) "></path>
            <path d="M6.00010924,24.0007519 L3.41410924,24.0007519 L5.70710924,21.7077519 C6.09810924,21.3167519 6.09810924,20.6847519 5.70710924,20.2937519 C5.31610924,19.9027519 4.68410924,19.9027519 4.29310924,20.2937519 L2.00010924,22.5867519 L2.00010924,20.0007519 C2.00010924,19.4477519 1.55310924,19.0007519 1.00010924,19.0007519 C0.447109242,19.0007519 0.00010924164,19.4477519 0.00010924164,20.0007519 L0.00010924164,25.0007519 C0.00010924164,25.1307519 0.0261092416,25.2607519 0.0771092416,25.3827519 C0.179109242,25.6277519 0.373109242,25.8227519 0.618109242,25.9237519 C0.740109242,25.9747519 0.870109242,26.0007519 1.00010924,26.0007519 L6.00010924,26.0007519 C6.55310924,26.0007519 7.00010924,25.5537519 7.00010924,25.0007519 C7.00010924,24.4477519 6.55310924,24.0007519 6.00010924,24.0007519" id="Fill-351" transform="translate(3.500109, 22.500752) scale(-1, -1) translate(-3.500109, -22.500752) "></path>
            <path d="M1.00010924,7.00075192 C1.55310924,7.00075192 2.00010924,6.55375192 2.00010924,6.00075192 L2.00010924,3.41475192 L4.29310924,5.70775192 C4.48810924,5.90275192 4.74410924,6.00075192 5.00010924,6.00075192 C5.25610924,6.00075192 5.51210924,5.90275192 5.70710924,5.70775192 C6.09810924,5.31675192 6.09810924,4.68475192 5.70710924,4.29375192 L3.41410924,2.00075192 L6.00010924,2.00075192 C6.55310924,2.00075192 7.00010924,1.55375192 7.00010924,1.00075192 C7.00010924,0.447751918 6.55310924,0.000751918159 6.00010924,0.000751918159 L1.00010924,0.000751918159 C0.870109242,0.000751918159 0.740109242,0.0267519182 0.618109242,0.0777519182 C0.373109242,0.178751918 0.179109242,0.373751918 0.0771092416,0.618751918 C0.0261092416,0.740751918 0.00010924164,0.870751918 0.00010924164,1.00075192 L0.00010924164,6.00075192 C0.00010924164,6.55375192 0.447109242,7.00075192 1.00010924,7.00075192" id="Fill-352" transform="translate(3.500109, 3.500752) scale(-1, -1) translate(-3.500109, -3.500752) "></path>
            <path d="M25.0001092,19.0007519 C24.4471092,19.0007519 24.0001092,19.4477519 24.0001092,20.0007519 L24.0001092,22.5857519 L21.7071092,20.2917519 C21.3161092,19.9007519 20.6841092,19.9007519 20.2931092,20.2917519 C19.9021092,20.6827519 19.9021092,21.3147519 20.2931092,21.7057519 L22.5871092,24.0007519 L20.0001092,24.0007519 C19.4471092,24.0007519 19.0001092,24.4477519 19.0001092,25.0007519 C19.0001092,25.5537519 19.4471092,26.0007519 20.0001092,26.0007519 L25.0001092,26.0007519 C25.1301092,26.0007519 25.2601092,25.9747519 25.3821092,25.9237519 C25.6271092,25.8217519 25.8211092,25.6277519 25.9231092,25.3827519 C25.9741092,25.2607519 26.0001092,25.1307519 26.0001092,25.0007519 L26.0001092,20.0007519 C26.0001092,19.4477519 25.5531092,19.0007519 25.0001092,19.0007519" id="Fill-353" transform="translate(22.500109, 22.500752) scale(-1, -1) translate(-22.500109, -22.500752) "></path>
            <path d="M16.9997092,17.0006519 L8.99970924,17.0006519 L8.99970924,9.00065192 L16.9997092,9.00065192 L16.9997092,17.0006519 Z M18.9997092,18.0006519 L18.9997092,8.00065192 C18.9997092,7.44765192 18.5527092,7.00065192 17.9997092,7.00065192 L7.99970924,7.00065192 C7.44770924,7.00065192 6.99970924,7.44765192 6.99970924,8.00065192 L6.99970924,18.0006519 C6.99970924,18.5536519 7.44770924,19.0006519 7.99970924,19.0006519 L17.9997092,19.0006519 C18.5527092,19.0006519 18.9997092,18.5536519 18.9997092,18.0006519 L18.9997092,18.0006519 Z" id="Fill-354"></path>
        </g>
    </g>
</svg>