<?xml version="1.0" encoding="UTF-8"?>
<svg width="95px" height="85px" viewBox="0 0 95 85" version="1.1" xmlns="http://www.w3.org/2000/svg" xmlns:xlink="http://www.w3.org/1999/xlink">
    <!-- Generator: Sketch 49.3 (51167) - http://www.bohemiancoding.com/sketch -->
    <title>Icon/Empty State/MissingAssets/Dark</title>
    <desc>Created with Sketch.</desc>
    <defs>
        <path d="M0.445,37.5 C0.445,58.211 17.234,75.001 37.945,75.001 C58.656,75.001 75.445,58.211 75.445,37.5 C75.445,16.789 58.656,0 37.945,0 C17.234,0 0.445,16.789 0.445,37.5 Z" id="path-1"></path>
    </defs>
    <g id="Icon/Empty-State/MissingAssets/Dark" stroke="none" stroke-width="1" fill="none" fill-rule="evenodd">
        <g id="Page-1">
            <g id="Group-3" transform="translate(8.000000, 7.082200)">
                <mask id="mask-2" fill="white">
                    <use xlink:href="#path-1"></use>
                </mask>
                <g id="Clip-2"></g>
                <polygon id="Fill-1" fill="#3C444D" mask="url(#mask-2)" points="-4.555 80 80.445 80 80.445 -5 -4.555 -5"></polygon>
            </g>
            <g id="Group-22" transform="translate(0.000000, 0.082200)">
                <path d="M78.1373,77.1667 C79.5173,77.1667 80.6373,76.0477 80.6373,74.6667 C80.6373,73.2857 79.5173,72.1667 78.1373,72.1667 C76.7563,72.1667 75.6373,73.2857 75.6373,74.6667 C75.6373,76.0477 76.7563,77.1667 78.1373,77.1667 Z" id="Stroke-4" stroke="#818D99"></path>
                <path d="M2.4166,31.1843 C3.4746,31.1843 4.3326,30.3263 4.3326,29.2683 C4.3326,28.2103 3.4746,27.3523 2.4166,27.3523 C1.3576,27.3523 0.4996,28.2103 0.4996,29.2683 C0.4996,30.3263 1.3576,31.1843 2.4166,31.1843 Z" id="Stroke-6" stroke="#818D99"></path>
                <path d="M62.0914,5.4973 C63.4934,5.4973 64.6304,4.3603 64.6304,2.9573 C64.6304,1.5553 63.4934,0.4173 62.0914,0.4173 C60.6884,0.4173 59.5514,1.5553 59.5514,2.9573 C59.5514,4.3603 60.6884,5.4973 62.0914,5.4973 Z" id="Stroke-8" stroke="#818D99"></path>
                <path d="M92.2145,50.4084 C93.0065,50.4084 93.6495,49.7654 93.6495,48.9734 C93.6495,48.1804 93.0065,47.5374 92.2145,47.5374 C91.4215,47.5374 90.7785,48.1804 90.7785,48.9734 C90.7785,49.7654 91.4215,50.4084 92.2145,50.4084 Z" id="Stroke-10" stroke="#818D99"></path>
                <path d="M62.8815,45.9255 C64.0975,46.4015 65.3025,46.3785 66.4975,45.8555 C67.6925,45.3325 68.5275,44.4635 69.0025,43.2475 C69.4795,42.0325 69.4545,40.8275 68.9325,39.6335 C68.4095,38.4375 67.5405,37.6025 66.3255,37.1275 C65.1105,36.6515 63.9045,36.6755 62.7105,37.1975 C61.5155,37.7205 60.6805,38.5895 60.2035,39.8045 C59.7285,41.0195 59.7525,42.2255 60.2755,43.4205 C60.7975,44.6145 61.6665,45.4505 62.8815,45.9255 M72.1275,53.7065 L68.3735,55.3485 C68.2385,55.4075 68.0885,55.4195 67.9255,55.3835 C67.7625,55.3475 67.6395,55.2665 67.5585,55.1415 L65.7165,52.2205 C65.0135,52.2725 64.4035,52.2775 63.8885,52.2345 C63.4975,52.8755 62.9845,53.8185 62.3465,55.0645 C62.2605,55.2365 62.1445,55.3545 61.9975,55.4185 C61.8515,55.4825 61.6995,55.4885 61.5425,55.4365 C60.9915,55.3145 60.1395,55.0225 58.9845,54.5605 C57.8275,54.0995 57.1965,53.7445 57.0885,53.4965 C57.0285,53.3615 57.0155,53.1935 57.0485,52.9905 L57.8535,49.8585 C57.3765,49.4755 56.9385,49.0565 56.5375,48.6005 C54.9255,49.0905 53.8055,49.3855 53.1775,49.4855 C52.8275,49.5445 52.5805,49.4105 52.4385,49.0845 L50.7955,45.3305 C50.7275,45.1725 50.7145,45.0135 50.7585,44.8535 C50.8025,44.6935 50.8955,44.5745 51.0365,44.4995 L53.9415,42.6655 C53.8795,42.0335 53.8665,41.4355 53.9015,40.8695 L51.0495,39.2775 C50.8985,39.2085 50.7855,39.0895 50.7115,38.9205 C50.6425,38.7625 50.6435,38.5945 50.7125,38.4165 C51.3765,36.4345 51.9165,35.0905 52.3335,34.3835 C52.4105,34.2565 52.5245,34.1595 52.6705,34.0955 C52.8055,34.0365 52.9545,34.0245 53.1185,34.0605 C53.4295,34.1255 53.9295,34.2495 54.6195,34.4305 C55.3105,34.6125 55.8415,34.7435 56.2115,34.8225 C56.6425,34.2715 57.0995,33.7965 57.5825,33.3965 L56.6855,30.1025 C56.6435,29.9465 56.6625,29.7975 56.7405,29.6555 C56.8195,29.5125 56.9335,29.4105 57.0795,29.3465 L60.8335,27.7035 C60.9685,27.6445 61.1175,27.6335 61.2815,27.6695 C61.4445,27.7045 61.5655,27.7795 61.6425,27.8945 L63.4915,30.8325 C64.0785,30.7625 64.6935,30.7565 65.3355,30.8115 C65.7805,30.0795 66.2945,29.1355 66.8775,27.9815 C66.9635,27.8095 67.0735,27.6935 67.2095,27.6345 C67.3215,27.5855 67.4735,27.5795 67.6645,27.6165 C68.1985,27.7325 69.0475,28.0225 70.2115,28.4875 C71.3745,28.9515 72.0105,29.3075 72.1185,29.5565 C72.1835,29.7025 72.1915,29.8735 72.1425,30.0705 L71.3545,33.1945 C71.8295,33.5775 72.2695,33.9965 72.6695,34.4525 C74.2805,33.9625 75.4015,33.6665 76.0285,33.5675 C76.3795,33.5085 76.6255,33.6415 76.7695,33.9685 L78.4105,37.7225 C78.4805,37.8805 78.4925,38.0395 78.4485,38.1995 C78.4045,38.3595 78.3125,38.4775 78.1705,38.5525 L75.2665,40.3875 C75.3265,41.0185 75.3405,41.6175 75.3065,42.1835 L78.1655,43.7925 C78.3115,43.8495 78.4215,43.9635 78.4955,44.1325 C78.5595,44.2785 78.5655,44.4445 78.5115,44.6285 C77.8055,46.6705 77.2545,48.0185 76.8575,48.6765 C76.8015,48.7945 76.6945,48.8885 76.5365,48.9575 C76.4025,49.0165 76.2525,49.0285 76.0885,48.9915 C75.7775,48.9265 75.2775,48.8025 74.5875,48.6215 C73.8965,48.4405 73.3655,48.3105 72.9955,48.2305 C72.5605,48.7695 72.1095,49.2425 71.6425,49.6485 L72.5225,52.9495 C72.5635,53.1065 72.5445,53.2555 72.4655,53.3975 C72.3875,53.5395 72.2745,53.6425 72.1275,53.7065" id="Fill-12" fill="#5C6773"></path>
                <path d="M62.8815,45.9255 C64.0975,46.4015 65.3025,46.3785 66.4975,45.8555 C67.6925,45.3325 68.5275,44.4635 69.0025,43.2475 C69.4795,42.0325 69.4545,40.8275 68.9325,39.6335 C68.4095,38.4375 67.5405,37.6025 66.3255,37.1275 C65.1105,36.6515 63.9045,36.6755 62.7105,37.1975 C61.5155,37.7205 60.6805,38.5895 60.2035,39.8045 C59.7285,41.0195 59.7525,42.2255 60.2755,43.4205 C60.7975,44.6145 61.6665,45.4505 62.8815,45.9255 Z M72.1275,53.7065 L68.3735,55.3485 C68.2385,55.4075 68.0885,55.4195 67.9255,55.3835 C67.7625,55.3475 67.6395,55.2665 67.5585,55.1415 L65.7165,52.2205 C65.0135,52.2725 64.4035,52.2775 63.8885,52.2345 C63.4975,52.8755 62.9845,53.8185 62.3465,55.0645 C62.2605,55.2365 62.1445,55.3545 61.9975,55.4185 C61.8515,55.4825 61.6995,55.4885 61.5425,55.4365 C60.9915,55.3145 60.1395,55.0225 58.9845,54.5605 C57.8275,54.0995 57.1965,53.7445 57.0885,53.4965 C57.0285,53.3615 57.0155,53.1935 57.0485,52.9905 L57.8535,49.8585 C57.3765,49.4755 56.9385,49.0565 56.5375,48.6005 C54.9255,49.0905 53.8055,49.3855 53.1775,49.4855 C52.8275,49.5445 52.5805,49.4105 52.4385,49.0845 L50.7955,45.3305 C50.7275,45.1725 50.7145,45.0135 50.7585,44.8535 C50.8025,44.6935 50.8955,44.5745 51.0365,44.4995 L53.9415,42.6655 C53.8795,42.0335 53.8665,41.4355 53.9015,40.8695 L51.0495,39.2775 C50.8985,39.2085 50.7855,39.0895 50.7115,38.9205 C50.6425,38.7625 50.6435,38.5945 50.7125,38.4165 C51.3765,36.4345 51.9165,35.0905 52.3335,34.3835 C52.4105,34.2565 52.5245,34.1595 52.6705,34.0955 C52.8055,34.0365 52.9545,34.0245 53.1185,34.0605 C53.4295,34.1255 53.9295,34.2495 54.6195,34.4305 C55.3105,34.6125 55.8415,34.7435 56.2115,34.8225 C56.6425,34.2715 57.0995,33.7965 57.5825,33.3965 L56.6855,30.1025 C56.6435,29.9465 56.6625,29.7975 56.7405,29.6555 C56.8195,29.5125 56.9335,29.4105 57.0795,29.3465 L60.8335,27.7035 C60.9685,27.6445 61.1175,27.6335 61.2815,27.6695 C61.4445,27.7045 61.5655,27.7795 61.6425,27.8945 L63.4915,30.8325 C64.0785,30.7625 64.6935,30.7565 65.3355,30.8115 C65.7805,30.0795 66.2945,29.1355 66.8775,27.9815 C66.9635,27.8095 67.0735,27.6935 67.2095,27.6345 C67.3215,27.5855 67.4735,27.5795 67.6645,27.6165 C68.1985,27.7325 69.0475,28.0225 70.2115,28.4875 C71.3745,28.9515 72.0105,29.3075 72.1185,29.5565 C72.1835,29.7025 72.1915,29.8735 72.1425,30.0705 L71.3545,33.1945 C71.8295,33.5775 72.2695,33.9965 72.6695,34.4525 C74.2805,33.9625 75.4015,33.6665 76.0285,33.5675 C76.3795,33.5085 76.6255,33.6415 76.7695,33.9685 L78.4105,37.7225 C78.4805,37.8805 78.4925,38.0395 78.4485,38.1995 C78.4045,38.3595 78.3125,38.4775 78.1705,38.5525 L75.2665,40.3875 C75.3265,41.0185 75.3405,41.6175 75.3065,42.1835 L78.1655,43.7925 C78.3115,43.8495 78.4215,43.9635 78.4955,44.1325 C78.5595,44.2785 78.5655,44.4445 78.5115,44.6285 C77.8055,46.6705 77.2545,48.0185 76.8575,48.6765 C76.8015,48.7945 76.6945,48.8885 76.5365,48.9575 C76.4025,49.0165 76.2525,49.0285 76.0885,48.9915 C75.7775,48.9265 75.2775,48.8025 74.5875,48.6215 C73.8965,48.4405 73.3655,48.3105 72.9955,48.2305 C72.5605,48.7695 72.1095,49.2425 71.6425,49.6485 L72.5225,52.9495 C72.5635,53.1065 72.5445,53.2555 72.4655,53.3975 C72.3875,53.5395 72.2745,53.6425 72.1275,53.7065 Z" id="Stroke-14" stroke="#818D99"></path>
                <path d="M39.1276,26.5895 C39.9466,26.9105 40.7596,26.8945 41.5646,26.5425 C42.3686,26.1905 42.9326,25.6045 43.2526,24.7855 C43.5726,23.9665 43.5576,23.1545 43.2046,22.3495 C42.8536,21.5445 42.2676,20.9815 41.4476,20.6605 C40.6296,20.3405 39.8166,20.3565 39.0126,20.7085 C38.2066,21.0605 37.6446,21.6465 37.3236,22.4645 C37.0026,23.2835 37.0196,24.0955 37.3716,24.9015 C37.7236,25.7065 38.3096,26.2695 39.1276,26.5895 M45.3576,31.8325 L42.8286,32.9395 C42.7366,32.9785 42.6366,32.9865 42.5266,32.9625 C42.4166,32.9385 42.3336,32.8835 42.2786,32.7995 L41.0376,30.8315 C40.5646,30.8655 40.1536,30.8695 39.8066,30.8405 C39.5426,31.2725 39.1966,31.9075 38.7676,32.7475 C38.7096,32.8625 38.6306,32.9425 38.5316,32.9855 C38.4336,33.0285 38.3306,33.0335 38.2256,32.9985 C37.8546,32.9155 37.2796,32.7195 36.5016,32.4085 C35.7226,32.0975 35.2966,31.8585 35.2246,31.6915 C35.1846,31.5995 35.1756,31.4865 35.1966,31.3505 L35.7396,29.2395 C35.4186,28.9815 35.1226,28.6985 34.8536,28.3915 C33.7676,28.7225 33.0126,28.9215 32.5896,28.9885 C32.3536,29.0275 32.1876,28.9385 32.0906,28.7175 L30.9836,26.1885 C30.9376,26.0825 30.9296,25.9745 30.9586,25.8665 C30.9886,25.7585 31.0516,25.6795 31.1466,25.6285 L33.1036,24.3925 C33.0626,23.9665 33.0536,23.5635 33.0766,23.1825 L31.1546,22.1095 C31.0536,22.0635 30.9776,21.9835 30.9276,21.8695 C30.8806,21.7625 30.8806,21.6505 30.9286,21.5295 C31.3756,20.1935 31.7386,19.2885 32.0206,18.8125 C32.0726,18.7265 32.1486,18.6615 32.2466,18.6175 C32.3386,18.5785 32.4386,18.5695 32.5496,18.5945 C32.7586,18.6385 33.0956,18.7215 33.5616,18.8435 C34.0256,18.9665 34.3836,19.0545 34.6336,19.1075 C34.9236,18.7365 35.2316,18.4165 35.5576,18.1475 L34.9526,15.9275 C34.9246,15.8215 34.9376,15.7215 34.9896,15.6265 C35.0436,15.5295 35.1196,15.4615 35.2186,15.4175 L37.7476,14.3115 C37.8386,14.2715 37.9396,14.2635 38.0496,14.2875 C38.1596,14.3115 38.2406,14.3625 38.2926,14.4395 L39.5386,16.4195 C39.9346,16.3725 40.3486,16.3675 40.7806,16.4045 C41.0806,15.9115 41.4276,15.2765 41.8196,14.4975 C41.8786,14.3815 41.9526,14.3045 42.0436,14.2645 C42.1196,14.2315 42.2226,14.2275 42.3516,14.2525 C42.7106,14.3305 43.2826,14.5255 44.0666,14.8385 C44.8506,15.1515 45.2786,15.3915 45.3526,15.5595 C45.3956,15.6575 45.4006,15.7735 45.3676,15.9055 L44.8366,18.0105 C45.1576,18.2685 45.4526,18.5505 45.7236,18.8585 C46.8096,18.5275 47.5646,18.3295 47.9866,18.2615 C48.2236,18.2215 48.3896,18.3115 48.4856,18.5325 L49.5926,21.0615 C49.6386,21.1685 49.6476,21.2755 49.6166,21.3835 C49.5876,21.4915 49.5246,21.5705 49.4296,21.6215 L47.4736,22.8585 C47.5136,23.2825 47.5236,23.6865 47.4996,24.0675 L49.4266,25.1525 C49.5246,25.1915 49.5996,25.2665 49.6486,25.3815 C49.6916,25.4795 49.6956,25.5915 49.6596,25.7155 C49.1846,27.0905 48.8136,28.0005 48.5446,28.4435 C48.5076,28.5225 48.4356,28.5865 48.3286,28.6325 C48.2376,28.6725 48.1376,28.6805 48.0266,28.6555 C47.8176,28.6115 47.4806,28.5285 47.0156,28.4065 C46.5496,28.2835 46.1926,28.1955 45.9426,28.1425 C45.6486,28.5065 45.3456,28.8245 45.0306,29.0975 L45.6236,31.3225 C45.6506,31.4275 45.6396,31.5285 45.5856,31.6245 C45.5326,31.7195 45.4566,31.7895 45.3576,31.8325" id="Fill-16" fill="#C3CBD4"></path>
                <path d="M32.5787,66.2336 C34.0667,64.7456 34.8107,62.9496 34.8107,60.8456 C34.8107,58.7436 34.0667,56.9466 32.5787,55.4586 C31.0907,53.9706 29.2947,53.2266 27.1917,53.2266 C25.0887,53.2266 23.2917,53.9706 21.8047,55.4586 C20.3157,56.9466 19.5717,58.7436 19.5717,60.8456 C19.5717,62.9496 20.3157,64.7456 21.8047,66.2336 C23.2917,67.7216 25.0887,68.4656 27.1917,68.4656 C29.2947,68.4656 31.0907,67.7216 32.5787,66.2336 M50.0507,57.6016 L50.0507,64.2096 C50.0507,64.4476 49.9707,64.6756 49.8117,64.8946 C49.6527,65.1126 49.4547,65.2416 49.2167,65.2806 L43.7107,66.1146 C43.3327,67.1866 42.9467,68.0886 42.5497,68.8226 C43.2437,69.8156 44.3067,71.1846 45.7347,72.9306 C45.9327,73.1686 46.0317,73.4176 46.0317,73.6746 C46.0317,73.9326 45.9427,74.1606 45.7647,74.3586 C45.2277,75.0936 44.2467,76.1656 42.8167,77.5736 C41.3887,78.9826 40.4567,79.6876 40.0197,79.6876 C39.7817,79.6876 39.5237,79.5976 39.2467,79.4196 L35.1387,76.2046 C34.2657,76.6616 33.3627,77.0386 32.4307,77.3356 C32.1127,80.0336 31.8247,81.8796 31.5657,82.8716 C31.4277,83.4266 31.0697,83.7056 30.4947,83.7056 L23.8877,83.7056 C23.6097,83.7056 23.3667,83.6206 23.1577,83.4516 C22.9497,83.2836 22.8357,83.0696 22.8157,82.8126 L21.9827,77.3356 C21.0097,77.0186 20.1167,76.6506 19.3037,76.2346 L15.1067,79.4196 C14.9087,79.5976 14.6597,79.6876 14.3627,79.6876 C14.0847,79.6876 13.8377,79.5786 13.6187,79.3596 C11.1187,77.0976 9.4817,75.4306 8.7077,74.3586 C8.5687,74.1606 8.4997,73.9326 8.4997,73.6746 C8.4997,73.4366 8.5787,73.2086 8.7377,72.9896 C9.0347,72.5726 9.5417,71.9136 10.2557,71.0106 C10.9697,70.1086 11.5057,69.4086 11.8617,68.9126 C11.3267,67.9206 10.9197,66.9386 10.6417,65.9656 L5.1947,65.1616 C4.9367,65.1226 4.7277,64.9986 4.5697,64.7896 C4.4107,64.5816 4.3327,64.3486 4.3327,64.0906 L4.3327,57.4826 C4.3327,57.2446 4.4107,57.0166 4.5697,56.7976 C4.7277,56.5796 4.9177,56.4516 5.1367,56.4106 L10.6727,55.5776 C10.9497,54.6656 11.3367,53.7526 11.8327,52.8396 C11.0397,51.7086 9.9767,50.3386 8.6477,48.7326 C8.4497,48.4936 8.3497,48.2556 8.3497,48.0176 C8.3497,47.8196 8.4387,47.5916 8.6177,47.3336 C9.1337,46.6186 10.1107,45.5516 11.5497,44.1336 C12.9887,42.7146 13.9267,42.0046 14.3627,42.0046 C14.6207,42.0046 14.8787,42.1046 15.1377,42.3026 L19.2437,45.4876 C20.1167,45.0316 21.0197,44.6536 21.9527,44.3566 C22.2697,41.6586 22.5577,39.8126 22.8157,38.8196 C22.9547,38.2656 23.3107,37.9866 23.8877,37.9866 L30.4947,37.9866 C30.7727,37.9866 31.0167,38.0716 31.2247,38.2396 C31.4327,38.4086 31.5467,38.6226 31.5657,38.8796 L32.3997,44.3566 C33.3717,44.6746 34.2657,45.0416 35.0787,45.4576 L39.3057,42.2736 C39.4837,42.0946 39.7227,42.0046 40.0197,42.0046 C40.2777,42.0046 40.5257,42.1046 40.7637,42.3026 C43.3237,44.6646 44.9607,46.3506 45.6757,47.3626 C45.8127,47.5216 45.8837,47.7396 45.8837,48.0176 C45.8837,48.2556 45.8047,48.4836 45.6447,48.7026 C45.3477,49.1186 44.8417,49.7786 44.1277,50.6816 C43.4127,51.5846 42.8777,52.2836 42.5197,52.7796 C43.0357,53.7726 43.4427,54.7446 43.7407,55.6966 L49.1867,56.5306 C49.4447,56.5696 49.6527,56.6936 49.8117,56.9016 C49.9707,57.1106 50.0507,57.3446 50.0507,57.6016" id="Fill-18" fill="#818D99"></path>
            </g>
        </g>
    </g>
</svg>