<?xml version="1.0" encoding="UTF-8"?>
<svg width="29px" height="29px" viewBox="0 0 29 29" version="1.1" xmlns="http://www.w3.org/2000/svg" xmlns:xlink="http://www.w3.org/1999/xlink">
    <defs></defs>
    <g id="Page-1" stroke="none" stroke-width="1" fill="none" fill-rule="evenodd">
        <g id="Group">
            <circle id="Oval-2-Copy-4" fill="#FFFFFF" cx="14.5" cy="14.5" r="14.5"></circle>
            <path d="M20.2879611,10.3236492 L17.6763508,7.71203892 C17.3666406,7.40232873 16.7472202,7.14284182 16.3035813,7.14284182 L8.80357239,7.14284182 C8.35993346,7.14284182 8,7.50277528 8,7.9464142 L8,21.3392873 C8,21.7829262 8.35993346,22.1428597 8.80357239,22.1428597 L20.0535858,22.1428597 C20.4972247,22.1428597 20.8571582,21.7829262 20.8571582,21.3392873 L20.8571582,11.6964187 C20.8571582,11.2527798 20.5976713,10.6333594 20.2879611,10.3236492 Z M16.5714388,8.28123603 C16.7137381,8.3314593 16.8560373,8.40679422 16.9146312,8.46538804 L19.534612,11.0853688 C19.5932058,11.1439627 19.6685407,11.2862619 19.718764,11.4285612 L16.5714388,11.4285612 L16.5714388,8.28123603 Z M19.7857283,21.0714298 L9.07142985,21.0714298 L9.07142985,8.21427166 L15.5000089,8.21427166 L15.5000089,11.6964187 C15.5000089,12.1400576 15.8599424,12.4999911 16.3035813,12.4999911 L19.7857283,12.4999911 L19.7857283,21.0714298 Z M11.2142895,13.8392784 L11.2142895,14.3749933 C11.2142895,14.5256631 11.3314772,14.6428508 11.482147,14.6428508 L17.3750112,14.6428508 C17.525681,14.6428508 17.6428686,14.5256631 17.6428686,14.3749933 L17.6428686,13.8392784 C17.6428686,13.6886085 17.525681,13.5714209 17.3750112,13.5714209 L11.482147,13.5714209 C11.3314772,13.5714209 11.2142895,13.6886085 11.2142895,13.8392784 Z M17.3750112,15.7142806 L11.482147,15.7142806 C11.3314772,15.7142806 11.2142895,15.8314682 11.2142895,15.9821381 L11.2142895,16.517853 C11.2142895,16.6685228 11.3314772,16.7857105 11.482147,16.7857105 L17.3750112,16.7857105 C17.525681,16.7857105 17.6428686,16.6685228 17.6428686,16.517853 L17.6428686,15.9821381 C17.6428686,15.8314682 17.525681,15.7142806 17.3750112,15.7142806 Z M17.3750112,17.8571403 L11.482147,17.8571403 C11.3314772,17.8571403 11.2142895,17.9743279 11.2142895,18.1249978 L11.2142895,18.6607127 C11.2142895,18.8113825 11.3314772,18.9285702 11.482147,18.9285702 L17.3750112,18.9285702 C17.525681,18.9285702 17.6428686,18.8113825 17.6428686,18.6607127 L17.6428686,18.1249978 C17.6428686,17.9743279 17.525681,17.8571403 17.3750112,17.8571403 Z" id="-copy-4" fill="#5A3C8D"></path>
        </g>
    </g>
</svg>
