<?xml version="1.0" encoding="UTF-8"?>
<svg width="66px" height="47px" viewBox="0 0 66 47" version="1.1" xmlns="http://www.w3.org/2000/svg" xmlns:xlink="http://www.w3.org/1999/xlink">
    <!-- Generator: Sketch 49.3 (51167) - http://www.bohemiancoding.com/sketch -->
    <title>COA/Icon/ExecuteActions Copy 2</title>
    <desc>Created with Sketch.</desc>
    <defs>
        <rect id="path-1" x="0" y="0" width="63.6100006" height="44.4916682" rx="2"></rect>
    </defs>
    <g id="Symbols" stroke="none" stroke-width="1" fill="none" fill-rule="evenodd">
        <g id="COA---Block-Selector---Dark-2" transform="translate(-143.000000, -109.000000)">
            <g id="COA/Icon/ExecuteActions-Copy-2" transform="translate(144.000000, 110.000000)">
                <g id="Rectangle-Copy-69">
                    <use fill="#000000" fill-rule="evenodd" xlink:href="#path-1"></use>
                    <rect stroke="#5C6773" stroke-width="1" x="-0.5" y="-0.5" width="64.6100006" height="45.4916682" rx="2"></rect>
                </g>
                <g id="Icon/Playbook-Copy" transform="translate(15.000000, 12.000000)" fill="#818D99" fill-rule="nonzero">
                    <path d="M27.1079676,8.26661498 L27.1079676,5.49532313 L16.9146662,5.49532313 L16.9146662,8.26661498 L27.1079676,8.26661498 Z M14.9146662,8 L12.1920043,8 L12.1920043,6 L14.9146662,6 L14.9146662,4.49532313 C14.9146662,3.94303838 15.3623815,3.49532313 15.9146662,3.49532313 L28.1079676,3.49532313 C28.6602524,3.49532313 29.1079676,3.94303838 29.1079676,4.49532313 L29.1079676,9.26661498 C29.1079676,9.81889973 28.6602524,10.266615 28.1079676,10.266615 L15.9146662,10.266615 C15.3623815,10.266615 14.9146662,9.81889973 14.9146662,9.26661498 L14.9146662,8 Z" id="Combined-Shape"></path>
                    <path d="M27.1079676,15.4716606 L16.9146662,15.4716606 L16.9146662,18.2429525 L27.1079676,18.2429525 L27.1079676,15.4716606 Z M14.9146662,17.4804085 L9.41479763,17.4804085 C7.75794338,17.4804085 6.41479763,16.1372627 6.41479763,14.4804085 L6.41479763,11.1472973 L8.41479763,11.1472973 L8.41479763,14.4804085 C8.41479763,15.0326932 8.86251288,15.4804085 9.41479763,15.4804085 L14.9146662,15.4804085 L14.9146662,14.4716606 C14.9146662,13.9193759 15.3623815,13.4716606 15.9146662,13.4716606 L28.1079676,13.4716606 C28.6602524,13.4716606 29.1079676,13.9193759 29.1079676,14.4716606 L29.1079676,19.2429525 C29.1079676,19.7952372 28.6602524,20.2429525 28.1079676,20.2429525 L15.9146662,20.2429525 C15.3623815,20.2429525 14.9146662,19.7952372 14.9146662,19.2429525 L14.9146662,17.4804085 Z" id="Combined-Shape"></path>
                    <path d="M3.48516541,6.80902099 L7.43443355,10.7582891 L11.3536321,6.83909063 L7.40436392,2.88982248 L3.48516541,6.80902099 Z M7.40436392,0.0613953538 L14.1820592,6.83909063 L7.43443355,13.5867163 L0.656738281,6.80902099 L7.40436392,0.0613953538 Z" id="Rectangle-330"></path>
                </g>
            </g>
        </g>
    </g>
</svg>