<?xml version="1.0" encoding="UTF-8"?>
<svg width="65px" height="65px" viewBox="0 0 65 65" version="1.1" xmlns="http://www.w3.org/2000/svg" xmlns:xlink="http://www.w3.org/1999/xlink">
    <!-- Generator: Sketch 49.3 (51167) - http://www.bohemiancoding.com/sketch -->
    <title>COA/Icon/ProcessFilter Copy</title>
    <desc>Created with Sketch.</desc>
    <defs>
        <rect id="path-1" x="9.30221256" y="9.30221256" width="44.9150554" height="44.9150554" rx="2"></rect>
        <path d="M23.2129749,5.07045188 C23.1758686,4.95775869 23.1305165,4.85056273 23.065924,4.75436123 C23.0645497,4.7502383 20.3200583,0.614947967 20.3200583,0.614947967 C19.9008946,-0.0186076478 19.0474498,-0.190396047 18.4152685,0.230141954 C17.7830872,0.649305647 17.6112988,1.50275041 18.0304625,2.13493172 L19.3539203,4.12630284 C19.3539203,4.12630284 16.4005342,4.12355423 16.3950369,4.12355423 C14.9659305,4.12355423 13.8216273,4.43333458 12.878106,4.92558161 C11.0751035,5.86623089 10.0052861,7.47318476 9.08234837,8.8580425 C7.82485729,10.7477149 6.80786997,10.8865199 4.32999411,10.9950902 C4.2324183,10.9909673 1.29414952,10.9950902 1.29414952,10.9950902 C0.535531951,10.9950902 0,11.6011593 0,12.3611512 C0,13.1211431 0.535531951,13.7437046 1.29414952,13.7437046 C1.29414952,13.7437046 4.32999411,13.7492018 4.46467621,13.7437046 C6.84635057,13.9072471 7.84134898,14.0048229 9.07822545,15.8642606 C10.4868903,17.9765707 12.2377577,20.6069947 16.4101543,20.6152405 L19.3126911,20.6152405 L17.9864847,22.5983658 C17.563198,23.2291728 17.7322378,24.0826176 18.3630448,24.5059042 C18.5980514,24.6625752 18.8632927,24.7381621 19.1271596,24.7381621 C19.5696865,24.7381621 20.0067162,24.5237702 20.2705832,24.129344 L23.0233205,20.0160426 C23.0961588,19.906098 23.1428852,19.7975277 23.1813658,19.6834602 C23.190986,19.6573484 23.1992318,19.6298623 23.2074777,19.6023761 C23.2363381,19.4910572 23.258327,19.3742411 23.2597014,19.2533021 C23.2597014,19.1254915 23.2377124,19.0086754 23.208852,18.8959822 C23.2006061,18.8671218 23.1923603,18.8396356 23.1813658,18.8107752 C23.1456339,18.7008306 23.0989074,18.5963833 23.0370636,18.5015561 C23.034315,18.4974331 20.2898235,14.3580199 20.2898235,14.3580199 C19.8692855,13.7244643 18.9938518,13.5582478 18.3630448,13.9801601 C17.7294892,14.3993238 17.5796897,15.2458223 17.9988534,15.8780036 L19.3209369,17.8693747 L16.4142772,17.8666261 C13.711015,17.8611289 12.4722464,15.8780033 11.3664469,14.3401539 C10.5686619,13.2306641 9.7571332,13.3080492 8.49002197,12.3611515 C9.75988182,11.4183768 10.5690783,11.4918006 11.3705698,10.3835235 C12.4757655,8.85529405 13.7068921,6.87216861 16.3964112,6.87216861 L19.3443002,6.87216861 L18.0167194,8.85529388 C17.5961814,9.48610088 17.7652212,10.3395457 18.3960282,10.7628323 C18.6310347,10.9195033 18.896276,10.9950902 19.1573944,10.9950902 C19.6026699,10.9950902 20.036951,10.7806983 20.300818,10.3862721 L23.0549296,6.27297067 C23.1263936,6.1630261 23.1744943,6.05445583 23.2129749,5.94038833 C23.2212208,5.9142765 23.2308409,5.88679035 23.2377124,5.85930421 C23.2693215,5.74798533 23.2899361,5.63116921 23.2899361,5.50885587 C23.2913104,5.38241961 23.2706958,5.26422919 23.2404611,5.151536 C23.2322152,5.12404986 23.2239694,5.09656372 23.2129749,5.07045188 Z" id="path-2"></path>
    </defs>
    <g id="Symbols" stroke="none" stroke-width="1" fill="none" fill-rule="evenodd">
        <g id="COA---Block-Selector---Light" transform="translate(-144.000000, -234.000000)">
            <g id="COA/Icon/ProcessFilter-Copy" transform="translate(145.000000, 235.000000)">
                <g id="Rectangle-Copy-66" transform="translate(31.759740, 31.759740) rotate(-45.000000) translate(-31.759740, -31.759740) ">
                    <use fill="#FFFFFF" fill-rule="evenodd" xlink:href="#path-1"></use>
                    <rect stroke="#818D99" stroke-width="1" x="8.80221256" y="8.80221256" width="45.9150554" height="45.9150554" rx="2"></rect>
                </g>
                <g id="Color/SplunkGrey45-#5C6773" transform="translate(17.000000, 20.000000)">
                    <mask id="mask-3" fill="white">
                        <use xlink:href="#path-2"></use>
                    </mask>
                    <use id="Mask" fill="#818D99" xlink:href="#path-2"></use>
                </g>
            </g>
        </g>
    </g>
</svg>