<?xml version="1.0" encoding="UTF-8"?>
<svg width="67px" height="48px" viewBox="0 0 67 48" version="1.1" xmlns="http://www.w3.org/2000/svg" xmlns:xlink="http://www.w3.org/1999/xlink">
    <!-- Generator: Sketch 49.3 (51167) - http://www.bohemiancoding.com/sketch -->
    <title>COA/Icon/ProcessFilter Copy 2</title>
    <desc>Created with Sketch.</desc>
    <defs>
        <rect id="path-1" x="0.302212555" y="0.302212555" width="64" height="45" rx="2"></rect>
        <path d="M6.99377123,26 C5.30067104,25.5128574 4.0959832,24.7378694 3.37967157,23.6750128 C2.66335995,22.6121562 2.30520951,21.3234618 2.30520951,19.8088912 L2.30520951,17.111906 C2.30520951,16.2350493 2.11636655,15.5530598 1.73867497,15.0659172 C1.36098339,14.5787746 0.781430861,14.3352069 0,14.3352069 L0,11.6647931 C0.781430861,11.6647931 1.36098339,11.4234396 1.73867497,10.9407256 C2.11636655,10.4580116 2.30520951,9.76937937 2.30520951,8.87480838 L2.30520951,6.1778232 C2.30520951,4.66325252 2.66335995,3.37677245 3.37967157,2.3183444 C4.0959832,1.25991636 5.30067104,0.487142616 6.99377123,0 L7.72310306,2.08584568 C6.98508502,2.36041697 6.46413893,2.84976654 6.16024915,3.55390904 C5.85635937,4.25805155 5.70441676,5.13268086 5.70441676,6.1778232 L5.70441676,8.87480838 C5.70441676,9.79595078 5.51123258,10.6130096 5.12485844,11.3260092 C4.73848429,12.0390088 4.15459054,12.5947859 3.37315968,12.9933572 C4.15459054,13.4096427 4.73848429,13.9742768 5.12485844,14.6872764 C5.51123258,15.4002761 5.70441676,16.2084779 5.70441676,17.111906 L5.70441676,19.8088912 C5.70441676,20.8540335 5.85635937,21.7286628 6.16024915,22.4328053 C6.46413893,23.1369478 6.98508502,23.6262974 7.72310306,23.9008687 L6.99377123,26 Z M15.2638732,23.9008687 C16.0018912,23.6262974 16.5228373,23.1369478 16.8267271,22.4328053 C17.1306168,21.7286628 17.2825595,20.8540335 17.2825595,19.8088912 L17.2825595,17.111906 C17.2825595,16.1907636 17.4822555,15.3759191 17.8816535,14.667348 C18.2810514,13.9587769 18.8888219,13.4052141 19.704983,13.0066428 C18.8888219,12.6080716 18.2810514,12.0522945 17.8816535,11.3392948 C17.4822555,10.6262952 17.2825595,9.80480792 17.2825595,8.87480838 L17.2825595,6.1778232 C17.2825595,5.13268086 17.1306168,4.25805155 16.8267271,3.55390904 C16.5228373,2.84976654 16.0018912,2.36041697 15.2638732,2.08584568 L15.993205,0 C17.6776226,0.487142616 18.8801398,1.25991636 19.6007928,2.3183444 C20.3214457,3.37677245 20.6817667,4.66325252 20.6817667,6.1778232 L20.6817667,8.87480838 C20.6817667,9.76937937 20.8684391,10.4580116 21.2417894,10.9407256 C21.6151397,11.4234396 22.201204,11.6647931 23,11.6647931 L23,14.3352069 C22.201204,14.3352069 21.6151397,14.5787746 21.2417894,15.0659172 C20.8684391,15.5530598 20.6817667,16.2350493 20.6817667,17.111906 L20.6817667,19.8088912 C20.6817667,21.3234618 20.3214457,22.6121562 19.6007928,23.6750128 C18.8801398,24.7378694 17.6776226,25.5128574 15.993205,26 L15.2638732,23.9008687 Z" id="path-2"></path>
    </defs>
    <g id="Symbols" stroke="none" stroke-width="1" fill="none" fill-rule="evenodd">
        <g id="COA---Block-Selector---Light" transform="translate(-238.000000, -243.000000)">
            <g id="COA/Icon/ProcessFilter-Copy-2" transform="translate(239.000000, 244.000000)">
                <g id="Rectangle-Copy-66">
                    <use fill="#FFFFFF" fill-rule="evenodd" xlink:href="#path-1"></use>
                    <rect stroke="#818D99" stroke-width="1" x="-0.197787445" y="-0.197787445" width="65" height="46" rx="2"></rect>
                </g>
                <g id="Color/SplunkGrey45-#5C6773" transform="translate(21.000000, 10.000000)">
                    <mask id="mask-3" fill="white">
                        <use xlink:href="#path-2"></use>
                    </mask>
                    <use id="Mask" fill="#818D99" xlink:href="#path-2"></use>
                </g>
            </g>
        </g>
    </g>
</svg>