<?xml version="1.0" encoding="UTF-8"?>
<svg width="65px" height="65px" viewBox="0 0 65 65" version="1.1" xmlns="http://www.w3.org/2000/svg" xmlns:xlink="http://www.w3.org/1999/xlink">
    <!-- Generator: Sketch 49.3 (51167) - http://www.bohemiancoding.com/sketch -->
    <title>COA/Icon/ProcessFilter</title>
    <desc>Created with Sketch.</desc>
    <defs>
        <rect id="path-1" x="9.30221256" y="9.30221256" width="44.9150554" height="44.9150554" rx="2"></rect>
        <path d="M21.9060599,0.608492613 C22.0828877,1.03495965 22.0100774,1.39901142 21.6876267,1.70065884 L13.9956559,9.39262957 L13.9956559,20.9695916 C13.9956559,21.4064603 13.7928271,21.7133039 13.3871633,21.8901317 C13.2519421,21.9421399 13.1219236,21.9681436 12.997104,21.9681436 C12.7162598,21.9681436 12.4822265,21.8693295 12.2949971,21.6716985 L8.30078918,17.6774905 C8.10315811,17.4798595 8.00434406,17.2458262 8.00434406,16.9753837 L8.00434406,9.39262957 L0.312373327,1.70065884 C-0.0100773623,1.39901142 -0.0828877161,1.03495965 0.0939400813,0.608492613 C0.270767879,0.202828843 0.577611513,0 1.01448019,0 L20.9855198,0 C21.4223885,0 21.7292321,0.202828843 21.9060599,0.608492613 Z" id="path-2"></path>
    </defs>
    <g id="Symbols" stroke="none" stroke-width="1" fill="none" fill-rule="evenodd">
        <g id="COA---Block-Selector---Light" transform="translate(-45.000000, -234.000000)">
            <g id="COA/Icon/ProcessFilter" transform="translate(46.000000, 235.000000)">
                <g id="Rectangle-Copy-66" transform="translate(31.759740, 31.759740) rotate(-45.000000) translate(-31.759740, -31.759740) ">
                    <use fill="#FFFFFF" fill-rule="evenodd" xlink:href="#path-1"></use>
                    <rect stroke="#818D99" stroke-width="1" x="8.80221256" y="8.80221256" width="45.9150554" height="45.9150554" rx="2"></rect>
                </g>
                <g id="Color/SplunkGrey45-#5C6773-Copy" transform="translate(21.000000, 24.000000)">
                    <mask id="mask-3" fill="white">
                        <use xlink:href="#path-2"></use>
                    </mask>
                    <use id="Mask" fill="#818D99" xlink:href="#path-2"></use>
                </g>
            </g>
        </g>
    </g>
</svg>