<?xml version="1.0" encoding="UTF-8"?>
<svg width="66px" height="47px" viewBox="0 0 66 47" version="1.1" xmlns="http://www.w3.org/2000/svg" xmlns:xlink="http://www.w3.org/1999/xlink">
    <!-- Generator: Sketch 49.3 (51167) - http://www.bohemiancoding.com/sketch -->
    <title>COA/Icon/ExecuteActions</title>
    <desc>Created with Sketch.</desc>
    <defs>
        <rect id="path-1" x="0" y="0" width="63.6100006" height="44.4916682" rx="2"></rect>
        <path d="M1,0 L8,0 C8.55228475,-1.01453063e-16 9,0.44771525 9,1 L9,3 C9,3.55228475 8.55228475,4 8,4 L1,4 C0.44771525,4 6.76353751e-17,3.55228475 0,3 L0,1 C-6.76353751e-17,0.44771525 0.44771525,1.01453063e-16 1,0 Z M16,0 L44,0 C44.5522847,-1.01453063e-16 45,0.44771525 45,1 L45,3 C45,3.55228475 44.5522847,4 44,4 L16,4 C15.4477153,4 15,3.55228475 15,3 L15,1 C15,0.44771525 15.4477153,1.01453063e-16 16,0 Z" id="path-2"></path>
    </defs>
    <g id="Symbols" stroke="none" stroke-width="1" fill="none" fill-rule="evenodd">
        <g id="COA---Block-Selector---Light" transform="translate(-45.000000, -109.000000)">
            <g id="COA/Icon/ExecuteActions" transform="translate(46.000000, 110.000000)">
                <g id="Rectangle-Copy-70">
                    <use fill="#FFFFFF" fill-rule="evenodd" xlink:href="#path-1"></use>
                    <rect stroke="#818D99" stroke-width="1" x="-0.5" y="-0.5" width="64.6100006" height="45.4916682" rx="2"></rect>
                </g>
                <g id="Color/SplunkGrey45-#5C6773" transform="translate(8.000000, 11.000000)">
                    <mask id="mask-3" fill="white">
                        <use xlink:href="#path-2"></use>
                    </mask>
                    <use id="Mask" fill="#818D99" xlink:href="#path-2"></use>
                </g>
            </g>
        </g>
    </g>
</svg>