<?xml version="1.0" encoding="UTF-8"?>
<svg width="67px" height="48px" viewBox="0 0 67 48" version="1.1" xmlns="http://www.w3.org/2000/svg" xmlns:xlink="http://www.w3.org/1999/xlink">
    <!-- Generator: Sketch 49.3 (51167) - http://www.bohemiancoding.com/sketch -->
    <title>COA/Icon/ProcessFilter Copy 2</title>
    <desc>Created with Sketch.</desc>
    <defs>
        <rect id="path-1" x="0.302212555" y="0.302212555" width="64" height="45" rx="2"></rect>
        <path d="M7.03525282,25.6387147 C5.33211047,25.1583412 4.12027737,24.3941221 3.39971714,23.3460345 C2.67915692,22.2979469 2.31888221,21.0271597 2.31888221,19.5336349 L2.31888221,16.8741259 C2.31888221,16.0094537 2.12891919,15.3369409 1.74898743,14.8565674 C1.36905568,14.3761939 0.786065698,14.1360108 0,14.1360108 L0,11.5027039 C0.786065698,11.5027039 1.36905568,11.2647042 1.74898743,10.7886978 C2.12891919,10.3126913 2.31888221,9.63362807 2.31888221,8.75148768 L2.31888221,6.0919787 C2.31888221,4.59845387 2.67915692,3.32985021 3.39971714,2.28612964 C4.12027737,1.24240908 5.33211047,0.480373482 7.03525282,0 L7.76891047,2.05686163 C7.02651509,2.32761759 6.50247915,2.81016735 6.19678693,3.50452538 C5.89109472,4.19888341 5.7382509,5.06135923 5.7382509,6.0919787 L5.7382509,8.75148768 C5.7382509,9.65983026 5.54392091,10.4655355 5.15525509,11.1686276 C4.76658927,11.8717197 4.17923233,12.419774 3.39316663,12.8128068 C4.17923233,13.2233078 4.76658927,13.780096 5.15525509,14.4831881 C5.54392091,15.1862802 5.7382509,15.9832515 5.7382509,16.8741259 L5.7382509,19.5336349 C5.7382509,20.5642544 5.89109472,21.4267302 6.19678693,22.1210882 C6.50247915,22.8154463 7.02651509,23.297996 7.76891047,23.568752 L7.03525282,25.6387147 Z M15.3544065,23.568752 C16.0968019,23.297996 16.6208378,22.8154463 16.9265301,22.1210882 C17.2322223,21.4267302 17.3850661,20.5642544 17.3850661,19.5336349 L17.3850661,16.8741259 C17.3850661,15.9657834 17.5859465,15.1622616 17.9877134,14.4635365 C18.3894804,13.7648115 19.0008556,13.2189407 19.8218576,12.8259078 C19.0008556,12.432875 18.3894804,11.8848207 17.9877134,11.1817286 C17.5859465,10.4786365 17.3850661,9.66856433 17.3850661,8.75148768 L17.3850661,6.0919787 C17.3850661,5.06135923 17.2322223,4.19888341 16.9265301,3.50452538 C16.6208378,2.81016735 16.0968019,2.32761759 15.3544065,2.05686163 L16.0880642,0 C17.7824725,0.480373482 18.9921221,1.24240908 19.7170493,2.28612964 C20.4419766,3.32985021 20.8044348,4.59845387 20.8044348,6.0919787 L20.8044348,8.75148768 C20.8044348,9.63362807 20.9922143,10.3126913 21.367779,10.7886978 C21.7433438,11.2647042 22.3328842,11.5027039 23.136418,11.5027039 L23.136418,14.1360108 C22.3328842,14.1360108 21.7433438,14.3761939 21.367779,14.8565674 C20.9922143,15.3369409 20.8044348,16.0094537 20.8044348,16.8741259 L20.8044348,19.5336349 C20.8044348,21.0271597 20.4419766,22.2979469 19.7170493,23.3460345 C18.9921221,24.3941221 17.7824725,25.1583412 16.0880642,25.6387147 L15.3544065,23.568752 Z" id="path-2"></path>
    </defs>
    <g id="Symbols" stroke="none" stroke-width="1" fill="none" fill-rule="evenodd">
        <g id="COA---Block-Selector---Dark-2" transform="translate(-238.000000, -243.000000)">
            <g id="COA/Icon/ProcessFilter-Copy-2" transform="translate(239.000000, 244.000000)">
                <g id="Rectangle-Copy-66">
                    <use fill="#000000" fill-rule="evenodd" xlink:href="#path-1"></use>
                    <rect stroke="#5C6773" stroke-width="1" x="-0.197787445" y="-0.197787445" width="65" height="46" rx="2"></rect>
                </g>
                <g id="Color/SplunkGrey45-#5C6773" transform="translate(21.000000, 10.000000)">
                    <mask id="mask-3" fill="white">
                        <use xlink:href="#path-2"></use>
                    </mask>
                    <use id="Mask" fill="#818D99" xlink:href="#path-2"></use>
                </g>
            </g>
        </g>
    </g>
</svg>