<?xml version="1.0" encoding="UTF-8"?>
<svg width="66px" height="47px" viewBox="0 0 66 47" version="1.1" xmlns="http://www.w3.org/2000/svg" xmlns:xlink="http://www.w3.org/1999/xlink">
    <!-- Generator: Sketch 49.3 (51167) - http://www.bohemiancoding.com/sketch -->
    <title>COA/Icon/ExecuteActions Copy</title>
    <desc>Created with Sketch.</desc>
    <defs>
        <rect id="path-1" x="0" y="0" width="63.6100006" height="44.4916682" rx="2"></rect>
        <path d="M20.8822622,20.5411752 C19.6382979,20.5411752 18.6308015,19.4720538 18.6308015,18.1521332 C18.6308015,16.8336457 19.6382979,15.7645243 20.8822622,15.7645243 C22.1262264,15.7645243 23.1337229,16.8336457 23.1337229,18.1521332 C23.1337229,19.4720538 22.1262264,20.5411752 20.8822622,20.5411752 Z M5.11773785,20.5411752 C3.87377356,20.5411752 2.86627715,19.4720538 2.86627715,18.1521332 C2.86627715,16.8336457 3.87377356,15.7645243 5.11773785,15.7645243 C6.36170213,15.7645243 7.36919854,16.8336457 7.36919854,18.1521332 C7.36919854,19.4720538 6.36170213,20.5411752 5.11773785,20.5411752 Z M10.8244956,9.99184213 C11.4866057,10.3142983 12.2189395,10.5092052 13,10.5092052 C13.7925256,10.5092052 14.5348914,10.3071326 15.2056003,9.97607761 L17.674898,14.5477897 C16.7490905,15.3202514 16.0841142,16.6788667 15.8576783,18.1120053 L10.1423217,18.1120053 C9.90442068,16.6788667 9.18211884,15.1984346 8.17605556,14.4216735 L10.8244956,9.99184213 Z M13,2.86627715 C14.2439643,2.86627715 15.2514607,3.93539852 15.2514607,5.25388601 C15.2514607,6.57380664 14.2439643,7.64292801 13,7.64292801 C11.7560357,7.64292801 10.7485393,6.57380664 10.7485393,5.25388601 C10.7485393,3.93539852 11.7560357,2.86627715 13,2.86627715 Z M20.8822622,12.8982472 C20.694521,12.8982472 20.518245,12.9340756 20.3362364,12.9541396 L17.3524418,7.98258185 C17.829677,7.18575681 18.1177378,6.25708301 18.1177378,5.25388601 C18.1177378,2.35751295 15.8218499,0 13,0 C10.1781501,0 7.88226215,2.35751295 7.88226215,5.25388601 C7.88226215,6.28144637 8.18178812,7.23305038 8.6790872,8.04277367 L5.42156322,12.9297762 C5.31837725,12.9226105 5.22235696,12.8982472 5.11773785,12.8982472 C2.29588799,12.8982472 0,15.2557601 0,18.1521332 C0,21.0499394 2.29588799,23.8646235 5.11773785,23.8646235 C7.28177709,23.8646235 9.12622644,22.411421 9.87289163,20.9782824 L16.1271084,20.9782824 C16.8737736,22.411421 18.7182229,23.8646235 20.8822622,23.8646235 C23.704112,23.8646235 26,21.2792415 26,18.3814353 C26,15.4836291 23.704112,12.8982472 20.8822622,12.8982472 Z" id="path-2"></path>
    </defs>
    <g id="Symbols" stroke="none" stroke-width="1" fill="none" fill-rule="evenodd">
        <g id="COA---Block-Selector---Light" transform="translate(-239.000000, -109.000000)">
            <g id="COA/Icon/ExecuteActions-Copy" transform="translate(240.000000, 110.000000)">
                <g id="Rectangle-Copy-70">
                    <use fill="#FFFFFF" fill-rule="evenodd" xlink:href="#path-1"></use>
                    <rect stroke="#818D99" stroke-width="1" x="-0.5" y="-0.5" width="64.6100006" height="45.4916682" rx="2"></rect>
                </g>
                <g id="Color/SplunkGrey45-#5C6773-Copy" transform="translate(18.000000, 11.000000)">
                    <mask id="mask-3" fill="white">
                        <use xlink:href="#path-2"></use>
                    </mask>
                    <use id="Mask" fill="#818D99" xlink:href="#path-2"></use>
                </g>
            </g>
        </g>
    </g>
</svg>