<?xml version="1.0" encoding="UTF-8"?>
<svg width="139px" height="19px" viewBox="0 0 139 19" version="1.1" xmlns="http://www.w3.org/2000/svg" xmlns:xlink="http://www.w3.org/1999/xlink">
    <!-- Generator: Sketch 49.3 (51167) - http://www.bohemiancoding.com/sketch -->
    <title>Logo/Splunk Phantom Final</title>
    <desc>Created with Sketch.</desc>
    <defs>
        <polygon id="path-1" points="0.00464365256 0.014795082 138.979878 0.014795082 138.979878 19 0.00464365256 19"></polygon>
    </defs>
    <g id="Symbols" stroke="none" stroke-width="1" fill="none" fill-rule="evenodd">
        <g id="Navigation/Global/Splunk" transform="translate(-20.000000, -21.000000)">
            <g id="Logo/Splunk-Phantom-Final" transform="translate(20.000000, 21.000000)">
                <g id="LGO-Splunk-Phantom-2C-K">
                    <path d="M74.4415723,9.12591472 L74.4415723,9.16037773 C74.4415723,11.0658441 73.2243407,12.3965166 71.4813596,12.3965166 C69.9834962,12.3965166 68.4343345,11.1796952 68.4343345,9.14330008 L68.4343345,9.10860628 C68.4343345,7.10975127 70.0158381,5.8724674 71.4813596,5.8724674 C73.1966411,5.8724674 74.4415723,7.24075689 74.4415723,9.12591472 Z M71.724156,4.29032258 C70.4330332,4.29032258 69.3690001,4.81111416 68.486716,5.87869844 L68.486716,4.48025381 L66.7565789,4.48025381 L66.7565789,16.5483871 L68.486716,16.5483871 L68.486716,12.4636733 C69.3489605,13.4694857 70.4355865,13.9785845 71.724156,13.9785845 C73.8968665,13.9785845 76.2061404,12.2839733 76.2061404,9.14330008 L76.2061404,9.10860628 C76.2061404,5.97901044 73.8968665,4.29032258 71.724156,4.29032258 Z" id="Fill-1" fill="#8F928F"></path>
                    <path d="M82.3306423,4.45539421 C81.1413024,4.45539421 80.177767,4.90538306 79.4585952,5.79474155 L79.4585952,0.919354839 L77.7302632,0.919354839 L77.7302632,14.0967742 L79.4585952,14.0967742 L79.4585952,8.71603822 C79.4585952,7.1632917 80.4832216,6.07888339 81.949404,6.07888339 C83.4001203,6.07888339 84.2314209,7.0018173 84.2314209,8.61086123 L84.2314209,14.0967742 L85.9605263,14.0967742 L85.9605263,8.27823023 C85.9605263,5.95598169 84.535329,4.45539421 82.3306423,4.45539421" id="Fill-2" fill="#8F928F"></path>
                    <path d="M94.0623913,9.63492576 L94.0623913,10.362869 C94.0623913,11.6523372 92.8626579,12.6246536 91.2717406,12.6246536 C90.2853103,12.6246536 89.2234154,12.1204576 89.2234154,11.0133282 L89.2234154,10.9781936 C89.2234154,9.92517766 90.1243705,9.29659918 91.6344328,9.29659918 C92.4506827,9.29659918 93.2469114,9.40741408 94.0623913,9.63492576 Z M91.7206781,4.29032258 C90.2575886,4.29032258 89.2180251,4.68166464 88.3933047,5.06445834 L88.2285146,5.14107982 L88.7606171,6.62574846 L88.9538989,6.53548098 C89.6769732,6.19786023 90.4955332,5.88549241 91.5828397,5.88549241 C92.7063384,5.88549241 94.0446802,6.28099101 94.0446802,8.16500108 L94.0446802,8.21966348 C93.3862899,8.04336349 92.6070023,7.8946692 91.4965944,7.8946692 C89.0216631,7.8946692 87.4846491,9.09653634 87.4846491,11.0310523 L87.4846491,11.0661084 C87.4846491,13.0557573 89.2596076,14.0967742 91.0130048,14.0967742 C92.4699339,14.0967742 93.4340328,13.4956446 94.0446802,12.8658897 L94.0446802,13.9034559 L95.7149123,13.9034559 L95.7149123,8.14735539 C95.7149123,6.94940951 95.3876423,6.00854165 94.7423428,5.35110267 C94.0516106,4.64715752 93.0351485,4.29032258 91.7206781,4.29032258 Z" id="Fill-3" fill="#8F928F"></path>
                    <path d="M102.144239,4.29032258 C100.954899,4.29032258 99.9913634,4.73371285 99.272965,5.61002989 L99.272965,4.48028103 L97.5438596,4.48028103 L97.5438596,13.7903226 L99.272965,13.7903226 L99.272965,8.48848904 C99.272965,6.9585118 100.296818,5.89000511 101.763,5.89000511 C103.213717,5.89000511 104.045791,6.79940524 104.045791,8.38485436 L104.045791,13.7903226 L105.774123,13.7903226 L105.774123,8.05710101 C105.774123,5.76890564 104.349699,4.29032258 102.144239,4.29032258" id="Fill-4" fill="#8F928F"></path>
                    <path d="M109.955812,1.83870968 L108.235317,1.83870968 L108.235317,4.55214697 L106.993421,4.55214697 L106.993421,6.13016884 L108.235317,6.13016884 L108.235317,11.3595967 C108.235317,13.0990672 109.224832,14.0967742 110.949944,14.0967742 C111.577817,14.0967742 112.116434,13.9680653 112.645047,13.6918727 L112.750462,13.636479 L112.750462,12.0537246 L112.469612,12.1901917 C112.040258,12.3987327 111.690157,12.4836852 111.260803,12.4836852 C110.370547,12.4836852 109.955812,12.0711806 109.955812,11.1856575 L109.955812,6.13016884 L112.785088,6.13016884 L112.785088,4.55214697 L109.955812,4.55214697 L109.955812,1.83870968" id="Fill-5" fill="#8F928F"></path>
                    <path d="M121.686618,9.19370384 L121.686618,9.22852479 C121.686618,11.0926118 120.35299,12.4982747 118.584886,12.4982747 C116.836144,12.4982747 115.466116,11.0467538 115.466116,9.19370384 L115.466116,9.15864971 C115.466116,7.28469158 116.792,5.87164477 118.55081,5.87164477 C120.308845,5.87164477 121.686618,7.33086044 121.686618,9.19370384 Z M118.584886,4.29032258 C115.845604,4.29032258 113.699561,6.44416968 113.699561,9.19370384 L113.699561,9.22852479 C113.699561,11.9583944 115.830114,14.0967742 118.55081,14.0967742 C121.30016,14.0967742 123.453947,11.9430825 123.453947,9.19370384 L123.453947,9.15864971 C123.453947,6.42870233 121.314875,4.29032258 118.584886,4.29032258 Z" id="Fill-6" fill="#8F928F"></path>
                    <g id="Group-12">
                        <mask id="mask-2" fill="white">
                            <use xlink:href="#path-1"></use>
                        </mask>
                        <g id="Clip-8"></g>
                        <path d="M135.450702,4.34578279 C134.139644,4.34578279 133.110301,4.87544672 132.313914,5.96280738 C131.69863,4.91702869 130.679349,4.34578279 129.412405,4.34578279 C128.078129,4.34578279 127.267038,4.9697459 126.712121,5.65016393 L126.712121,4.53804098 L124.981587,4.53804098 L124.981587,13.9607951 L126.712121,13.9607951 L126.712121,8.61213934 C126.712121,7.07820082 127.679549,5.96483197 129.013051,5.96483197 C130.334944,5.96483197 131.123591,6.89583197 131.123591,8.455 L131.123591,13.9607951 L132.854126,13.9607951 L132.854126,8.55965574 C132.854126,7.00765164 133.765056,5.96483197 135.121002,5.96483197 C136.493202,5.96483197 137.249343,6.86156967 137.249343,8.48988525 L137.249343,13.9607951 L138.979878,13.9607951 L138.979878,8.1757623 C138.979878,5.81337705 137.627801,4.34578279 135.450702,4.34578279" id="Fill-7" fill="#8F928F" mask="url(#mask-2)"></path>
                        <path d="M6.78778174,11.5134549 C6.78778174,11.9390082 6.69761748,12.3311557 6.51906904,12.6923115 C6.34021102,13.0534672 6.09069209,13.3592582 5.7712088,13.6103852 C5.45126114,13.8614344 5.07125557,14.0575082 4.63065033,14.1989959 C4.18927116,14.3403279 3.70671826,14.4109549 3.18252728,14.4109549 C2.5554794,14.4109549 1.99336526,14.3246762 1.49486915,14.1519631 C0.996450445,13.9788607 0.49826392,13.6933934 0,13.2955615 L0.824325724,11.9467172 C1.2202745,12.2810082 1.57814532,12.5255164 1.8978608,12.6796189 C2.21680234,12.8341107 2.54317372,12.9110451 2.87596882,12.9110451 C3.28468764,12.9110451 3.61345824,12.805377 3.86297717,12.592873 C4.11226392,12.3801352 4.23717817,12.094123 4.23717817,11.7337459 C4.23717817,11.5792541 4.21450167,11.4337951 4.16992261,11.2993156 C4.12534354,11.1638238 4.04229955,11.0255287 3.92102283,10.8834959 C3.79990089,10.7424754 3.6340451,10.5879836 3.42306849,10.4207213 C3.21232405,10.253459 2.94097996,10.0472623 2.60965535,9.80290984 C2.35417706,9.62240984 2.10512249,9.43591393 1.86287862,9.24295492 C1.61978341,9.04984016 1.39990646,8.84364344 1.20193207,8.62459836 C1.00395768,8.40586475 0.844912584,8.16159016 0.722629733,7.89154098 C0.601739978,7.62040164 0.541604677,7.31165164 0.541604677,6.96459016 C0.541604677,6.5657459 0.62402951,6.20186475 0.789962695,5.8734918 C0.955276726,5.54511885 1.18157739,5.26556967 1.46894209,5.0339877 C1.75568764,4.80217213 2.09962751,4.62167213 2.50169042,4.49318852 C2.90328898,4.3642377 3.33986971,4.29984016 3.81120045,4.29984016 C4.30923218,4.29984016 4.79116592,4.36719672 5.25823998,4.50128689 C5.72384354,4.63592213 6.15562584,4.83028279 6.55180679,5.08577049 L5.80425612,6.29678689 C5.29306737,5.93687705 4.75610635,5.75676639 4.19352784,5.75676639 C3.84904621,5.75676639 3.56431292,5.84725 3.34079844,6.02736066 C3.11705178,6.20793852 3.00529454,6.43282377 3.00529454,6.70357377 C3.00529454,6.9612418 3.10389477,7.19336885 3.30163697,7.39886475 C3.49821826,7.60513934 3.83921715,7.89488934 4.32355011,8.26803689 C4.81113363,8.62911475 5.21559577,8.94440574 5.53608519,9.21476639 C5.85711637,9.48520492 6.11019543,9.7399918 6.29609633,9.97780328 C6.48261637,10.216627 6.61101336,10.4581762 6.68159688,10.7026066 C6.75156125,10.9478934 6.78778174,11.217709 6.78778174,11.5134549" id="Fill-9" fill="#FFFFFF" mask="url(#mask-2)"></path>
                        <path d="M17.9464014,9.14320492 C17.9464014,9.90219262 17.8308519,10.6010656 17.5997528,11.2374877 C17.3689633,11.8741434 17.0484738,12.43075 16.6378976,12.9058279 C16.2270891,13.3824631 15.7401247,13.7528074 15.1753792,14.016082 C14.6110206,14.2788893 14.001696,14.4109549 13.3475601,14.4109549 C13.0525334,14.4109549 12.7763135,14.3857254 12.5199065,14.3344877 C12.2631125,14.2827828 12.0199399,14.1954918 11.788686,14.0733934 C11.5580512,13.9509836 11.3300479,13.7937664 11.1057595,13.5997172 C10.8815484,13.4063689 10.6472762,13.1680123 10.4037166,12.884959 L10.4037166,19 L7.93948497,19 L7.93948497,4.53142213 L10.4037166,4.53142213 L10.4171832,5.93960246 C10.8656826,5.37388525 11.3518731,4.95907787 11.8766832,4.69518033 C12.4018803,4.43167213 13.0105084,4.29984016 13.7017934,4.29984016 C14.3293057,4.29984016 14.9017906,4.41897951 15.420564,4.65710246 C15.9388731,4.8947582 16.3870629,5.22570082 16.7651336,5.65055328 C17.1425078,6.07563934 17.433897,6.58357787 17.6392238,7.17553689 C17.8438541,7.76710656 17.9464014,8.42322951 17.9464014,9.14320492 M15.2665496,9.24085246 C15.2665496,8.1852623 15.0539477,7.35136475 14.6290535,6.73986066 C14.2043914,6.12835656 13.6250184,5.82217623 12.8915535,5.82217623 C12.1195462,5.82217623 11.5082094,6.14704508 11.0578524,6.79771721 C10.6073408,7.44823361 10.3818914,8.32698361 10.3818914,9.43412295 C10.3818914,10.5160328 10.6040128,11.3659713 11.0478686,11.9837049 C11.4917244,12.6020615 12.1000429,12.9110451 12.8726693,12.9110451 C13.3354866,12.9110451 13.7180462,12.7924508 14.0209671,12.5540164 C14.3234237,12.3154262 14.5679894,12.0128279 14.7545095,11.6459098 C14.9411069,11.2793033 15.073064,10.8799139 15.1504582,10.4487541 C15.2272333,10.0170492 15.2665496,9.61470082 15.2665496,9.24085246" id="Fill-10" fill="#FFFFFF" mask="url(#mask-2)"></path>
                        <polygon id="Fill-11" fill="#FFFFFF" mask="url(#mask-2)" points="19.0430774 14.1729098 21.572088 14.1729098 21.572088 0.014795082 19.0430774 0.014795082"></polygon>
                    </g>
                    <path d="M29.7822256,14.17122 L29.7756457,12.8907116 C29.2889616,13.4269645 28.789737,13.8131006 28.2771976,14.0493514 C27.7648904,14.2859108 27.169134,14.4032258 26.490238,14.4032258 C25.7347824,14.4032258 25.0978432,14.2539579 24.5786465,13.9541873 C24.0599142,13.6538764 23.6854764,13.2097003 23.4553329,12.6223536 C23.3910042,12.4821159 23.3427771,12.3348547 23.3111159,12.1818821 C23.2791451,12.0289096 23.2501159,11.8536317 23.224338,11.6556627 C23.1988697,11.4570762 23.1826908,11.2307818 23.1764205,10.9754674 C23.1698405,10.7203073 23.1666667,10.4067213 23.1666667,10.0367932 L23.1666667,4.59677419 L25.6962316,4.59677419 L25.6962316,10.0742259 C25.6962316,10.5602341 25.718526,10.9300078 25.7632697,11.1857082 C25.8084004,11.4404824 25.8887532,11.6717163 26.0045603,11.8747793 C26.2998065,12.4119584 26.8204741,12.6795446 27.5657889,12.6795446 C28.5165529,12.6795446 29.1718385,12.2836838 29.5312586,11.4918077 C29.6212104,11.2873554 29.6853842,11.0614469 29.7241672,10.8117667 C29.7627954,10.5633213 29.7822256,10.2092925 29.7822256,9.74929433 L29.7822256,4.59677419 L32.3114035,4.59677419 L32.3114035,14.17122 L29.7822256,14.17122" id="Fill-13" fill="#FFFFFF"></path>
                    <path d="M40.7611953,14.0967742 L40.7611953,8.62170969 C40.7611953,8.13661166 40.7391081,7.76667801 40.6934663,7.51136732 C40.6492918,7.25659804 40.5686656,7.02642398 40.4541363,6.82200528 C40.1592021,6.28624729 39.6404608,6.01817494 38.8965995,6.01817494 C38.4221871,6.01817494 38.0148087,6.11717454 37.6754683,6.31486437 C37.3357418,6.51270887 37.0823563,6.80328816 36.9163931,7.18575146 C36.8258817,7.4032412 36.7651804,7.63558088 36.7331307,7.88447206 C36.70139,8.13336324 36.6853265,8.48148604 36.6853265,8.92783501 L36.6853265,14.0967742 L34.1403509,14.0967742 L34.1403509,4.52351304 L36.6853265,4.52351304 L36.6901919,5.80679533 C37.1762657,5.27003189 37.6739238,4.88238658 38.1854829,4.6459477 C38.6963469,4.40865804 39.2909263,4.29032258 39.9682169,4.29032258 C40.722504,4.29032258 41.3579371,4.44709773 41.8758289,4.75971989 C42.393489,5.07265144 42.7672731,5.51575198 42.997104,6.09041371 C43.0480746,6.23148814 43.0933303,6.37503756 43.1312493,6.52175806 C43.1700178,6.6690973 43.2014497,6.83770599 43.2270894,7.029131 C43.2529608,7.22047866 43.2684064,7.44724961 43.2751253,7.70921183 C43.2813808,7.97109671 43.2850877,8.2869673 43.2850877,8.65713299 L43.2850877,14.0967742 L40.7611953,14.0967742" id="Fill-14" fill="#FFFFFF"></path>
                    <polyline id="Fill-15" fill="#FFFFFF" points="51.5641735 14.4032258 47.6983883 9.05974196 47.6983883 14.2092498 45.1140351 14.2092498 45.1140351 0 47.6983883 0 47.6983883 8.34339064 47.970376 8.34339064 51.4083375 4.37524507 53.3514649 5.2075756 50.0482424 8.73071741 53.9539474 13.5702701 51.5641735 14.4032258"></polyline>
                    <polyline id="Fill-16" fill="#8F928F" points="56.0877193 13.7903226 56.0877193 12.1119345 61.9930895 9.19362549 56.0877193 6.31324966 56.0877193 4.59677419 63.7083333 8.4307218 63.7083333 9.99446233 56.0877193 13.7903226"></polyline>
                    <path d="M56.83175,3.02988262 L56.9508648,3.02988262 C57.086604,3.02988262 57.2015626,2.98106586 57.2015626,2.85457107 C57.2015626,2.76452394 57.1356464,2.67538388 56.9508648,2.67538388 C56.8974169,2.67538388 56.8604273,2.67934199 56.83175,2.68354749 L56.83175,3.02988262 Z M56.83175,3.59663531 L56.6671672,3.59663531 L56.6671672,2.57305009 C56.7534485,2.56101082 56.8356568,2.54888909 56.9586783,2.54888909 C57.115032,2.54888909 57.2172728,2.58137863 57.2796148,2.62664958 C57.3408762,2.67126084 57.373959,2.74036294 57.373959,2.83849123 C57.373959,2.97290224 57.2831891,3.05453838 57.1726359,3.08694545 L57.1726359,3.0950266 C57.2630734,3.11143629 57.3248335,3.19315489 57.345531,3.34372821 C57.3703847,3.50287745 57.3949059,3.56381594 57.4108654,3.59663531 L57.2382197,3.59663531 C57.2131167,3.56381594 57.1891774,3.47005807 57.1684798,3.33564706 C57.1433768,3.20527662 57.077793,3.15604756 56.9470411,3.15604756 L56.83175,3.15604756 L56.83175,3.59663531 Z M57.0041464,2.2879833 C56.5973442,2.2879833 56.2642718,2.63431843 56.2642718,3.06253707 C56.2642718,3.49858949 56.5973442,3.84104896 57.0088012,3.84104896 C57.4194271,3.84533692 57.7479277,3.49858949 57.7479277,3.06641273 C57.7479277,2.63431843 57.4194271,2.2879833 57.0088012,2.2879833 L57.0041464,2.2879833 Z M57.0088012,2.14516129 C57.5137712,2.14516129 57.9166667,2.55309459 57.9166667,3.06253707 C57.9166667,3.5800607 57.5137712,3.98387097 57.0041464,3.98387097 C56.4985945,3.98387097 56.0877193,3.5800607 56.0877193,3.06253707 C56.0877193,2.55309459 56.4985945,2.14516129 57.0041464,2.14516129 L57.0088012,2.14516129 Z" id="Fill-17" fill="#8F928F"></path>
                </g>
            </g>
        </g>
    </g>
</svg>