<svg width="52" height="52" xmlns="http://www.w3.org/2000/svg">
 <defs>
  <style>.cls-1{fill:#333;}.cls-2{fill:#f97500;}</style>
 </defs>
 <title>Asset 1</title>
 <g>
  <title>background</title>
  <rect x="-1" y="-1" width="54" height="54" id="canvas_background" fill="none"/>
 </g>
 <g>
  <title>Layer 1</title>
  <g stroke="null" id="svg_19">
   <path stroke="null" class="cls-2" d="m17.12888,4.27523l0,0l0.0848,-0.03914l-0.0848,0.03914z" id="svg_8"/>
   <path stroke="null" class="cls-2" d="m12.98679,13.60959a3.91378,3.91378 0 0 1 3.37237,-3.87464l0.76971,-5.4532a23.53485,23.53485 0 0 0 -12.88938,12.97418l8.76686,-3.26148a3.67243,3.67243 0 0 1 -0.01957,-0.38485z" id="svg_9"/>
   <path stroke="null" class="cls-2" d="m18.52479,29.48648l-15.82471,-0.87408a23.38483,23.38483 0 0 0 6.11202,13.34598a3.91378,3.91378 0 0 1 3.57458,-2.33522a3.95944,3.95944 0 0 1 1.15456,0.17612l5.72064,-9.13215a3.7507,3.7507 0 0 1 -0.73709,-1.18066z" id="svg_10"/>
   <path stroke="null" class="cls-2" d="m19.73806,24.92693l-2.69398,-7.40356l-0.14351,0a3.91378,3.91378 0 0 1 -2.79183,-1.17413l-10.9064,4.07033a23.37178,23.37178 0 0 0 -0.6523,5.58366l15.8508,0.8806a3.91378,3.91378 0 0 1 1.33721,-1.95689z" id="svg_11"/>
   <path stroke="null" class="cls-2" d="m22.11894,31.87389a3.36585,3.36585 0 0 1 -0.51531,-0.03914l-6.00765,9.60833a3.84203,3.84203 0 0 1 0.6523,2.17215a3.91378,3.91378 0 0 1 -1.42853,3.00056a23.35873,23.35873 0 0 0 11.21298,2.8701c0.52836,0 1.05672,0 1.57856,-0.05871l-5.49234,-17.5533z" id="svg_12"/>
   <path stroke="null" class="cls-2" d="m33.86028,7.08662a3.91378,3.91378 0 0 1 1.15456,-2.77878a23.43701,23.43701 0 0 0 -15.12023,-0.97844l-0.97192,6.94696a3.95292,3.95292 0 0 1 1.27198,1.25241l13.66561,-4.27906c0,-0.05218 0,-0.10437 0,-0.16307z" id="svg_13"/>
   <path stroke="null" class="cls-2" d="m44.29702,31.22159a3.91378,3.91378 0 0 1 -3.30714,3.86159l-2.88315,11.05642a23.48267,23.48267 0 0 0 11.33691,-18.61654l-5.14662,3.20278a4.2334,4.2334 0 0 1 0,0.49575z" id="svg_14"/>
   <path stroke="null" class="cls-2" d="m41.49215,8.33903a3.95292,3.95292 0 0 1 -1.85904,2.19172l1.82643,16.92057a3.80289,3.80289 0 0 1 1.63074,0.93278l6.35989,-3.91378a23.43701,23.43701 0 0 0 -7.95802,-16.13129z" id="svg_15"/>
   <path stroke="null" class="cls-2" d="m38.85687,27.5883l-1.80686,-16.66617a3.91378,3.91378 0 0 1 -2.18519,-1.22632l-14.10917,4.38995a3.91378,3.91378 0 0 1 -1.30459,2.45263l2.74617,7.50793a3.91378,3.91378 0 0 1 3.8355,3.49631l10.85421,1.95689a3.91378,3.91378 0 0 1 1.96994,-1.91123z" id="svg_16"/>
   <path stroke="null" class="cls-2" d="m36.58036,32.08262l-11.19993,-1.99603a3.78984,3.78984 0 0 1 -0.84146,0.92626l5.67498,18.08818a23.29351,23.29351 0 0 0 4.76176,-1.39591l3.45065,-13.11768a3.91378,3.91378 0 0 1 -1.846,-2.50482z" id="svg_17"/>
   <path stroke="null" class="cls-2" d="m12.3345,41.65833a1.95689,1.95689 0 0 1 0.57402,3.81593a24.43502,24.43502 0 0 1 -2.51786,-1.95689a1.95689,1.95689 0 0 1 1.94384,-1.85904zm9.78445,-11.74134a1.95689,1.95689 0 1 1 1.95689,-1.95689a1.95689,1.95689 0 0 1 -1.95689,1.95689zm-3.26148,-16.30741a1.95689,1.95689 0 1 1 -1.95689,-1.95689a1.95689,1.95689 0 0 1 1.95689,1.95689zm21.52578,19.56889a1.95689,1.95689 0 1 1 1.95689,-1.95689a1.95689,1.95689 0 0 1 -1.95689,1.95689zm-0.6523,-26.09186a1.95689,1.95689 0 1 1 -2.66789,-1.81991a23.03911,23.03911 0 0 1 2.66789,1.65683a1.50028,1.50028 0 0 1 0,0.16307z" id="svg_18"/>
  </g>
 </g>
</svg>